Crimson Text-Italic.ufo
<glyph name="exclam" format="1">
  <advance width="221"/>
  <unicode hex="0021"/>
  <note>
    exclam
  </note>
  <outline>
    <contour>
      <point x="97" y="148" type="curve" smooth="yes"/>
      <point x="106" y="148"/>
      <point x="113" y="156"/>
      <point x="119" y="174" type="curve" smooth="yes"/>
      <point x="152" y="273"/>
      <point x="219" y="523"/>
      <point x="231" y="585" type="curve" smooth="yes"/>
      <point x="238" y="622"/>
      <point x="219" y="642"/>
      <point x="194" y="642" type="curve" smooth="yes"/>
      <point x="166" y="642"/>
      <point x="141" y="622"/>
      <point x="134" y="585" type="curve" smooth="yes"/>
      <point x="122" y="523"/>
      <point x="96" y="275"/>
      <point x="84" y="173" type="curve" smooth="yes"/>
      <point x="82" y="156"/>
      <point x="87" y="148"/>
    </contour>
    <contour>
      <point x="66" y="-14" type="curve" smooth="yes"/>
      <point x="99" y="-14"/>
      <point x="131" y="20"/>
      <point x="131" y="56" type="curve" smooth="yes"/>
      <point x="131" y="82"/>
      <point x="114" y="102"/>
      <point x="88" y="102" type="curve" smooth="yes"/>
      <point x="55" y="102"/>
      <point x="23" y="68"/>
      <point x="23" y="32" type="curve" smooth="yes"/>
      <point x="23" y="6"/>
      <point x="40" y="-14"/>
    </contour>
  </outline>
</glyph>
<glyph name="quotedbl" format="1">
  <advance width="337"/>
  <unicode hex="0022"/>
  <note>
    quotedbl
  </note>
  <outline>
    <contour>
      <point x="133" y="434" type="curve" smooth="yes"/>
      <point x="143" y="434"/>
      <point x="149" y="439"/>
      <point x="152" y="449" type="curve" smooth="yes"/>
      <point x="177" y="531"/>
      <point x="227" y="605"/>
      <point x="227" y="656" type="curve" smooth="yes"/>
      <point x="227" y="684"/>
      <point x="208" y="698"/>
      <point x="185" y="698" type="curve" smooth="yes"/>
      <point x="137" y="698"/>
      <point x="118" y="656"/>
      <point x="118" y="608" type="curve" smooth="yes"/>
      <point x="118" y="564"/>
      <point x="122" y="525"/>
      <point x="122" y="487" type="curve" smooth="yes"/>
      <point x="122" y="475"/>
      <point x="121" y="462"/>
      <point x="120" y="449" type="curve" smooth="yes"/>
      <point x="119" y="439"/>
      <point x="123" y="434"/>
    </contour>
    <contour>
      <point x="288" y="434" type="curve" smooth="yes"/>
      <point x="298" y="434"/>
      <point x="304" y="439"/>
      <point x="307" y="449" type="curve" smooth="yes"/>
      <point x="332" y="531"/>
      <point x="382" y="605"/>
      <point x="382" y="656" type="curve" smooth="yes"/>
      <point x="382" y="684"/>
      <point x="363" y="698"/>
      <point x="340" y="698" type="curve" smooth="yes"/>
      <point x="292" y="698"/>
      <point x="273" y="656"/>
      <point x="273" y="608" type="curve" smooth="yes"/>
      <point x="273" y="564"/>
      <point x="277" y="525"/>
      <point x="277" y="487" type="curve" smooth="yes"/>
      <point x="277" y="475"/>
      <point x="276" y="462"/>
      <point x="275" y="449" type="curve" smooth="yes"/>
      <point x="274" y="439"/>
      <point x="278" y="434"/>
    </contour>
  </outline>
</glyph>
<glyph name="numbersign" format="1">
  <advance width="473"/>
  <unicode hex="0023"/>
  <note>
    numbersign
  </note>
  <outline>
    <contour>
      <point x="228" y="533" type="line"/>
      <point x="44" y="0" type="line"/>
      <point x="99" y="0" type="line"/>
      <point x="283" y="533" type="line"/>
    </contour>
    <contour>
      <point x="391" y="533" type="line"/>
      <point x="207" y="0" type="line"/>
      <point x="262" y="0" type="line"/>
      <point x="446" y="533" type="line"/>
    </contour>
    <contour>
      <point x="60" y="378" type="line"/>
      <point x="50" y="326" type="line"/>
      <point x="466" y="326" type="line"/>
      <point x="476" y="378" type="line"/>
    </contour>
    <contour>
      <point x="29" y="222" type="line"/>
      <point x="19" y="170" type="line"/>
      <point x="435" y="170" type="line"/>
      <point x="445" y="222" type="line"/>
    </contour>
  </outline>
</glyph>
<glyph name="dollar" format="1">
  <advance width="485"/>
  <unicode hex="0024"/>
  <note>
    dollar
  </note>
  <outline>
    <contour>
      <point x="382" y="758" type="line"/>
      <point x="95" y="-100" type="line"/>
      <point x="139" y="-100" type="line"/>
      <point x="426" y="758" type="line"/>
    </contour>
    <contour>
      <point x="193" y="-10" type="curve" smooth="yes"/>
      <point x="323" y="-10"/>
      <point x="432" y="82"/>
      <point x="432" y="185" type="curve" smooth="yes"/>
      <point x="432" y="251"/>
      <point x="392" y="299"/>
      <point x="298" y="363" type="curve" smooth="yes"/>
      <point x="218" y="418"/>
      <point x="194" y="457"/>
      <point x="194" y="511" type="curve" smooth="yes"/>
      <point x="194" y="577"/>
      <point x="241" y="625"/>
      <point x="321" y="625" type="curve" smooth="yes"/>
      <point x="384" y="625"/>
      <point x="424" y="586"/>
      <point x="425" y="498" type="curve"/>
      <point x="425" y="491"/>
      <point x="431" y="488"/>
      <point x="444" y="488" type="curve" smooth="yes"/>
      <point x="454" y="488"/>
      <point x="459" y="490"/>
      <point x="460" y="495" type="curve" smooth="yes"/>
      <point x="471" y="550"/>
      <point x="477" y="600"/>
      <point x="476" y="638" type="curve"/>
      <point x="424" y="654"/>
      <point x="391" y="666"/>
      <point x="336" y="666" type="curve" smooth="yes"/>
      <point x="211" y="666"/>
      <point x="112" y="578"/>
      <point x="112" y="467" type="curve" smooth="yes"/>
      <point x="112" y="404"/>
      <point x="149" y="354"/>
      <point x="238" y="295" type="curve" smooth="yes"/>
      <point x="323" y="239"/>
      <point x="343" y="208"/>
      <point x="343" y="160" type="curve" smooth="yes"/>
      <point x="343" y="84"/>
      <point x="288" y="31"/>
      <point x="203" y="31" type="curve" smooth="yes"/>
      <point x="124" y="31"/>
      <point x="78" y="72"/>
      <point x="75" y="175" type="curve"/>
      <point x="71" y="182"/>
      <point x="66" y="184"/>
      <point x="55" y="184" type="curve" smooth="yes"/>
      <point x="43" y="184"/>
      <point x="36" y="182"/>
      <point x="35" y="178" type="curve" smooth="yes"/>
      <point x="29" y="153"/>
      <point x="26" y="71"/>
      <point x="29" y="19" type="curve"/>
      <point x="89" y="8"/>
      <point x="132" y="-10"/>
    </contour>
  </outline>
</glyph>
<glyph name="percent" format="1">
  <advance width="698"/>
  <unicode hex="0025"/>
  <note>
    percent
  </note>
  <outline>
    <contour>
      <point x="706" y="638" type="line"/>
      <point x="648" y="638" type="line"/>
      <point x="32" y="0" type="line"/>
      <point x="90" y="0" type="line"/>
    </contour>
    <contour>
      <point x="263" y="612" type="curve" smooth="yes"/>
      <point x="303" y="612"/>
      <point x="331" y="576"/>
      <point x="331" y="517" type="curve" smooth="yes"/>
      <point x="331" y="442"/>
      <point x="291" y="356"/>
      <point x="226" y="356" type="curve" smooth="yes"/>
      <point x="187" y="356"/>
      <point x="160" y="391"/>
      <point x="160" y="451" type="curve" smooth="yes"/>
      <point x="160" y="527"/>
      <point x="198" y="612"/>
    </contour>
    <contour>
      <point x="270" y="644" type="curve" smooth="yes"/>
      <point x="177" y="644"/>
      <point x="100" y="557"/>
      <point x="100" y="452" type="curve" smooth="yes"/>
      <point x="100" y="374"/>
      <point x="145" y="324"/>
      <point x="220" y="324" type="curve" smooth="yes"/>
      <point x="316" y="324"/>
      <point x="391" y="415"/>
      <point x="391" y="513" type="curve" smooth="yes"/>
      <point x="391" y="590"/>
      <point x="343" y="644"/>
    </contour>
    <contour>
      <point x="510" y="282" type="curve" smooth="yes"/>
      <point x="550" y="282"/>
      <point x="578" y="246"/>
      <point x="578" y="187" type="curve" smooth="yes"/>
      <point x="578" y="112"/>
      <point x="538" y="26"/>
      <point x="473" y="26" type="curve" smooth="yes"/>
      <point x="434" y="26"/>
      <point x="407" y="61"/>
      <point x="407" y="121" type="curve" smooth="yes"/>
      <point x="407" y="197"/>
      <point x="445" y="282"/>
    </contour>
    <contour>
      <point x="517" y="314" type="curve" smooth="yes"/>
      <point x="424" y="314"/>
      <point x="347" y="227"/>
      <point x="347" y="122" type="curve" smooth="yes"/>
      <point x="347" y="44"/>
      <point x="392" y="-6"/>
      <point x="467" y="-6" type="curve" smooth="yes"/>
      <point x="563" y="-6"/>
      <point x="638" y="85"/>
      <point x="638" y="183" type="curve" smooth="yes"/>
      <point x="638" y="260"/>
      <point x="590" y="314"/>
    </contour>
  </outline>
</glyph>
<glyph name="ampersand" format="1">
  <advance width="644"/>
  <unicode hex="0026"/>
  <note>
    ampersand
  </note>
  <outline>
    <contour>
      <point x="296" y="-14" type="curve" smooth="yes"/>
      <point x="453" y="-14"/>
      <point x="587" y="96"/>
      <point x="587" y="224" type="curve" smooth="yes"/>
      <point x="587" y="274"/>
      <point x="569" y="315"/>
      <point x="532" y="348" type="curve"/>
      <point x="545" y="347"/>
      <point x="554" y="346"/>
      <point x="558" y="346" type="curve" smooth="yes"/>
      <point x="627" y="346"/>
      <point x="673" y="384"/>
      <point x="673" y="441" type="curve" smooth="yes"/>
      <point x="673" y="496"/>
      <point x="627" y="538"/>
      <point x="565" y="538" type="curve" smooth="yes"/>
      <point x="537" y="538"/>
      <point x="519" y="521"/>
      <point x="519" y="495" type="curve" smooth="yes"/>
      <point x="519" y="477"/>
      <point x="532" y="462"/>
      <point x="548" y="462" type="curve" smooth="yes"/>
      <point x="569" y="462"/>
      <point x="583" y="480"/>
      <point x="601" y="480" type="curve" smooth="yes"/>
      <point x="619" y="480"/>
      <point x="633" y="465"/>
      <point x="633" y="444" type="curve" smooth="yes"/>
      <point x="633" y="409"/>
      <point x="597" y="384"/>
      <point x="545" y="384" type="curve" smooth="yes"/>
      <point x="536" y="384"/>
      <point x="477" y="386"/>
      <point x="469" y="386" type="curve" smooth="yes"/>
      <point x="389" y="386"/>
      <point x="325" y="329"/>
      <point x="325" y="258" type="curve" smooth="yes"/>
      <point x="325" y="214"/>
      <point x="364" y="170"/>
      <point x="402" y="170" type="curve" smooth="yes"/>
      <point x="419" y="170"/>
      <point x="435" y="192"/>
      <point x="435" y="217" type="curve" smooth="yes"/>
      <point x="435" y="259"/>
      <point x="366" y="238"/>
      <point x="366" y="280" type="curve" smooth="yes"/>
      <point x="366" y="311"/>
      <point x="396" y="335"/>
      <point x="436" y="335" type="curve" smooth="yes"/>
      <point x="482" y="335"/>
      <point x="519" y="291"/>
      <point x="519" y="237" type="curve" smooth="yes"/>
      <point x="519" y="126"/>
      <point x="420" y="29"/>
      <point x="308" y="29" type="curve" smooth="yes"/>
      <point x="210" y="29"/>
      <point x="134" y="106"/>
      <point x="134" y="204" type="curve" smooth="yes"/>
      <point x="134" y="255"/>
      <point x="158" y="300"/>
      <point x="206" y="341" type="curve"/>
      <point x="222" y="327"/>
      <point x="243" y="320"/>
      <point x="268" y="320" type="curve" smooth="yes"/>
      <point x="305" y="320"/>
      <point x="333" y="337"/>
      <point x="333" y="360" type="curve" smooth="yes"/>
      <point x="333" y="384"/>
      <point x="300" y="402"/>
      <point x="258" y="402" type="curve" smooth="yes"/>
      <point x="247" y="402"/>
      <point x="234" y="400"/>
      <point x="219" y="395" type="curve"/>
      <point x="197" y="414"/>
      <point x="186" y="441"/>
      <point x="186" y="474" type="curve" smooth="yes"/>
      <point x="186" y="538"/>
      <point x="236" y="590"/>
      <point x="296" y="590" type="curve" smooth="yes"/>
      <point x="339" y="590"/>
      <point x="374" y="556"/>
      <point x="374" y="514" type="curve" smooth="yes"/>
      <point x="374" y="492"/>
      <point x="364" y="481"/>
      <point x="364" y="469" type="curve" smooth="yes"/>
      <point x="364" y="464"/>
      <point x="367" y="462"/>
      <point x="373" y="462" type="curve" smooth="yes"/>
      <point x="399" y="462"/>
      <point x="433" y="508"/>
      <point x="433" y="543" type="curve" smooth="yes"/>
      <point x="433" y="596"/>
      <point x="384" y="635"/>
      <point x="318" y="635" type="curve" smooth="yes"/>
      <point x="223" y="635"/>
      <point x="136" y="561"/>
      <point x="136" y="479" type="curve" smooth="yes"/>
      <point x="136" y="442"/>
      <point x="148" y="411"/>
      <point x="174" y="381" type="curve"/>
      <point x="105" y="355"/>
      <point x="48" y="271"/>
      <point x="48" y="196" type="curve" smooth="yes"/>
      <point x="48" y="79"/>
      <point x="158" y="-14"/>
    </contour>
  </outline>
</glyph>
<glyph name="quotesingle" format="1">
  <advance width="182"/>
  <unicode hex="0027"/>
  <note>
    quotesingle
  </note>
  <outline>
    <contour>
      <point x="133" y="434" type="curve" smooth="yes"/>
      <point x="143" y="434"/>
      <point x="149" y="439"/>
      <point x="152" y="449" type="curve" smooth="yes"/>
      <point x="176" y="531"/>
      <point x="227" y="605"/>
      <point x="227" y="656" type="curve" smooth="yes"/>
      <point x="227" y="684"/>
      <point x="208" y="698"/>
      <point x="185" y="698" type="curve" smooth="yes"/>
      <point x="137" y="698"/>
      <point x="118" y="656"/>
      <point x="118" y="608" type="curve" smooth="yes"/>
      <point x="118" y="564"/>
      <point x="122" y="525"/>
      <point x="122" y="487" type="curve" smooth="yes"/>
      <point x="122" y="475"/>
      <point x="121" y="462"/>
      <point x="120" y="449" type="curve" smooth="yes"/>
      <point x="119" y="439"/>
      <point x="123" y="434"/>
    </contour>
  </outline>
</glyph>
<glyph name="parenleft" format="1">
  <advance width="323"/>
  <unicode hex="0028"/>
  <note>
    parenleft
  </note>
  <outline>
    <contour>
      <point x="195" y="-125" type="curve"/>
      <point x="216" y="-100" type="line"/>
      <point x="165" y="-51"/>
      <point x="137" y="45"/>
      <point x="137" y="152" type="curve" smooth="yes"/>
      <point x="137" y="348"/>
      <point x="231" y="629"/>
      <point x="376" y="724" type="curve"/>
      <point x="365" y="749" type="line"/>
      <point x="193" y="659"/>
      <point x="76" y="391"/>
      <point x="76" y="184" type="curve" smooth="yes"/>
      <point x="76" y="43"/>
      <point x="120" y="-63"/>
    </contour>
  </outline>
</glyph>
<glyph name="parenright" format="1">
  <advance width="323"/>
  <unicode hex="0029"/>
  <note>
    parenright
  </note>
  <outline>
    <contour>
      <point x="166" y="749" type="curve"/>
      <point x="145" y="724" type="line"/>
      <point x="196" y="675"/>
      <point x="224" y="579"/>
      <point x="224" y="472" type="curve" smooth="yes"/>
      <point x="224" y="276"/>
      <point x="130" y="-5"/>
      <point x="-15" y="-100" type="curve"/>
      <point x="-4" y="-125" type="line"/>
      <point x="168" y="-35"/>
      <point x="285" y="233"/>
      <point x="285" y="440" type="curve" smooth="yes"/>
      <point x="285" y="581"/>
      <point x="241" y="687"/>
    </contour>
  </outline>
</glyph>
<glyph name="asterisk" format="1">
  <advance width="444"/>
  <unicode hex="002A"/>
  <note>
    asterisk
  </note>
  <outline>
    <contour>
      <point x="351" y="613" type="curve" smooth="yes"/>
      <point x="340" y="600"/>
      <point x="330" y="586"/>
      <point x="318" y="564" type="curve" smooth="yes"/>
      <point x="307" y="543"/>
      <point x="298" y="529"/>
      <point x="290" y="520" type="curve" smooth="yes"/>
      <point x="286" y="516"/>
      <point x="282" y="514"/>
      <point x="279" y="514" type="curve" smooth="yes"/>
      <point x="275" y="514"/>
      <point x="271" y="518"/>
      <point x="267" y="525" type="curve" smooth="yes"/>
      <point x="262" y="540"/>
      <point x="257" y="559"/>
      <point x="253" y="578" type="curve" smooth="yes"/>
      <point x="249" y="598"/>
      <point x="243" y="618"/>
      <point x="236" y="637" type="curve" smooth="yes"/>
      <point x="227" y="656"/>
      <point x="216" y="665"/>
      <point x="203" y="665" type="curve" smooth="yes"/>
      <point x="186" y="665"/>
      <point x="169" y="650"/>
      <point x="169" y="635" type="curve" smooth="yes"/>
      <point x="169" y="617"/>
      <point x="185" y="589"/>
      <point x="211" y="562" type="curve" smooth="yes"/>
      <point x="243" y="526"/>
      <point x="251" y="515"/>
      <point x="251" y="507" type="curve" smooth="yes"/>
      <point x="251" y="497"/>
      <point x="245" y="494"/>
      <point x="227" y="494" type="curve" smooth="yes"/>
      <point x="204" y="494"/>
      <point x="165" y="500"/>
      <point x="133" y="500" type="curve" smooth="yes"/>
      <point x="105" y="500"/>
      <point x="84" y="485"/>
      <point x="84" y="464" type="curve" smooth="yes"/>
      <point x="84" y="444"/>
      <point x="99" y="432"/>
      <point x="122" y="432" type="curve" smooth="yes"/>
      <point x="139" y="432"/>
      <point x="159" y="438"/>
      <point x="194" y="454" type="curve" smooth="yes"/>
      <point x="218" y="465"/>
      <point x="235" y="474"/>
      <point x="247" y="474" type="curve" smooth="yes"/>
      <point x="254" y="474"/>
      <point x="258" y="469"/>
      <point x="258" y="460" type="curve" smooth="yes"/>
      <point x="258" y="451"/>
      <point x="250" y="428"/>
      <point x="239" y="406" type="curve" smooth="yes"/>
      <point x="223" y="374"/>
      <point x="216" y="352"/>
      <point x="216" y="335" type="curve" smooth="yes"/>
      <point x="216" y="314"/>
      <point x="229" y="299"/>
      <point x="249" y="299" type="curve" smooth="yes"/>
      <point x="272" y="299"/>
      <point x="284" y="320"/>
      <point x="284" y="362" type="curve" smooth="yes"/>
      <point x="284" y="378"/>
      <point x="278" y="434"/>
      <point x="278" y="446" type="curve" smooth="yes"/>
      <point x="278" y="459"/>
      <point x="281" y="465"/>
      <point x="287" y="465" type="curve" smooth="yes"/>
      <point x="298" y="465"/>
      <point x="320" y="450"/>
      <point x="342" y="428" type="curve" smooth="yes"/>
      <point x="371" y="399"/>
      <point x="397" y="383"/>
      <point x="414" y="383" type="curve" smooth="yes"/>
      <point x="432" y="383"/>
      <point x="448" y="398"/>
      <point x="448" y="414" type="curve" smooth="yes"/>
      <point x="448" y="429"/>
      <point x="435" y="443"/>
      <point x="416" y="451" type="curve" smooth="yes"/>
      <point x="393" y="459"/>
      <point x="375" y="464"/>
      <point x="359" y="467" type="curve" smooth="yes"/>
      <point x="318" y="475"/>
      <point x="300" y="483"/>
      <point x="300" y="493" type="curve" smooth="yes"/>
      <point x="300" y="505"/>
      <point x="311" y="514"/>
      <point x="351" y="536" type="curve" smooth="yes"/>
      <point x="398" y="560"/>
      <point x="417" y="579"/>
      <point x="417" y="601" type="curve" smooth="yes"/>
      <point x="417" y="619"/>
      <point x="403" y="633"/>
      <point x="387" y="633" type="curve" smooth="yes"/>
      <point x="375" y="633"/>
      <point x="362" y="626"/>
    </contour>
  </outline>
</glyph>
<glyph name="comma" format="1">
  <advance width="221"/>
  <unicode hex="002C"/>
  <note>
    comma
  </note>
  <outline>
    <contour>
      <point x="-28" y="-167" type="curve"/>
      <point x="45" y="-121"/>
      <point x="129" y="-22"/>
      <point x="129" y="54" type="curve" smooth="yes"/>
      <point x="129" y="88"/>
      <point x="110" y="103"/>
      <point x="86" y="103" type="curve" smooth="yes"/>
      <point x="47" y="103"/>
      <point x="23" y="72"/>
      <point x="23" y="29" type="curve" smooth="yes"/>
      <point x="23" y="12"/>
      <point x="29" y="-6"/>
      <point x="29" y="-26" type="curve" smooth="yes"/>
      <point x="29" y="-71"/>
      <point x="11" y="-95"/>
      <point x="-43" y="-140" type="curve"/>
      <point x="-46" y="-153"/>
      <point x="-36" y="-167"/>
    </contour>
  </outline>
</glyph>
<glyph name="hyphen" format="1">
  <advance width="378"/>
  <unicode hex="002D"/>
  <note>
    hyphen
  </note>
  <outline>
    <contour>
      <point x="57" y="212" type="curve" smooth="yes"/>
      <point x="55" y="205"/>
      <point x="58" y="201"/>
      <point x="62" y="199" type="curve"/>
      <point x="310" y="210" type="line"/>
      <point x="317" y="219"/>
      <point x="323" y="237"/>
      <point x="328" y="259" type="curve" smooth="yes"/>
      <point x="330" y="267"/>
      <point x="328" y="271"/>
      <point x="324" y="273" type="curve"/>
      <point x="79" y="261" type="line"/>
      <point x="71" y="260"/>
      <point x="66" y="243"/>
    </contour>
  </outline>
</glyph>
<glyph name="period" format="1">
  <advance width="221"/>
  <unicode hex="002E"/>
  <note>
    period
  </note>
  <outline>
    <contour>
      <point x="66" y="-14" type="curve" smooth="yes"/>
      <point x="99" y="-14"/>
      <point x="131" y="20"/>
      <point x="131" y="56" type="curve" smooth="yes"/>
      <point x="131" y="82"/>
      <point x="114" y="102"/>
      <point x="88" y="102" type="curve" smooth="yes"/>
      <point x="55" y="102"/>
      <point x="23" y="68"/>
      <point x="23" y="32" type="curve" smooth="yes"/>
      <point x="23" y="6"/>
      <point x="40" y="-14"/>
    </contour>
  </outline>
</glyph>
<glyph name="slash" format="1">
  <advance width="424"/>
  <unicode hex="002F"/>
  <note>
    slash
  </note>
  <outline>
    <contour>
      <point x="500" y="755" type="line"/>
      <point x="436" y="755" type="line"/>
      <point x="-18" y="-28" type="line"/>
      <point x="46" y="-28" type="line"/>
    </contour>
  </outline>
</glyph>
<glyph name="zero" format="1">
  <advance width="516"/>
  <unicode hex="0030"/>
  <note>
    zero
  </note>
  <outline>
    <contour>
      <point x="215" y="-3" type="curve" smooth="yes"/>
      <point x="383" y="-3"/>
      <point x="497" y="235"/>
      <point x="497" y="425" type="curve" smooth="yes"/>
      <point x="497" y="552"/>
      <point x="443" y="641"/>
      <point x="341" y="641" type="curve" smooth="yes"/>
      <point x="177" y="641"/>
      <point x="60" y="412"/>
      <point x="60" y="217" type="curve" smooth="yes"/>
      <point x="60" y="90"/>
      <point x="113" y="-3"/>
    </contour>
    <contour>
      <point x="218" y="35" type="curve" smooth="yes"/>
      <point x="165" y="35"/>
      <point x="135" y="100"/>
      <point x="135" y="198" type="curve" smooth="yes"/>
      <point x="135" y="353"/>
      <point x="220" y="603"/>
      <point x="338" y="603" type="curve" smooth="yes"/>
      <point x="391" y="603"/>
      <point x="421" y="540"/>
      <point x="421" y="442" type="curve" smooth="yes"/>
      <point x="421" y="286"/>
      <point x="337" y="35"/>
    </contour>
  </outline>
</glyph>
<glyph name="one" format="1">
  <advance width="316"/>
  <unicode hex="0031"/>
  <note>
    one
  </note>
  <outline>
    <contour>
      <point x="97" y="496" type="curve"/>
      <point x="113" y="504"/>
      <point x="156" y="529"/>
      <point x="168" y="529" type="curve" smooth="yes"/>
      <point x="182" y="529"/>
      <point x="176" y="497"/>
      <point x="169" y="463" type="curve" smooth="yes"/>
      <point x="99" y="103" type="line" smooth="yes"/>
      <point x="95" y="81"/>
      <point x="89" y="62"/>
      <point x="82" y="46" type="curve" smooth="yes"/>
      <point x="78" y="37"/>
      <point x="25" y="26"/>
      <point x="8" y="26" type="curve" smooth="yes"/>
      <point x="5" y="26"/>
      <point x="3" y="22"/>
      <point x="2" y="14" type="curve" smooth="yes"/>
      <point x="1" y="5"/>
      <point x="0" y="0"/>
      <point x="2" y="-3" type="curve"/>
      <point x="60" y="0"/>
      <point x="108" y="2"/>
      <point x="119" y="2" type="curve" smooth="yes"/>
      <point x="133" y="2"/>
      <point x="167" y="0"/>
      <point x="233" y="-3" type="curve"/>
      <point x="235" y="-2"/>
      <point x="235" y="2"/>
      <point x="236" y="8" type="curve" smooth="yes"/>
      <point x="238" y="20"/>
      <point x="239" y="26"/>
      <point x="236" y="26" type="curve" smooth="yes"/>
      <point x="223" y="26"/>
      <point x="174" y="37"/>
      <point x="173" y="46" type="curve" smooth="yes"/>
      <point x="171" y="67"/>
      <point x="174" y="96"/>
      <point x="182" y="135" type="curve" smooth="yes"/>
      <point x="259" y="529" type="line" smooth="yes"/>
      <point x="267" y="570"/>
      <point x="276" y="601"/>
      <point x="287" y="623" type="curve"/>
      <point x="287" y="636"/>
      <point x="284" y="642"/>
      <point x="279" y="642" type="curve" smooth="yes"/>
      <point x="276" y="642" type="line"/>
      <point x="245" y="622"/>
      <point x="173" y="579"/>
      <point x="87" y="527" type="curve"/>
      <point x="86" y="526"/>
      <point x="85" y="524"/>
      <point x="84" y="521" type="curve" smooth="yes"/>
      <point x="82" y="514"/>
      <point x="90" y="500"/>
    </contour>
  </outline>
</glyph>
<glyph name="two" format="1">
  <advance width="467"/>
  <unicode hex="0032"/>
  <note>
    two
  </note>
  <outline>
    <contour>
      <point x="-1" y="0" type="curve" smooth="yes"/>
      <point x="327" y="0" type="line" smooth="yes"/>
      <point x="339" y="0"/>
      <point x="347" y="5"/>
      <point x="350" y="16" type="curve" smooth="yes"/>
      <point x="354" y="29"/>
      <point x="372" y="76"/>
      <point x="404" y="156" type="curve"/>
      <point x="402" y="159"/>
      <point x="396" y="160"/>
      <point x="387" y="160" type="curve" smooth="yes"/>
      <point x="380" y="160"/>
      <point x="375" y="156"/>
      <point x="371" y="149" type="curve"/>
      <point x="340" y="86"/>
      <point x="326" y="68"/>
      <point x="290" y="68" type="curve" smooth="yes"/>
      <point x="77" y="68" type="line"/>
      <point x="77" y="59" type="line"/>
      <point x="237" y="182"/>
      <point x="430" y="373"/>
      <point x="430" y="518" type="curve" smooth="yes"/>
      <point x="430" y="590"/>
      <point x="383" y="642"/>
      <point x="304" y="642" type="curve" smooth="yes"/>
      <point x="214" y="642"/>
      <point x="131" y="572"/>
      <point x="101" y="505" type="curve"/>
      <point x="100" y="500"/>
      <point x="115" y="489"/>
      <point x="121" y="489" type="curve"/>
      <point x="164" y="544"/>
      <point x="209" y="572"/>
      <point x="262" y="572" type="curve" smooth="yes"/>
      <point x="315" y="572"/>
      <point x="345" y="543"/>
      <point x="345" y="496" type="curve" smooth="yes"/>
      <point x="345" y="360"/>
      <point x="165" y="173"/>
      <point x="-7" y="30" type="curve"/>
      <point x="-9" y="19"/>
      <point x="-5" y="0"/>
    </contour>
  </outline>
</glyph>
<glyph name="three" format="1">
  <advance width="467"/>
  <unicode hex="0033"/>
  <note>
    three
  </note>
  <outline>
    <contour>
      <point x="307" y="642" type="curve" smooth="yes"/>
      <point x="249" y="642"/>
      <point x="184" y="604"/>
      <point x="158" y="558" type="curve"/>
      <point x="156" y="549"/>
      <point x="160" y="532"/>
      <point x="165" y="532" type="curve"/>
      <point x="202" y="572"/>
      <point x="236" y="583"/>
      <point x="267" y="583" type="curve" smooth="yes"/>
      <point x="314" y="583"/>
      <point x="343" y="549"/>
      <point x="343" y="510" type="curve" smooth="yes"/>
      <point x="343" y="426"/>
      <point x="261" y="367"/>
      <point x="162" y="350" type="curve"/>
      <point x="158" y="342"/>
      <point x="157" y="335"/>
      <point x="157" y="327" type="curve" smooth="yes"/>
      <point x="157" y="322"/>
      <point x="158" y="318"/>
      <point x="160" y="314" type="curve"/>
      <point x="180" y="319"/>
      <point x="197" y="321"/>
      <point x="220" y="321" type="curve" smooth="yes"/>
      <point x="287" y="321"/>
      <point x="329" y="274"/>
      <point x="329" y="210" type="curve" smooth="yes"/>
      <point x="329" y="117"/>
      <point x="271" y="35"/>
      <point x="183" y="35" type="curve" smooth="yes"/>
      <point x="90" y="35"/>
      <point x="94" y="96"/>
      <point x="53" y="96" type="curve" smooth="yes"/>
      <point x="34" y="96"/>
      <point x="16" y="82"/>
      <point x="16" y="55" type="curve" smooth="yes"/>
      <point x="16" y="22"/>
      <point x="58" y="-5"/>
      <point x="143" y="-5" type="curve" smooth="yes"/>
      <point x="283" y="-5"/>
      <point x="420" y="100"/>
      <point x="420" y="231" type="curve" smooth="yes"/>
      <point x="420" y="315"/>
      <point x="347" y="373"/>
      <point x="277" y="374" type="curve"/>
      <point x="271" y="358" type="line"/>
      <point x="348" y="397"/>
      <point x="416" y="458"/>
      <point x="416" y="537" type="curve" smooth="yes"/>
      <point x="416" y="600"/>
      <point x="365" y="642"/>
    </contour>
  </outline>
</glyph>
<glyph name="four" format="1">
  <advance width="478"/>
  <unicode hex="0034"/>
  <note>
    four
  </note>
  <outline>
    <contour>
      <point x="438" y="645" type="curve" smooth="yes"/>
      <point x="429" y="645"/>
      <point x="420" y="641"/>
      <point x="413" y="633" type="curve" smooth="yes"/>
      <point x="31" y="205" type="line"/>
      <point x="28" y="190"/>
      <point x="28" y="180"/>
      <point x="32" y="174" type="curve"/>
      <point x="285" y="174" type="line"/>
      <point x="251" y="2" type="line" smooth="yes"/>
      <point x="250" y="-3"/>
      <point x="262" y="-6"/>
      <point x="287" y="-6" type="curve" smooth="yes"/>
      <point x="309" y="-6"/>
      <point x="323" y="-4"/>
      <point x="326" y="-1" type="curve"/>
      <point x="360" y="174" type="line"/>
      <point x="432" y="174" type="line"/>
      <point x="436" y="177"/>
      <point x="439" y="180"/>
      <point x="442" y="194" type="curve" smooth="yes"/>
      <point x="447" y="216"/>
      <point x="444" y="232"/>
      <point x="433" y="232" type="curve" smooth="yes"/>
      <point x="371" y="232" type="line"/>
      <point x="449" y="635" type="line" smooth="yes"/>
      <point x="450" y="642"/>
      <point x="447" y="645"/>
    </contour>
    <contour>
      <point x="296" y="232" type="line"/>
      <point x="84" y="232" type="line"/>
      <point x="89" y="214" type="line"/>
      <point x="372" y="534" type="line"/>
      <point x="355" y="538" type="line"/>
    </contour>
  </outline>
</glyph>
<glyph name="five" format="1">
  <advance width="482"/>
  <unicode hex="0035"/>
  <note>
    five
  </note>
  <outline>
    <contour>
      <point x="160" y="-5" type="curve" smooth="yes"/>
      <point x="296" y="-5"/>
      <point x="425" y="108"/>
      <point x="425" y="231" type="curve" smooth="yes"/>
      <point x="425" y="317"/>
      <point x="362" y="391"/>
      <point x="257" y="391" type="curve" smooth="yes"/>
      <point x="226" y="391"/>
      <point x="195" y="384"/>
      <point x="174" y="374" type="curve"/>
      <point x="241" y="561" type="line"/>
      <point x="229" y="546" type="line"/>
      <point x="326" y="550" type="line" smooth="yes"/>
      <point x="385" y="552"/>
      <point x="423" y="556"/>
      <point x="442" y="561" type="curve"/>
      <point x="447" y="575"/>
      <point x="458" y="610"/>
      <point x="458" y="624" type="curve" smooth="yes"/>
      <point x="458" y="628"/>
      <point x="459" y="634"/>
      <point x="457" y="637" type="curve"/>
      <point x="431" y="632"/>
      <point x="352" y="627"/>
      <point x="220" y="623" type="curve"/>
      <point x="114" y="326" type="line"/>
      <point x="119" y="319"/>
      <point x="124" y="313"/>
      <point x="129" y="308" type="curve"/>
      <point x="154" y="317"/>
      <point x="184" y="323"/>
      <point x="218" y="323" type="curve" smooth="yes"/>
      <point x="296" y="323"/>
      <point x="341" y="283"/>
      <point x="341" y="206" type="curve" smooth="yes"/>
      <point x="341" y="123"/>
      <point x="284" y="35"/>
      <point x="199" y="35" type="curve" smooth="yes"/>
      <point x="106" y="35"/>
      <point x="105" y="101"/>
      <point x="67" y="101" type="curve" smooth="yes"/>
      <point x="48" y="101"/>
      <point x="28" y="85"/>
      <point x="28" y="60" type="curve" smooth="yes"/>
      <point x="28" y="20"/>
      <point x="76" y="-5"/>
    </contour>
  </outline>
</glyph>
<glyph name="six" format="1">
  <advance width="482"/>
  <unicode hex="0036"/>
  <note>
    six
  </note>
  <outline>
    <contour>
      <point x="205" y="-6" type="curve" smooth="yes"/>
      <point x="317" y="-6"/>
      <point x="436" y="110"/>
      <point x="436" y="230" type="curve" smooth="yes"/>
      <point x="436" y="314"/>
      <point x="378" y="381"/>
      <point x="306" y="381" type="curve" smooth="yes"/>
      <point x="267" y="381"/>
      <point x="203" y="359"/>
      <point x="170" y="334" type="curve"/>
      <point x="172" y="332" type="line"/>
      <point x="230" y="463"/>
      <point x="329" y="544"/>
      <point x="501" y="611" type="curve"/>
      <point x="504" y="623"/>
      <point x="496" y="647"/>
      <point x="489" y="647" type="curve"/>
      <point x="253" y="565"/>
      <point x="47" y="379"/>
      <point x="47" y="163" type="curve" smooth="yes"/>
      <point x="47" y="63"/>
      <point x="106" y="-6"/>
    </contour>
    <contour>
      <point x="218" y="33" type="curve" smooth="yes"/>
      <point x="163" y="33"/>
      <point x="127" y="88"/>
      <point x="127" y="162" type="curve" smooth="yes"/>
      <point x="127" y="203"/>
      <point x="141" y="255"/>
      <point x="162" y="288" type="curve" smooth="yes"/>
      <point x="176" y="309"/>
      <point x="220" y="330"/>
      <point x="254" y="330" type="curve" smooth="yes"/>
      <point x="313" y="330"/>
      <point x="356" y="287"/>
      <point x="356" y="214" type="curve" smooth="yes"/>
      <point x="356" y="127"/>
      <point x="295" y="33"/>
    </contour>
  </outline>
</glyph>
<glyph name="seven" format="1">
  <advance width="484"/>
  <unicode hex="0037"/>
  <note>
    seven
  </note>
  <outline>
    <contour>
      <point x="96" y="-6" type="curve" smooth="yes"/>
      <point x="101" y="-6"/>
      <point x="110" y="-5"/>
      <point x="112" y="-3" type="curve"/>
      <point x="485" y="560" type="line" smooth="yes"/>
      <point x="495" y="575"/>
      <point x="525" y="614"/>
      <point x="527" y="627" type="curve" smooth="yes"/>
      <point x="528" y="633"/>
      <point x="526" y="636"/>
      <point x="521" y="636" type="curve" smooth="yes"/>
      <point x="504" y="636"/>
      <point x="479" y="633"/>
      <point x="454" y="633" type="curve" smooth="yes"/>
      <point x="165" y="633" type="line" smooth="yes"/>
      <point x="155" y="633"/>
      <point x="149" y="629"/>
      <point x="146" y="621" type="curve"/>
      <point x="135" y="586"/>
      <point x="92" y="483"/>
      <point x="86" y="471" type="curve"/>
      <point x="90" y="469"/>
      <point x="95" y="469"/>
      <point x="101" y="469" type="curve" smooth="yes"/>
      <point x="110" y="469"/>
      <point x="119" y="471"/>
      <point x="121" y="474" type="curve"/>
      <point x="146" y="524"/>
      <point x="168" y="558"/>
      <point x="206" y="558" type="curve" smooth="yes"/>
      <point x="431" y="558" type="line"/>
      <point x="59" y="22" type="line"/>
      <point x="57" y="13"/>
      <point x="81" y="-6"/>
    </contour>
  </outline>
</glyph>
<glyph name="nine" format="1">
  <advance width="482"/>
  <unicode hex="0039"/>
  <note>
    nine
  </note>
  <outline>
    <contour>
      <point x="317" y="643" type="curve" smooth="yes"/>
      <point x="205" y="643"/>
      <point x="86" y="527"/>
      <point x="86" y="407" type="curve" smooth="yes"/>
      <point x="86" y="323"/>
      <point x="144" y="256"/>
      <point x="216" y="256" type="curve" smooth="yes"/>
      <point x="255" y="256"/>
      <point x="319" y="278"/>
      <point x="352" y="303" type="curve"/>
      <point x="350" y="305" type="line"/>
      <point x="292" y="174"/>
      <point x="193" y="93"/>
      <point x="21" y="26" type="curve"/>
      <point x="18" y="14"/>
      <point x="26" y="-10"/>
      <point x="33" y="-10" type="curve"/>
      <point x="269" y="72"/>
      <point x="475" y="258"/>
      <point x="475" y="474" type="curve" smooth="yes"/>
      <point x="475" y="574"/>
      <point x="416" y="643"/>
    </contour>
    <contour>
      <point x="304" y="604" type="curve" smooth="yes"/>
      <point x="359" y="604"/>
      <point x="395" y="549"/>
      <point x="395" y="475" type="curve" smooth="yes"/>
      <point x="395" y="434"/>
      <point x="382" y="382"/>
      <point x="364" y="349" type="curve"/>
      <point x="346" y="328"/>
      <point x="302" y="307"/>
      <point x="268" y="307" type="curve" smooth="yes"/>
      <point x="209" y="307"/>
      <point x="166" y="350"/>
      <point x="166" y="423" type="curve" smooth="yes"/>
      <point x="166" y="510"/>
      <point x="227" y="604"/>
    </contour>
  </outline>
</glyph>
<glyph name="colon" format="1">
  <advance width="221"/>
  <unicode hex="003A"/>
  <note>
    colon
  </note>
  <outline>
    <contour>
      <point x="66" y="-14" type="curve" smooth="yes"/>
      <point x="99" y="-14"/>
      <point x="131" y="20"/>
      <point x="131" y="56" type="curve" smooth="yes"/>
      <point x="131" y="82"/>
      <point x="114" y="102"/>
      <point x="88" y="102" type="curve" smooth="yes"/>
      <point x="55" y="102"/>
      <point x="23" y="68"/>
      <point x="23" y="32" type="curve" smooth="yes"/>
      <point x="23" y="6"/>
      <point x="40" y="-14"/>
    </contour>
    <contour>
      <point x="131" y="320" type="curve" smooth="yes"/>
      <point x="164" y="320"/>
      <point x="196" y="354"/>
      <point x="196" y="390" type="curve" smooth="yes"/>
      <point x="196" y="416"/>
      <point x="179" y="436"/>
      <point x="153" y="436" type="curve" smooth="yes"/>
      <point x="120" y="436"/>
      <point x="88" y="402"/>
      <point x="88" y="366" type="curve" smooth="yes"/>
      <point x="88" y="340"/>
      <point x="105" y="320"/>
    </contour>
  </outline>
</glyph>
<glyph name="semicolon" format="1">
  <advance width="221"/>
  <unicode hex="003B"/>
  <note>
    semicolon
  </note>
  <outline>
    <contour>
      <point x="131" y="320" type="curve" smooth="yes"/>
      <point x="164" y="320"/>
      <point x="196" y="354"/>
      <point x="196" y="390" type="curve" smooth="yes"/>
      <point x="196" y="416"/>
      <point x="179" y="436"/>
      <point x="153" y="436" type="curve" smooth="yes"/>
      <point x="120" y="436"/>
      <point x="88" y="402"/>
      <point x="88" y="366" type="curve" smooth="yes"/>
      <point x="88" y="340"/>
      <point x="105" y="320"/>
    </contour>
    <contour>
      <point x="-28" y="-167" type="curve"/>
      <point x="45" y="-121"/>
      <point x="129" y="-22"/>
      <point x="129" y="54" type="curve" smooth="yes"/>
      <point x="129" y="88"/>
      <point x="110" y="103"/>
      <point x="86" y="103" type="curve" smooth="yes"/>
      <point x="47" y="103"/>
      <point x="23" y="72"/>
      <point x="23" y="29" type="curve" smooth="yes"/>
      <point x="23" y="12"/>
      <point x="29" y="-6"/>
      <point x="29" y="-26" type="curve" smooth="yes"/>
      <point x="29" y="-71"/>
      <point x="11" y="-95"/>
      <point x="-43" y="-140" type="curve"/>
      <point x="-46" y="-153"/>
      <point x="-36" y="-167"/>
    </contour>
  </outline>
</glyph>
<glyph name="less" format="1">
  <advance width="510"/>
  <unicode hex="003C"/>
  <note>
    less
  </note>
  <outline>
    <contour>
      <point x="398" y="24" type="line"/>
      <point x="433" y="72" type="line"/>
      <point x="93" y="263" type="line"/>
      <point x="85" y="223" type="line"/>
      <point x="499" y="414" type="line"/>
      <point x="484" y="468" type="line"/>
      <point x="61" y="272" type="line"/>
      <point x="51" y="220" type="line"/>
    </contour>
  </outline>
</glyph>
<glyph name="equal" format="1">
  <advance width="552"/>
  <unicode hex="003D"/>
  <note>
    equal
  </note>
  <outline>
    <contour>
      <point x="35" y="139" type="line"/>
      <point x="487" y="139" type="line"/>
      <point x="498" y="193" type="line"/>
      <point x="46" y="193" type="line"/>
    </contour>
    <contour>
      <point x="66" y="299" type="line"/>
      <point x="518" y="299" type="line"/>
      <point x="529" y="353" type="line"/>
      <point x="77" y="353" type="line"/>
    </contour>
  </outline>
</glyph>
<glyph name="greater" format="1">
  <advance width="510"/>
  <unicode hex="003E"/>
  <note>
    greater
  </note>
  <outline>
    <contour>
      <point x="124" y="468" type="line"/>
      <point x="89" y="420" type="line"/>
      <point x="429" y="229" type="line"/>
      <point x="437" y="269" type="line"/>
      <point x="23" y="78" type="line"/>
      <point x="38" y="24" type="line"/>
      <point x="461" y="220" type="line"/>
      <point x="471" y="272" type="line"/>
    </contour>
  </outline>
</glyph>
<glyph name="question" format="1">
  <advance width="299"/>
  <unicode hex="003F"/>
  <note>
    question
  </note>
  <outline>
    <contour>
      <point x="166" y="197" type="curve"/>
      <point x="149" y="209"/>
      <point x="127" y="236"/>
      <point x="127" y="266" type="curve" smooth="yes"/>
      <point x="127" y="286"/>
      <point x="138" y="306"/>
      <point x="160" y="321" type="curve" smooth="yes"/>
      <point x="255" y="384" type="line" smooth="yes"/>
      <point x="301" y="415"/>
      <point x="319" y="458"/>
      <point x="319" y="502" type="curve" smooth="yes"/>
      <point x="319" y="567"/>
      <point x="261" y="631"/>
      <point x="184" y="631" type="curve" smooth="yes"/>
      <point x="134" y="631"/>
      <point x="90" y="600"/>
      <point x="90" y="564" type="curve" smooth="yes"/>
      <point x="90" y="546"/>
      <point x="101" y="530"/>
      <point x="124" y="530" type="curve" smooth="yes"/>
      <point x="166" y="530"/>
      <point x="163" y="577"/>
      <point x="212" y="577" type="curve" smooth="yes"/>
      <point x="245" y="577"/>
      <point x="266" y="556"/>
      <point x="266" y="517" type="curve" smooth="yes"/>
      <point x="266" y="492"/>
      <point x="250" y="468"/>
      <point x="219" y="446" type="curve" smooth="yes"/>
      <point x="100" y="362" type="line" smooth="yes"/>
      <point x="72" y="342"/>
      <point x="58" y="315"/>
      <point x="58" y="288" type="curve" smooth="yes"/>
      <point x="58" y="230"/>
      <point x="124" y="181"/>
      <point x="156" y="181" type="curve"/>
      <point x="163" y="185"/>
      <point x="166" y="190"/>
    </contour>
    <contour>
      <point x="74" y="-14" type="curve" smooth="yes"/>
      <point x="107" y="-14"/>
      <point x="139" y="20"/>
      <point x="139" y="56" type="curve" smooth="yes"/>
      <point x="139" y="82"/>
      <point x="122" y="102"/>
      <point x="96" y="102" type="curve" smooth="yes"/>
      <point x="63" y="102"/>
      <point x="31" y="68"/>
      <point x="31" y="32" type="curve" smooth="yes"/>
      <point x="31" y="6"/>
      <point x="48" y="-14"/>
    </contour>
  </outline>
</glyph>
<glyph name="at" format="1">
  <advance width="839"/>
  <unicode hex="0040"/>
  <note>
    at
  </note>
  <outline>
    <contour>
      <point x="408" y="-228" type="curve" smooth="yes"/>
      <point x="473" y="-228"/>
      <point x="560" y="-204"/>
      <point x="601" y="-175" type="curve"/>
      <point x="600" y="-164"/>
      <point x="596" y="-153"/>
      <point x="587" y="-142" type="curve"/>
      <point x="537" y="-169"/>
      <point x="468" y="-187"/>
      <point x="410" y="-187" type="curve" smooth="yes"/>
      <point x="217" y="-187"/>
      <point x="108" y="-74"/>
      <point x="108" y="124" type="curve" smooth="yes"/>
      <point x="108" y="375"/>
      <point x="271" y="556"/>
      <point x="498" y="557" type="curve" smooth="yes"/>
      <point x="650" y="558"/>
      <point x="748" y="462"/>
      <point x="747" y="311" type="curve" smooth="yes"/>
      <point x="746" y="175"/>
      <point x="663" y="34"/>
      <point x="589" y="34" type="curve" smooth="yes"/>
      <point x="558" y="34"/>
      <point x="541" y="58"/>
      <point x="554" y="125" type="curve" smooth="yes"/>
      <point x="611" y="422" type="line"/>
      <point x="590" y="431"/>
      <point x="565" y="435"/>
      <point x="538" y="435" type="curve" smooth="yes"/>
      <point x="401" y="435"/>
      <point x="252" y="276"/>
      <point x="252" y="130" type="curve" smooth="yes"/>
      <point x="252" y="48"/>
      <point x="293" y="-5"/>
      <point x="357" y="-5" type="curve" smooth="yes"/>
      <point x="400" y="-5"/>
      <point x="452" y="44"/>
      <point x="488" y="125" type="curve"/>
      <point x="466" y="34"/>
      <point x="504" y="-13"/>
      <point x="569" y="-13" type="curve" smooth="yes"/>
      <point x="674" y="-13"/>
      <point x="803" y="165"/>
      <point x="803" y="316" type="curve" smooth="yes"/>
      <point x="803" y="488"/>
      <point x="685" y="596"/>
      <point x="497" y="596" type="curve" smooth="yes"/>
      <point x="238" y="596"/>
      <point x="41" y="390"/>
      <point x="41" y="118" type="curve" smooth="yes"/>
      <point x="41" y="-97"/>
      <point x="180" y="-228"/>
    </contour>
    <contour>
      <point x="377" y="53" type="curve" smooth="yes"/>
      <point x="343" y="53"/>
      <point x="326" y="86"/>
      <point x="326" y="151" type="curve" smooth="yes"/>
      <point x="326" y="263"/>
      <point x="416" y="389"/>
      <point x="496" y="389" type="curve" smooth="yes"/>
      <point x="516" y="389"/>
      <point x="529" y="386"/>
      <point x="537" y="380" type="curve"/>
      <point x="521" y="294" type="line" smooth="yes"/>
      <point x="498" y="168"/>
      <point x="423" y="53"/>
    </contour>
  </outline>
</glyph>
<glyph name="B" format="1">
  <advance width="566"/>
  <unicode hex="0042"/>
  <note>
    B
  </note>
  <outline>
    <contour>
      <point x="-2" y="-3" type="curve"/>
      <point x="38" y="-1"/>
      <point x="79" y="0"/>
      <point x="113" y="0" type="curve" smooth="yes"/>
      <point x="159" y="0"/>
      <point x="194" y="0"/>
      <point x="230" y="0" type="curve" smooth="yes"/>
      <point x="380" y="0"/>
      <point x="518" y="79"/>
      <point x="518" y="218" type="curve" smooth="yes"/>
      <point x="518" y="292"/>
      <point x="465" y="349"/>
      <point x="383" y="360" type="curve"/>
      <point x="385" y="353" type="line"/>
      <point x="474" y="385"/>
      <point x="536" y="456"/>
      <point x="536" y="533" type="curve" smooth="yes"/>
      <point x="536" y="609"/>
      <point x="477" y="657"/>
      <point x="370" y="657" type="curve" smooth="yes"/>
      <point x="317" y="657"/>
      <point x="276" y="656"/>
      <point x="239" y="656" type="curve" smooth="yes"/>
      <point x="204" y="656"/>
      <point x="176" y="657"/>
      <point x="126" y="658" type="curve"/>
      <point x="123" y="655"/>
      <point x="121" y="650"/>
      <point x="119" y="641" type="curve" smooth="yes"/>
      <point x="117" y="633"/>
      <point x="118" y="629"/>
      <point x="121" y="629" type="curve" smooth="yes"/>
      <point x="144" y="629"/>
      <point x="184" y="615"/>
      <point x="185" y="607" type="curve"/>
      <point x="187" y="591"/>
      <point x="184" y="564"/>
      <point x="176" y="521" type="curve" smooth="yes"/>
      <point x="102" y="143" type="line" smooth="yes"/>
      <point x="91" y="85"/>
      <point x="83" y="57"/>
      <point x="77" y="49" type="curve" smooth="yes"/>
      <point x="70" y="39"/>
      <point x="28" y="26"/>
      <point x="3" y="26" type="curve" smooth="yes"/>
      <point x="1" y="26"/>
      <point x="0" y="22"/>
      <point x="-2" y="13" type="curve" smooth="yes"/>
      <point x="-3" y="8"/>
      <point x="-3" y="0"/>
    </contour>
    <contour>
      <point x="244" y="43" type="curve" smooth="yes"/>
      <point x="187" y="43"/>
      <point x="166" y="56"/>
      <point x="176" y="106" type="curve" smooth="yes"/>
      <point x="219" y="328" type="line"/>
      <point x="238" y="331"/>
      <point x="263" y="332"/>
      <point x="286" y="332" type="curve" smooth="yes"/>
      <point x="377" y="332"/>
      <point x="429" y="288"/>
      <point x="429" y="217" type="curve" smooth="yes"/>
      <point x="429" y="115"/>
      <point x="357" y="43"/>
    </contour>
    <contour>
      <point x="294" y="372" type="curve" smooth="yes"/>
      <point x="265" y="372"/>
      <point x="248" y="373"/>
      <point x="228" y="375" type="curve"/>
      <point x="271" y="596" type="line" smooth="yes"/>
      <point x="274" y="613"/>
      <point x="291" y="618"/>
      <point x="326" y="618" type="curve" smooth="yes"/>
      <point x="407" y="618"/>
      <point x="452" y="581"/>
      <point x="452" y="520" type="curve" smooth="yes"/>
      <point x="452" y="431"/>
      <point x="393" y="372"/>
    </contour>
    <contour>
      <point x="248" y="0" type="move" name="bottom"/>
    </contour>
    <contour>
      <point x="376" y="658" type="move" name="top"/>
    </contour>
  </outline>
</glyph>
<glyph name="D" format="1">
  <advance width="702"/>
  <unicode hex="0044"/>
  <note>
    D
  </note>
  <outline>
    <contour>
      <point x="243" y="656" type="curve" smooth="yes"/>
      <point x="201" y="656"/>
      <point x="162" y="657"/>
      <point x="127" y="658" type="curve"/>
      <point x="124" y="655"/>
      <point x="122" y="650"/>
      <point x="120" y="641" type="curve" smooth="yes"/>
      <point x="118" y="633"/>
      <point x="119" y="629"/>
      <point x="122" y="629" type="curve" smooth="yes"/>
      <point x="145" y="629"/>
      <point x="185" y="615"/>
      <point x="186" y="607" type="curve"/>
      <point x="188" y="589"/>
      <point x="185" y="560"/>
      <point x="177" y="521" type="curve" smooth="yes"/>
      <point x="103" y="143" type="line" smooth="yes"/>
      <point x="92" y="88"/>
      <point x="84" y="57"/>
      <point x="78" y="49" type="curve" smooth="yes"/>
      <point x="71" y="39"/>
      <point x="29" y="26"/>
      <point x="4" y="26" type="curve" smooth="yes"/>
      <point x="2" y="26"/>
      <point x="0" y="21"/>
      <point x="-1" y="12" type="curve" smooth="yes"/>
      <point x="-1" y="11"/>
      <point x="-3" y="-1"/>
      <point x="-1" y="-3" type="curve"/>
      <point x="39" y="-2"/>
      <point x="80" y="0"/>
      <point x="117" y="0" type="curve" smooth="yes"/>
      <point x="158" y="0"/>
      <point x="260" y="-3"/>
      <point x="283" y="-3" type="curve" smooth="yes"/>
      <point x="498" y="-3"/>
      <point x="678" y="175"/>
      <point x="678" y="385" type="curve" smooth="yes"/>
      <point x="678" y="550"/>
      <point x="551" y="658"/>
      <point x="382" y="658" type="curve" smooth="yes"/>
      <point x="353" y="658"/>
      <point x="270" y="656"/>
    </contour>
    <contour>
      <point x="261" y="535" type="line" smooth="yes"/>
      <point x="267" y="565"/>
      <point x="275" y="586"/>
      <point x="287" y="598" type="curve" smooth="yes"/>
      <point x="297" y="609"/>
      <point x="336" y="614"/>
      <point x="374" y="614" type="curve" smooth="yes"/>
      <point x="505" y="614"/>
      <point x="582" y="546"/>
      <point x="582" y="411" type="curve" smooth="yes"/>
      <point x="582" y="226"/>
      <point x="479" y="43"/>
      <point x="298" y="43" type="curve" smooth="yes"/>
      <point x="248" y="43"/>
      <point x="187" y="53"/>
      <point x="182" y="63" type="curve"/>
      <point x="180" y="85"/>
      <point x="179" y="113"/>
      <point x="184" y="139" type="curve" smooth="yes"/>
    </contour>
    <contour>
      <point x="317" y="0" type="move" name="bottom"/>
    </contour>
    <contour>
      <point x="381" y="329" type="move" name="center"/>
    </contour>
    <contour>
      <point x="238" y="330" type="move" name="stroke"/>
    </contour>
    <contour>
      <point x="445" y="658" type="move" name="top"/>
    </contour>
  </outline>
</glyph>
<glyph name="F" format="1">
  <advance width="515"/>
  <unicode hex="0046"/>
  <note>
    F
  </note>
  <outline>
    <contour>
      <point x="0" y="-3" type="curve"/>
      <point x="38" y="0"/>
      <point x="78" y="2"/>
      <point x="115" y="2" type="curve" smooth="yes"/>
      <point x="126" y="2"/>
      <point x="164" y="0"/>
      <point x="230" y="-3" type="curve"/>
      <point x="232" y="1"/>
      <point x="234" y="6"/>
      <point x="235" y="11" type="curve" smooth="yes"/>
      <point x="237" y="21"/>
      <point x="237" y="26"/>
      <point x="234" y="26" type="curve" smooth="yes"/>
      <point x="214" y="26"/>
      <point x="174" y="39"/>
      <point x="174" y="46" type="curve" smooth="yes"/>
      <point x="174" y="69"/>
      <point x="176" y="100"/>
      <point x="183" y="139" type="curve" smooth="yes"/>
      <point x="213" y="297" type="line" smooth="yes"/>
      <point x="214" y="303"/>
      <point x="239" y="306"/>
      <point x="286" y="306" type="curve" smooth="yes"/>
      <point x="331" y="306"/>
      <point x="366" y="303"/>
      <point x="374" y="298" type="curve" smooth="yes"/>
      <point x="384" y="292"/>
      <point x="386" y="274"/>
      <point x="389" y="235" type="curve"/>
      <point x="390" y="230"/>
      <point x="395" y="227"/>
      <point x="404" y="227" type="curve" smooth="yes"/>
      <point x="412" y="227"/>
      <point x="417" y="228"/>
      <point x="421" y="231" type="curve"/>
      <point x="458" y="425" type="line"/>
      <point x="456" y="428"/>
      <point x="450" y="430"/>
      <point x="442" y="430" type="curve" smooth="yes"/>
      <point x="433" y="430"/>
      <point x="428" y="428"/>
      <point x="426" y="423" type="curve"/>
      <point x="408" y="383"/>
      <point x="398" y="367"/>
      <point x="387" y="360" type="curve" smooth="yes"/>
      <point x="377" y="354"/>
      <point x="348" y="350"/>
      <point x="322" y="350" type="curve" smooth="yes"/>
      <point x="266" y="350" type="line" smooth="yes"/>
      <point x="238" y="350"/>
      <point x="224" y="352"/>
      <point x="225" y="356" type="curve" smooth="yes"/>
      <point x="257" y="519" type="line" smooth="yes"/>
      <point x="265" y="559"/>
      <point x="272" y="587"/>
      <point x="278" y="603" type="curve"/>
      <point x="281" y="612"/>
      <point x="311" y="616"/>
      <point x="368" y="616" type="curve" smooth="yes"/>
      <point x="418" y="616" type="line" smooth="yes"/>
      <point x="489" y="616"/>
      <point x="513" y="596"/>
      <point x="518" y="530" type="curve"/>
      <point x="518" y="525"/>
      <point x="521" y="523"/>
      <point x="530" y="523" type="curve" smooth="yes"/>
      <point x="539" y="523"/>
      <point x="546" y="525"/>
      <point x="549" y="528" type="curve"/>
      <point x="550" y="546"/>
      <point x="544" y="621"/>
      <point x="547" y="664" type="curve"/>
      <point x="510" y="664"/>
      <point x="454" y="663"/>
      <point x="399" y="660" type="curve" smooth="yes"/>
      <point x="324" y="656"/>
      <point x="269" y="656"/>
      <point x="239" y="656" type="curve" smooth="yes"/>
      <point x="200" y="656"/>
      <point x="161" y="657"/>
      <point x="127" y="658" type="curve"/>
      <point x="123" y="655"/>
      <point x="121" y="650"/>
      <point x="119" y="641" type="curve" smooth="yes"/>
      <point x="117" y="633"/>
      <point x="118" y="629"/>
      <point x="121" y="629" type="curve" smooth="yes"/>
      <point x="147" y="629"/>
      <point x="184" y="617"/>
      <point x="186" y="607" type="curve"/>
      <point x="187" y="589"/>
      <point x="184" y="560"/>
      <point x="176" y="521" type="curve" smooth="yes"/>
      <point x="101" y="136" type="line" smooth="yes"/>
      <point x="93" y="94"/>
      <point x="85" y="64"/>
      <point x="77" y="46" type="curve"/>
      <point x="72" y="38"/>
      <point x="30" y="26"/>
      <point x="6" y="26" type="curve" smooth="yes"/>
      <point x="3" y="26"/>
      <point x="2" y="21"/>
      <point x="-1" y="12" type="curve" smooth="yes"/>
      <point x="-3" y="5"/>
      <point x="-2" y="0"/>
    </contour>
    <contour>
      <point x="225" y="0" type="move" name="bottom"/>
    </contour>
    <contour>
      <point x="353" y="658" type="move" name="top"/>
    </contour>
  </outline>
</glyph>
<glyph name="H" format="1">
  <advance width="680"/>
  <unicode hex="0048"/>
  <note>
    H
  </note>
  <outline>
    <contour>
      <point x="0" y="-3" type="curve"/>
      <point x="78" y="0"/>
      <point x="118" y="2"/>
      <point x="118" y="2" type="curve" smooth="yes"/>
      <point x="129" y="2"/>
      <point x="164" y="0"/>
      <point x="230" y="-3" type="curve"/>
      <point x="232" y="2"/>
      <point x="234" y="7"/>
      <point x="235" y="10" type="curve" smooth="yes"/>
      <point x="238" y="18"/>
      <point x="236" y="26"/>
      <point x="234" y="26" type="curve" smooth="yes"/>
      <point x="214" y="26"/>
      <point x="175" y="39"/>
      <point x="174" y="46" type="curve" smooth="yes"/>
      <point x="171" y="69"/>
      <point x="175" y="100"/>
      <point x="183" y="139" type="curve" smooth="yes"/>
      <point x="216" y="309" type="line"/>
      <point x="221" y="313" type="line"/>
      <point x="235" y="316"/>
      <point x="279" y="317"/>
      <point x="362" y="317" type="curve" smooth="yes"/>
      <point x="398" y="317"/>
      <point x="436" y="316"/>
      <point x="499" y="315" type="curve"/>
      <point x="500" y="311" type="line"/>
      <point x="466" y="135" type="line" smooth="yes"/>
      <point x="458" y="94"/>
      <point x="450" y="64"/>
      <point x="442" y="46" type="curve"/>
      <point x="437" y="38"/>
      <point x="395" y="26"/>
      <point x="371" y="26" type="curve" smooth="yes"/>
      <point x="368" y="26"/>
      <point x="366" y="22"/>
      <point x="365" y="14" type="curve" smooth="yes"/>
      <point x="363" y="5"/>
      <point x="363" y="0"/>
      <point x="365" y="-3" type="curve"/>
      <point x="443" y="0"/>
      <point x="480" y="2"/>
      <point x="484" y="2" type="curve" smooth="yes"/>
      <point x="493" y="2"/>
      <point x="528" y="0"/>
      <point x="594" y="-3" type="curve"/>
      <point x="596" y="1"/>
      <point x="598" y="6"/>
      <point x="599" y="11" type="curve" smooth="yes"/>
      <point x="601" y="21"/>
      <point x="601" y="26"/>
      <point x="598" y="26" type="curve" smooth="yes"/>
      <point x="578" y="26"/>
      <point x="539" y="39"/>
      <point x="538" y="46" type="curve" smooth="yes"/>
      <point x="535" y="67"/>
      <point x="540" y="98"/>
      <point x="548" y="139" type="curve" smooth="yes"/>
      <point x="622" y="519" type="line" smooth="yes"/>
      <point x="630" y="560"/>
      <point x="639" y="591"/>
      <point x="648" y="612" type="curve"/>
      <point x="651" y="619"/>
      <point x="696" y="633"/>
      <point x="716" y="633" type="curve" smooth="yes"/>
      <point x="719" y="633"/>
      <point x="721" y="638"/>
      <point x="723" y="647" type="curve" smooth="yes"/>
      <point x="724" y="653"/>
      <point x="724" y="658"/>
      <point x="724" y="662" type="curve"/>
      <point x="681" y="659"/>
      <point x="630" y="656"/>
      <point x="611" y="656" type="curve" smooth="yes"/>
      <point x="586" y="656"/>
      <point x="526" y="659"/>
      <point x="495" y="662" type="curve"/>
      <point x="491" y="659"/>
      <point x="489" y="654"/>
      <point x="488" y="646" type="curve" smooth="yes"/>
      <point x="486" y="637"/>
      <point x="486" y="633"/>
      <point x="489" y="633" type="curve" smooth="yes"/>
      <point x="512" y="633"/>
      <point x="550" y="620"/>
      <point x="552" y="612" type="curve"/>
      <point x="553" y="594"/>
      <point x="550" y="564"/>
      <point x="542" y="523" type="curve" smooth="yes"/>
      <point x="512" y="371" type="line"/>
      <point x="509" y="367" type="line"/>
      <point x="449" y="366"/>
      <point x="410" y="365"/>
      <point x="371" y="365" type="curve" smooth="yes"/>
      <point x="335" y="365"/>
      <point x="294" y="366"/>
      <point x="229" y="367" type="curve"/>
      <point x="228" y="370" type="line"/>
      <point x="257" y="519" type="line" smooth="yes"/>
      <point x="265" y="558"/>
      <point x="274" y="590"/>
      <point x="284" y="613" type="curve"/>
      <point x="287" y="620"/>
      <point x="332" y="633"/>
      <point x="352" y="633" type="curve" smooth="yes"/>
      <point x="354" y="633"/>
      <point x="358" y="642"/>
      <point x="359" y="649" type="curve" smooth="yes"/>
      <point x="360" y="654"/>
      <point x="360" y="660"/>
      <point x="360" y="662" type="curve"/>
      <point x="292" y="658"/>
      <point x="259" y="656"/>
      <point x="245" y="656" type="curve" smooth="yes"/>
      <point x="228" y="656"/>
      <point x="177" y="659"/>
      <point x="130" y="662" type="curve"/>
      <point x="126" y="659"/>
      <point x="124" y="654"/>
      <point x="123" y="646" type="curve" smooth="yes"/>
      <point x="122" y="637"/>
      <point x="121" y="633"/>
      <point x="124" y="633" type="curve" smooth="yes"/>
      <point x="147" y="633"/>
      <point x="185" y="620"/>
      <point x="187" y="612" type="curve"/>
      <point x="188" y="594"/>
      <point x="185" y="564"/>
      <point x="177" y="523" type="curve" smooth="yes"/>
      <point x="101" y="135" type="line" smooth="yes"/>
      <point x="93" y="94"/>
      <point x="85" y="64"/>
      <point x="77" y="46" type="curve"/>
      <point x="72" y="38"/>
      <point x="30" y="26"/>
      <point x="6" y="26" type="curve" smooth="yes"/>
      <point x="3" y="26"/>
      <point x="2" y="21"/>
      <point x="-1" y="12" type="curve" smooth="yes"/>
      <point x="-3" y="5"/>
      <point x="-2" y="0"/>
    </contour>
    <contour>
      <point x="287" y="0" type="move" name="bottom"/>
    </contour>
    <contour>
      <point x="385" y="499" type="move" name="stroke"/>
    </contour>
    <contour>
      <point x="415" y="658" type="move" name="top"/>
    </contour>
    <contour>
      <point x="81" y="658" type="move" name="topleft"/>
    </contour>
  </outline>
</glyph>
<glyph name="I" format="1">
  <advance width="315"/>
  <unicode hex="0049"/>
  <note>
    I
  </note>
  <outline>
    <contour>
      <point x="0" y="-3" type="curve"/>
      <point x="48" y="0"/>
      <point x="98" y="2"/>
      <point x="118" y="2" type="curve" smooth="yes"/>
      <point x="146" y="2"/>
      <point x="184" y="0"/>
      <point x="230" y="-3" type="curve"/>
      <point x="232" y="1"/>
      <point x="234" y="6"/>
      <point x="235" y="11" type="curve" smooth="yes"/>
      <point x="237" y="21"/>
      <point x="237" y="26"/>
      <point x="234" y="26" type="curve" smooth="yes"/>
      <point x="221" y="26"/>
      <point x="175" y="37"/>
      <point x="174" y="45" type="curve"/>
      <point x="172" y="69"/>
      <point x="175" y="100"/>
      <point x="183" y="139" type="curve" smooth="yes"/>
      <point x="257" y="519" type="line" smooth="yes"/>
      <point x="265" y="558"/>
      <point x="273" y="589"/>
      <point x="284" y="612" type="curve"/>
      <point x="289" y="621"/>
      <point x="339" y="633"/>
      <point x="352" y="633" type="curve" smooth="yes"/>
      <point x="355" y="633"/>
      <point x="357" y="638"/>
      <point x="359" y="647" type="curve" smooth="yes"/>
      <point x="360" y="653"/>
      <point x="360" y="658"/>
      <point x="360" y="662" type="curve"/>
      <point x="302" y="659"/>
      <point x="274" y="657"/>
      <point x="246" y="657" type="curve" smooth="yes"/>
      <point x="223" y="657"/>
      <point x="186" y="659"/>
      <point x="130" y="662" type="curve"/>
      <point x="126" y="659"/>
      <point x="124" y="654"/>
      <point x="123" y="646" type="curve" smooth="yes"/>
      <point x="122" y="637"/>
      <point x="121" y="633"/>
      <point x="124" y="633" type="curve" smooth="yes"/>
      <point x="141" y="633"/>
      <point x="185" y="623"/>
      <point x="187" y="612" type="curve"/>
      <point x="188" y="594"/>
      <point x="185" y="564"/>
      <point x="177" y="523" type="curve" smooth="yes"/>
      <point x="101" y="135" type="line" smooth="yes"/>
      <point x="93" y="94"/>
      <point x="85" y="64"/>
      <point x="77" y="46" type="curve"/>
      <point x="71" y="35"/>
      <point x="23" y="26"/>
      <point x="6" y="26" type="curve" smooth="yes"/>
      <point x="3" y="26"/>
      <point x="2" y="21"/>
      <point x="-1" y="12" type="curve" smooth="yes"/>
      <point x="-3" y="5"/>
      <point x="-2" y="0"/>
    </contour>
    <contour>
      <point x="115" y="0" type="move" name="bottom"/>
    </contour>
    <contour>
      <point x="215" y="10" type="move" name="ogonek"/>
    </contour>
    <contour>
      <point x="243" y="658" type="move" name="top"/>
    </contour>
    <contour>
      <point x="104" y="658" type="move" name="topleft"/>
    </contour>
  </outline>
</glyph>
<glyph name="J" format="1">
  <advance width="309"/>
  <unicode hex="004A"/>
  <note>
    J
  </note>
  <outline>
    <contour>
      <point x="-112" y="-227" type="curve" smooth="yes"/>
      <point x="4" y="-227"/>
      <point x="137" y="-92"/>
      <point x="172" y="85" type="curve" smooth="yes"/>
      <point x="257" y="519" type="line" smooth="yes"/>
      <point x="265" y="558"/>
      <point x="273" y="589"/>
      <point x="284" y="613" type="curve"/>
      <point x="288" y="621"/>
      <point x="339" y="633"/>
      <point x="352" y="633" type="curve" smooth="yes"/>
      <point x="356" y="633"/>
      <point x="360" y="652"/>
      <point x="360" y="657" type="curve" smooth="yes"/>
      <point x="360" y="659"/>
      <point x="359" y="660"/>
      <point x="359" y="662" type="curve"/>
      <point x="331" y="660"/>
      <point x="268" y="656"/>
      <point x="245" y="656" type="curve" smooth="yes"/>
      <point x="209" y="656"/>
      <point x="146" y="661"/>
      <point x="129" y="662" type="curve"/>
      <point x="125" y="658"/>
      <point x="121" y="651"/>
      <point x="121" y="638" type="curve" smooth="yes"/>
      <point x="121" y="635"/>
      <point x="122" y="633"/>
      <point x="124" y="633" type="curve" smooth="yes"/>
      <point x="141" y="633"/>
      <point x="185" y="623"/>
      <point x="187" y="612" type="curve"/>
      <point x="188" y="594"/>
      <point x="184" y="564"/>
      <point x="176" y="523" type="curve" smooth="yes"/>
      <point x="90" y="77" type="line" smooth="yes"/>
      <point x="73" y="-7"/>
      <point x="49" y="-76"/>
      <point x="22" y="-113" type="curve" smooth="yes"/>
      <point x="-3" y="-148"/>
      <point x="-28" y="-167"/>
      <point x="-47" y="-167" type="curve" smooth="yes"/>
      <point x="-70" y="-167"/>
      <point x="-91" y="-124"/>
      <point x="-129" y="-124" type="curve" smooth="yes"/>
      <point x="-161" y="-124"/>
      <point x="-187" y="-145"/>
      <point x="-187" y="-177" type="curve" smooth="yes"/>
      <point x="-187" y="-206"/>
      <point x="-162" y="-227"/>
    </contour>
    <contour>
      <point x="104" y="0" type="move" name="bottom"/>
    </contour>
    <contour>
      <point x="249" y="658" type="move" name="top"/>
    </contour>
  </outline>
</glyph>
<glyph name="K" format="1">
  <advance width="639"/>
  <unicode hex="004B"/>
  <note>
    K
  </note>
  <outline>
    <contour>
      <point x="0" y="-3" type="curve"/>
      <point x="58" y="0"/>
      <point x="97" y="2"/>
      <point x="121" y="2" type="curve" smooth="yes"/>
      <point x="132" y="2"/>
      <point x="164" y="0"/>
      <point x="230" y="-3" type="curve"/>
      <point x="232" y="0"/>
      <point x="234" y="5"/>
      <point x="235" y="10" type="curve" smooth="yes"/>
      <point x="236" y="18"/>
      <point x="236" y="26"/>
      <point x="234" y="26" type="curve" smooth="yes"/>
      <point x="221" y="26"/>
      <point x="175" y="37"/>
      <point x="174" y="46" type="curve" smooth="yes"/>
      <point x="172" y="69"/>
      <point x="175" y="100"/>
      <point x="183" y="139" type="curve" smooth="yes"/>
      <point x="216" y="311" type="line"/>
      <point x="238" y="311" type="line" smooth="yes"/>
      <point x="249" y="311"/>
      <point x="256" y="308"/>
      <point x="260" y="302" type="curve" smooth="yes"/>
      <point x="382" y="104" type="line" smooth="yes"/>
      <point x="435" y="18"/>
      <point x="469" y="-2"/>
      <point x="535" y="-2" type="curve" smooth="yes"/>
      <point x="551" y="-2"/>
      <point x="588" y="-2"/>
      <point x="614" y="0" type="curve"/>
      <point x="616" y="3"/>
      <point x="618" y="6"/>
      <point x="619" y="11" type="curve" smooth="yes"/>
      <point x="621" y="23"/>
      <point x="620" y="29"/>
      <point x="617" y="29" type="curve" smooth="yes"/>
      <point x="592" y="29"/>
      <point x="533" y="37"/>
      <point x="494" y="97" type="curve" smooth="yes"/>
      <point x="345" y="330" type="line" smooth="yes"/>
      <point x="340" y="338"/>
      <point x="339" y="343"/>
      <point x="340" y="348" type="curve" smooth="yes"/>
      <point x="340" y="351"/>
      <point x="342" y="355"/>
      <point x="344" y="357" type="curve" smooth="yes"/>
      <point x="575" y="595" type="line" smooth="yes"/>
      <point x="599" y="620"/>
      <point x="633" y="632"/>
      <point x="675" y="637" type="curve"/>
      <point x="677" y="639"/>
      <point x="679" y="644"/>
      <point x="681" y="651" type="curve" smooth="yes"/>
      <point x="682" y="655"/>
      <point x="682" y="660"/>
      <point x="682" y="662" type="curve"/>
      <point x="665" y="661"/>
      <point x="612" y="656"/>
      <point x="579" y="656" type="curve" smooth="yes"/>
      <point x="557" y="656"/>
      <point x="499" y="660"/>
      <point x="474" y="662" type="curve"/>
      <point x="472" y="657"/>
      <point x="470" y="652"/>
      <point x="469" y="646" type="curve" smooth="yes"/>
      <point x="468" y="640"/>
      <point x="468" y="637"/>
      <point x="471" y="637" type="curve" smooth="yes"/>
      <point x="509" y="637"/>
      <point x="528" y="631"/>
      <point x="524" y="620" type="curve" smooth="yes"/>
      <point x="522" y="614"/>
      <point x="513" y="602"/>
      <point x="494" y="582" type="curve" smooth="yes"/>
      <point x="302" y="379" type="line" smooth="yes"/>
      <point x="283" y="359"/>
      <point x="259" y="350"/>
      <point x="238" y="350" type="curve" smooth="yes"/>
      <point x="224" y="350" type="line"/>
      <point x="257" y="519" type="line" smooth="yes"/>
      <point x="264" y="558"/>
      <point x="273" y="589"/>
      <point x="284" y="612" type="curve" smooth="yes"/>
      <point x="289" y="621"/>
      <point x="339" y="633"/>
      <point x="352" y="633" type="curve" smooth="yes"/>
      <point x="354" y="633"/>
      <point x="358" y="642"/>
      <point x="359" y="649" type="curve" smooth="yes"/>
      <point x="360" y="655"/>
      <point x="360" y="660"/>
      <point x="360" y="662" type="curve"/>
      <point x="331" y="660"/>
      <point x="268" y="656"/>
      <point x="248" y="656" type="curve" smooth="yes"/>
      <point x="212" y="656"/>
      <point x="146" y="661"/>
      <point x="130" y="662" type="curve"/>
      <point x="126" y="659"/>
      <point x="124" y="654"/>
      <point x="123" y="646" type="curve" smooth="yes"/>
      <point x="122" y="637"/>
      <point x="121" y="633"/>
      <point x="124" y="633" type="curve" smooth="yes"/>
      <point x="141" y="633"/>
      <point x="185" y="623"/>
      <point x="187" y="612" type="curve"/>
      <point x="188" y="594"/>
      <point x="185" y="564"/>
      <point x="177" y="523" type="curve" smooth="yes"/>
      <point x="101" y="135" type="line" smooth="yes"/>
      <point x="93" y="94"/>
      <point x="85" y="64"/>
      <point x="77" y="46" type="curve"/>
      <point x="71" y="35"/>
      <point x="23" y="26"/>
      <point x="6" y="26" type="curve" smooth="yes"/>
      <point x="3" y="26"/>
      <point x="2" y="21"/>
      <point x="-1" y="12" type="curve" smooth="yes"/>
      <point x="-3" y="5"/>
      <point x="-2" y="0"/>
    </contour>
    <contour>
      <point x="297" y="0" type="move" name="bottom"/>
    </contour>
    <contour>
      <point x="425" y="658" type="move" name="top"/>
    </contour>
  </outline>
</glyph>
<glyph name="L" format="1">
  <advance width="533"/>
  <unicode hex="004C"/>
  <note>
    L
  </note>
  <outline>
    <contour>
      <point x="243" y="656" type="curve" smooth="yes"/>
      <point x="223" y="656"/>
      <point x="177" y="659"/>
      <point x="130" y="662" type="curve"/>
      <point x="126" y="659"/>
      <point x="124" y="654"/>
      <point x="123" y="646" type="curve" smooth="yes"/>
      <point x="122" y="637"/>
      <point x="121" y="633"/>
      <point x="124" y="633" type="curve" smooth="yes"/>
      <point x="147" y="633"/>
      <point x="186" y="620"/>
      <point x="187" y="612" type="curve"/>
      <point x="189" y="594"/>
      <point x="184" y="564"/>
      <point x="176" y="521" type="curve" smooth="yes"/>
      <point x="103" y="143" type="line" smooth="yes"/>
      <point x="92" y="88"/>
      <point x="84" y="57"/>
      <point x="78" y="49" type="curve" smooth="yes"/>
      <point x="71" y="40"/>
      <point x="29" y="28"/>
      <point x="4" y="28" type="curve" smooth="yes"/>
      <point x="2" y="28"/>
      <point x="1" y="24"/>
      <point x="-1" y="15" type="curve" smooth="yes"/>
      <point x="-3" y="6"/>
      <point x="-3" y="1"/>
      <point x="-1" y="-1" type="curve"/>
      <point x="29" y="0"/>
      <point x="80" y="2"/>
      <point x="120" y="2" type="curve" smooth="yes"/>
      <point x="160" y="2"/>
      <point x="219" y="1"/>
      <point x="273" y="-1" type="curve" smooth="yes"/>
      <point x="345" y="-4"/>
      <point x="399" y="-4"/>
      <point x="434" y="-4" type="curve"/>
      <point x="442" y="18"/>
      <point x="483" y="98"/>
      <point x="521" y="162" type="curve"/>
      <point x="517" y="166"/>
      <point x="510" y="168"/>
      <point x="497" y="168" type="curve" smooth="yes"/>
      <point x="489" y="168"/>
      <point x="483" y="166"/>
      <point x="482" y="162" type="curve"/>
      <point x="425" y="54"/>
      <point x="385" y="44"/>
      <point x="270" y="44" type="curve" smooth="yes"/>
      <point x="242" y="44" type="line" smooth="yes"/>
      <point x="199" y="44"/>
      <point x="176" y="47"/>
      <point x="176" y="54" type="curve"/>
      <point x="174" y="77"/>
      <point x="177" y="107"/>
      <point x="184" y="142" type="curve" smooth="yes"/>
      <point x="257" y="519" type="line" smooth="yes"/>
      <point x="265" y="558"/>
      <point x="274" y="589"/>
      <point x="284" y="612" type="curve" smooth="yes"/>
      <point x="287" y="619"/>
      <point x="332" y="633"/>
      <point x="352" y="633" type="curve" smooth="yes"/>
      <point x="355" y="633"/>
      <point x="357" y="638"/>
      <point x="359" y="647" type="curve" smooth="yes"/>
      <point x="360" y="653"/>
      <point x="360" y="658"/>
      <point x="360" y="662" type="curve"/>
      <point x="292" y="658"/>
      <point x="257" y="656"/>
    </contour>
    <contour>
      <point x="238" y="0" type="move" name="bottom"/>
    </contour>
    <contour>
      <point x="224" y="329" type="move" name="center"/>
    </contour>
    <contour>
      <point x="403" y="329" type="move" name="dotacc"/>
    </contour>
    <contour>
      <point x="366" y="658" type="move" name="top"/>
    </contour>
    <contour>
      <point x="433" y="431" type="move" name="topright"/>
    </contour>
  </outline>
</glyph>
<glyph name="M" format="1">
  <advance width="872"/>
  <unicode hex="004D"/>
  <note>
    M
  </note>
  <outline>
    <contour>
      <point x="-18" y="-3" type="curve"/>
      <point x="30" y="0"/>
      <point x="79" y="2"/>
      <point x="100" y="2" type="curve" smooth="yes"/>
      <point x="115" y="2"/>
      <point x="146" y="0"/>
      <point x="212" y="-3" type="curve"/>
      <point x="214" y="1"/>
      <point x="216" y="6"/>
      <point x="217" y="11" type="curve" smooth="yes"/>
      <point x="219" y="21"/>
      <point x="219" y="26"/>
      <point x="216" y="26" type="curve" smooth="yes"/>
      <point x="165" y="33"/>
      <point x="145" y="42"/>
      <point x="142" y="52" type="curve" smooth="yes"/>
      <point x="140" y="60"/>
      <point x="143" y="79"/>
      <point x="149" y="102" type="curve" smooth="yes"/>
      <point x="269" y="631" type="line"/>
      <point x="246" y="628" type="line"/>
      <point x="361" y="10" type="line" smooth="yes"/>
      <point x="362" y="3"/>
      <point x="366" y="-2"/>
      <point x="371" y="-2" type="curve" smooth="yes"/>
      <point x="383" y="-2"/>
      <point x="391" y="3"/>
      <point x="403" y="24" type="curve" smooth="yes"/>
      <point x="746" y="613" type="line"/>
      <point x="719" y="598" type="line"/>
      <point x="722" y="578"/>
      <point x="721" y="540"/>
      <point x="718" y="519" type="curve" smooth="yes"/>
      <point x="654" y="124" type="line" smooth="yes"/>
      <point x="644" y="60"/>
      <point x="635" y="46"/>
      <point x="626" y="41" type="curve" smooth="yes"/>
      <point x="613" y="34"/>
      <point x="576" y="26"/>
      <point x="563" y="26" type="curve" smooth="yes"/>
      <point x="560" y="26"/>
      <point x="558" y="22"/>
      <point x="556" y="13" type="curve" smooth="yes"/>
      <point x="554" y="5"/>
      <point x="555" y="0"/>
      <point x="557" y="-3" type="curve"/>
      <point x="635" y="0"/>
      <point x="675" y="2"/>
      <point x="678" y="2" type="curve" smooth="yes"/>
      <point x="691" y="2"/>
      <point x="724" y="0"/>
      <point x="790" y="-3" type="curve"/>
      <point x="792" y="1"/>
      <point x="794" y="6"/>
      <point x="795" y="12" type="curve" smooth="yes"/>
      <point x="797" y="21"/>
      <point x="797" y="26"/>
      <point x="794" y="26" type="curve" smooth="yes"/>
      <point x="779" y="26"/>
      <point x="734" y="36"/>
      <point x="731" y="48" type="curve"/>
      <point x="727" y="71"/>
      <point x="727" y="102"/>
      <point x="734" y="140" type="curve" smooth="yes"/>
      <point x="804" y="546" type="line" smooth="yes"/>
      <point x="811" y="585"/>
      <point x="820" y="607"/>
      <point x="829" y="613" type="curve" smooth="yes"/>
      <point x="841" y="621"/>
      <point x="872" y="633"/>
      <point x="891" y="633" type="curve" smooth="yes"/>
      <point x="894" y="633"/>
      <point x="897" y="638"/>
      <point x="899" y="647" type="curve" smooth="yes"/>
      <point x="900" y="651"/>
      <point x="899" y="656"/>
      <point x="899" y="662" type="curve"/>
      <point x="865" y="659"/>
      <point x="827" y="658"/>
      <point x="786" y="658" type="curve" smooth="yes"/>
      <point x="773" y="658"/>
      <point x="753" y="659"/>
      <point x="711" y="662" type="curve"/>
      <point x="685" y="610"/>
      <point x="666" y="579"/>
      <point x="645" y="542" type="curve" smooth="yes"/>
      <point x="428" y="163" type="line"/>
      <point x="426" y="160"/>
      <point x="424" y="159"/>
      <point x="421" y="159" type="curve" smooth="yes"/>
      <point x="419" y="159"/>
      <point x="417" y="161"/>
      <point x="416" y="166" type="curve" smooth="yes"/>
      <point x="348" y="536" type="line" smooth="yes"/>
      <point x="336" y="601"/>
      <point x="330" y="645"/>
      <point x="327" y="662" type="curve"/>
      <point x="289" y="659"/>
      <point x="269" y="657"/>
      <point x="244" y="657" type="curve" smooth="yes"/>
      <point x="223" y="657"/>
      <point x="155" y="661"/>
      <point x="136" y="662" type="curve"/>
      <point x="132" y="659"/>
      <point x="130" y="654"/>
      <point x="129" y="647" type="curve" smooth="yes"/>
      <point x="128" y="638"/>
      <point x="127" y="633"/>
      <point x="130" y="633" type="curve" smooth="yes"/>
      <point x="149" y="633"/>
      <point x="203" y="623"/>
      <point x="205" y="612" type="curve"/>
      <point x="206" y="602"/>
      <point x="204" y="589"/>
      <point x="201" y="572" type="curve" smooth="yes"/>
      <point x="197" y="549"/>
      <point x="171" y="440"/>
      <point x="150" y="340" type="curve" smooth="yes"/>
      <point x="135" y="273"/>
      <point x="120" y="204"/>
      <point x="105" y="135" type="curve" smooth="yes"/>
      <point x="95" y="89"/>
      <point x="84" y="60"/>
      <point x="70" y="48" type="curve"/>
      <point x="56" y="36"/>
      <point x="7" y="26"/>
      <point x="-12" y="26" type="curve" smooth="yes"/>
      <point x="-15" y="26"/>
      <point x="-17" y="21"/>
      <point x="-20" y="12" type="curve" smooth="yes"/>
      <point x="-22" y="5"/>
      <point x="-20" y="0"/>
    </contour>
    <contour>
      <point x="384" y="0" type="move" name="bottom"/>
    </contour>
    <contour>
      <point x="522" y="658" type="move" name="top"/>
    </contour>
  </outline>
</glyph>
<glyph name="N" format="1">
  <advance width="731"/>
  <unicode hex="004E"/>
  <note>
    N
  </note>
  <outline>
    <contour>
      <point x="553" y="-5" type="curve" smooth="yes"/>
      <point x="563" y="-5"/>
      <point x="569" y="-4"/>
      <point x="573" y="-1" type="curve"/>
      <point x="581" y="51"/>
      <point x="589" y="98"/>
      <point x="597" y="139" type="curve" smooth="yes"/>
      <point x="671" y="519" type="line" smooth="yes"/>
      <point x="679" y="560"/>
      <point x="688" y="591"/>
      <point x="697" y="612" type="curve" smooth="yes"/>
      <point x="701" y="621"/>
      <point x="768" y="635"/>
      <point x="781" y="635" type="curve" smooth="yes"/>
      <point x="784" y="635"/>
      <point x="786" y="639"/>
      <point x="787" y="647" type="curve" smooth="yes"/>
      <point x="788" y="653"/>
      <point x="788" y="658"/>
      <point x="788" y="662" type="curve"/>
      <point x="757" y="660"/>
      <point x="695" y="656"/>
      <point x="675" y="656" type="curve" smooth="yes"/>
      <point x="639" y="656"/>
      <point x="575" y="661"/>
      <point x="558" y="662" type="curve"/>
      <point x="554" y="659"/>
      <point x="552" y="654"/>
      <point x="551" y="647" type="curve" smooth="yes"/>
      <point x="550" y="639"/>
      <point x="550" y="635"/>
      <point x="553" y="635" type="curve" smooth="yes"/>
      <point x="570" y="635"/>
      <point x="625" y="623"/>
      <point x="627" y="612" type="curve"/>
      <point x="629" y="594"/>
      <point x="625" y="565"/>
      <point x="617" y="524" type="curve" smooth="yes"/>
      <point x="557" y="213" type="line" smooth="yes"/>
      <point x="552" y="185"/>
      <point x="544" y="165"/>
      <point x="538" y="151" type="curve"/>
      <point x="568" y="128" type="line"/>
      <point x="347" y="560" type="line" smooth="yes"/>
      <point x="320" y="613"/>
      <point x="308" y="646"/>
      <point x="302" y="662" type="curve"/>
      <point x="283" y="661"/>
      <point x="256" y="660"/>
      <point x="221" y="660" type="curve" smooth="yes"/>
      <point x="205" y="660"/>
      <point x="172" y="661"/>
      <point x="120" y="662" type="curve"/>
      <point x="116" y="659"/>
      <point x="114" y="654"/>
      <point x="113" y="646" type="curve" smooth="yes"/>
      <point x="112" y="637"/>
      <point x="111" y="633"/>
      <point x="114" y="633" type="curve" smooth="yes"/>
      <point x="133" y="633"/>
      <point x="187" y="623"/>
      <point x="189" y="612" type="curve"/>
      <point x="191" y="595"/>
      <point x="188" y="570"/>
      <point x="182" y="537" type="curve" smooth="yes"/>
      <point x="105" y="144" type="line" smooth="yes"/>
      <point x="96" y="99"/>
      <point x="86" y="67"/>
      <point x="77" y="50" type="curve" smooth="yes"/>
      <point x="71" y="38"/>
      <point x="11" y="26"/>
      <point x="-8" y="26" type="curve" smooth="yes"/>
      <point x="-10" y="26"/>
      <point x="-12" y="21"/>
      <point x="-14" y="12" type="curve" smooth="yes"/>
      <point x="-16" y="4"/>
      <point x="-15" y="-1"/>
      <point x="-13" y="-3" type="curve"/>
      <point x="25" y="-1"/>
      <point x="65" y="2"/>
      <point x="100" y="2" type="curve" smooth="yes"/>
      <point x="113" y="2"/>
      <point x="150" y="0"/>
      <point x="217" y="-3" type="curve"/>
      <point x="218" y="0"/>
      <point x="220" y="5"/>
      <point x="221" y="10" type="curve" smooth="yes"/>
      <point x="223" y="18"/>
      <point x="222" y="26"/>
      <point x="220" y="26" type="curve" smooth="yes"/>
      <point x="207" y="26"/>
      <point x="151" y="39"/>
      <point x="149" y="48" type="curve" smooth="yes"/>
      <point x="145" y="66"/>
      <point x="152" y="97"/>
      <point x="161" y="141" type="curve" smooth="yes"/>
      <point x="252" y="613" type="line"/>
      <point x="225" y="605" type="line"/>
      <point x="525" y="18" type="line" smooth="yes"/>
      <point x="533" y="3"/>
      <point x="542" y="-5"/>
    </contour>
    <contour>
      <point x="324" y="0" type="move" name="bottom"/>
    </contour>
    <contour>
      <point x="452" y="658" type="move" name="top"/>
    </contour>
  </outline>
</glyph>
<glyph name="O" format="1">
  <advance width="706"/>
  <unicode hex="004F"/>
  <note>
    O
  </note>
  <outline>
    <contour>
      <point x="308" y="-10" type="curve" smooth="yes"/>
      <point x="510" y="-10"/>
      <point x="685" y="191"/>
      <point x="685" y="399" type="curve" smooth="yes"/>
      <point x="685" y="552"/>
      <point x="583" y="667"/>
      <point x="439" y="667" type="curve" smooth="yes"/>
      <point x="243" y="667"/>
      <point x="65" y="464"/>
      <point x="65" y="256" type="curve" smooth="yes"/>
      <point x="65" y="105"/>
      <point x="166" y="-10"/>
    </contour>
    <contour>
      <point x="331" y="33" type="curve" smooth="yes"/>
      <point x="221" y="33"/>
      <point x="160" y="133"/>
      <point x="160" y="262" type="curve" smooth="yes"/>
      <point x="160" y="432"/>
      <point x="270" y="625"/>
      <point x="419" y="625" type="curve" smooth="yes"/>
      <point x="530" y="625"/>
      <point x="591" y="526"/>
      <point x="591" y="397" type="curve" smooth="yes"/>
      <point x="591" y="226"/>
      <point x="481" y="33"/>
    </contour>
    <contour>
      <point x="311" y="0" type="move" name="bottom"/>
    </contour>
    <contour>
      <point x="375" y="329" type="move" name="center"/>
    </contour>
    <contour>
      <point x="416" y="10" type="move" name="ogonek"/>
    </contour>
    <contour>
      <point x="439" y="658" type="move" name="top"/>
    </contour>
    <contour>
      <point x="126" y="658" type="move" name="topleft"/>
    </contour>
    <contour>
      <point x="684" y="658" type="move" name="topright"/>
    </contour>
  </outline>
</glyph>
<glyph name="P" format="1">
  <advance width="534"/>
  <unicode hex="0050"/>
  <note>
    P
  </note>
  <outline>
    <contour>
      <point x="241" y="656" type="curve" smooth="yes"/>
      <point x="207" y="656"/>
      <point x="167" y="657"/>
      <point x="127" y="659" type="curve"/>
      <point x="123" y="655"/>
      <point x="121" y="650"/>
      <point x="120" y="641" type="curve" smooth="yes"/>
      <point x="119" y="633"/>
      <point x="118" y="629"/>
      <point x="121" y="629" type="curve" smooth="yes"/>
      <point x="144" y="629"/>
      <point x="184" y="617"/>
      <point x="186" y="607" type="curve"/>
      <point x="188" y="589"/>
      <point x="184" y="560"/>
      <point x="176" y="521" type="curve" smooth="yes"/>
      <point x="103" y="143" type="line" smooth="yes"/>
      <point x="92" y="88"/>
      <point x="84" y="57"/>
      <point x="78" y="49" type="curve" smooth="yes"/>
      <point x="71" y="40"/>
      <point x="30" y="28"/>
      <point x="5" y="28" type="curve" smooth="yes"/>
      <point x="3" y="28"/>
      <point x="1" y="24"/>
      <point x="-1" y="15" type="curve" smooth="yes"/>
      <point x="-3" y="5"/>
      <point x="-3" y="-1"/>
      <point x="-1" y="-3" type="curve"/>
      <point x="40" y="-1"/>
      <point x="81" y="2"/>
      <point x="117" y="2" type="curve" smooth="yes"/>
      <point x="137" y="2"/>
      <point x="178" y="0"/>
      <point x="245" y="-3" type="curve"/>
      <point x="246" y="1"/>
      <point x="248" y="6"/>
      <point x="249" y="12" type="curve" smooth="yes"/>
      <point x="251" y="21"/>
      <point x="251" y="26"/>
      <point x="248" y="26" type="curve" smooth="yes"/>
      <point x="220" y="26"/>
      <point x="178" y="43"/>
      <point x="175" y="55" type="curve" smooth="yes"/>
      <point x="172" y="68"/>
      <point x="175" y="97"/>
      <point x="184" y="142" type="curve" smooth="yes"/>
      <point x="253" y="499" type="line" smooth="yes"/>
      <point x="262" y="546"/>
      <point x="273" y="597"/>
      <point x="282" y="610" type="curve"/>
      <point x="304" y="615"/>
      <point x="328" y="618"/>
      <point x="348" y="618" type="curve" smooth="yes"/>
      <point x="424" y="618"/>
      <point x="460" y="580"/>
      <point x="460" y="501" type="curve" smooth="yes"/>
      <point x="460" y="414"/>
      <point x="407" y="322"/>
      <point x="306" y="322" type="curve" smooth="yes"/>
      <point x="281" y="322"/>
      <point x="258" y="324"/>
      <point x="239" y="331" type="curve"/>
      <point x="239" y="331"/>
      <point x="236" y="330"/>
      <point x="234" y="318" type="curve" smooth="yes"/>
      <point x="233" y="312"/>
      <point x="233" y="309"/>
      <point x="235" y="305" type="curve" smooth="yes"/>
      <point x="246" y="286"/>
      <point x="270" y="277"/>
      <point x="317" y="277" type="curve" smooth="yes"/>
      <point x="430" y="277"/>
      <point x="546" y="387"/>
      <point x="546" y="499" type="curve" smooth="yes"/>
      <point x="546" y="601"/>
      <point x="478" y="660"/>
      <point x="367" y="660" type="curve" smooth="yes"/>
      <point x="353" y="660"/>
      <point x="280" y="656"/>
    </contour>
    <contour>
      <point x="222" y="0" type="move" name="bottom"/>
    </contour>
    <contour>
      <point x="350" y="658" type="move" name="top"/>
    </contour>
  </outline>
</glyph>
<glyph name="Q" format="1">
  <advance width="706"/>
  <unicode hex="0051"/>
  <note>
    Q
  </note>
  <outline>
    <contour>
      <point x="756" y="-70" type="curve"/>
      <point x="713" y="-103"/>
      <point x="655" y="-127"/>
      <point x="600" y="-127" type="curve" smooth="yes"/>
      <point x="562" y="-127"/>
      <point x="506" y="-118"/>
      <point x="431" y="-86" type="curve" smooth="yes"/>
      <point x="349" y="-51"/>
      <point x="292" y="-31"/>
      <point x="258" y="-31" type="curve"/>
      <point x="260" y="-41" type="line"/>
      <point x="352" y="-26"/>
      <point x="435" y="5"/>
      <point x="505" y="56" type="curve" smooth="yes"/>
      <point x="611" y="133"/>
      <point x="685" y="264"/>
      <point x="685" y="399" type="curve" smooth="yes"/>
      <point x="685" y="552"/>
      <point x="583" y="667"/>
      <point x="439" y="667" type="curve" smooth="yes"/>
      <point x="243" y="667"/>
      <point x="65" y="464"/>
      <point x="65" y="256" type="curve" smooth="yes"/>
      <point x="65" y="105"/>
      <point x="166" y="-10"/>
      <point x="308" y="-10" type="curve"/>
      <point x="311" y="1" type="line"/>
      <point x="153" y="-27" type="line"/>
      <point x="147" y="-30"/>
      <point x="138" y="-46"/>
      <point x="138" y="-52" type="curve"/>
      <point x="194" y="-66"/>
      <point x="249" y="-85"/>
      <point x="302" y="-109" type="curve" smooth="yes"/>
      <point x="357" y="-133"/>
      <point x="405" y="-152"/>
      <point x="446" y="-166" type="curve" smooth="yes"/>
      <point x="485" y="-179"/>
      <point x="525" y="-188"/>
      <point x="568" y="-188" type="curve" smooth="yes"/>
      <point x="633" y="-188"/>
      <point x="710" y="-152"/>
      <point x="777" y="-95" type="curve"/>
      <point x="777" y="-86"/>
      <point x="769" y="-77"/>
    </contour>
    <contour>
      <point x="160" y="262" type="curve" smooth="yes"/>
      <point x="160" y="432"/>
      <point x="270" y="625"/>
      <point x="419" y="625" type="curve" smooth="yes"/>
      <point x="530" y="625"/>
      <point x="591" y="526"/>
      <point x="591" y="397" type="curve" smooth="yes"/>
      <point x="591" y="226"/>
      <point x="481" y="33"/>
      <point x="331" y="33" type="curve" smooth="yes"/>
      <point x="221" y="33"/>
      <point x="160" y="133"/>
    </contour>
  </outline>
</glyph>
<glyph name="R" format="1">
  <advance width="630"/>
  <unicode hex="0052"/>
  <note>
    R
  </note>
  <outline>
    <contour>
      <point x="348" y="618" type="curve" smooth="yes"/>
      <point x="417" y="618"/>
      <point x="463" y="583"/>
      <point x="463" y="507" type="curve" smooth="yes"/>
      <point x="463" y="424"/>
      <point x="397" y="349"/>
      <point x="296" y="349" type="curve" smooth="yes"/>
      <point x="276" y="349" type="line" smooth="yes"/>
      <point x="259" y="349"/>
      <point x="241" y="350"/>
      <point x="225" y="352" type="curve"/>
      <point x="261" y="539" type="line" smooth="yes"/>
      <point x="270" y="586"/>
      <point x="278" y="609"/>
      <point x="284" y="612" type="curve"/>
      <point x="305" y="616"/>
      <point x="318" y="618"/>
    </contour>
    <contour>
      <point x="375" y="660" type="curve" smooth="yes"/>
      <point x="330" y="660"/>
      <point x="262" y="656"/>
      <point x="241" y="656" type="curve" smooth="yes"/>
      <point x="207" y="656"/>
      <point x="167" y="657"/>
      <point x="127" y="658" type="curve"/>
      <point x="124" y="655"/>
      <point x="122" y="650"/>
      <point x="120" y="641" type="curve" smooth="yes"/>
      <point x="118" y="633"/>
      <point x="119" y="629"/>
      <point x="122" y="629" type="curve" smooth="yes"/>
      <point x="139" y="629"/>
      <point x="184" y="618"/>
      <point x="186" y="607" type="curve"/>
      <point x="188" y="589"/>
      <point x="185" y="560"/>
      <point x="177" y="521" type="curve" smooth="yes"/>
      <point x="103" y="143" type="line" smooth="yes"/>
      <point x="92" y="88"/>
      <point x="84" y="57"/>
      <point x="78" y="49" type="curve" smooth="yes"/>
      <point x="69" y="37"/>
      <point x="24" y="28"/>
      <point x="5" y="28" type="curve" smooth="yes"/>
      <point x="3" y="28"/>
      <point x="1" y="24"/>
      <point x="-1" y="15" type="curve" smooth="yes"/>
      <point x="-3" y="5"/>
      <point x="-3" y="-1"/>
      <point x="-1" y="-3" type="curve"/>
      <point x="40" y="0"/>
      <point x="80" y="2"/>
      <point x="116" y="2" type="curve" smooth="yes"/>
      <point x="136" y="2"/>
      <point x="178" y="0"/>
      <point x="245" y="-3" type="curve"/>
      <point x="247" y="1"/>
      <point x="249" y="6"/>
      <point x="250" y="12" type="curve" smooth="yes"/>
      <point x="251" y="21"/>
      <point x="251" y="26"/>
      <point x="248" y="26" type="curve" smooth="yes"/>
      <point x="231" y="26"/>
      <point x="178" y="38"/>
      <point x="175" y="54" type="curve" smooth="yes"/>
      <point x="172" y="68"/>
      <point x="175" y="97"/>
      <point x="184" y="142" type="curve" smooth="yes"/>
      <point x="215" y="304" type="line"/>
      <point x="226" y="305"/>
      <point x="236" y="306"/>
      <point x="246" y="306" type="curve" smooth="yes"/>
      <point x="274" y="306"/>
      <point x="288" y="298"/>
      <point x="299" y="272" type="curve" smooth="yes"/>
      <point x="357" y="139" type="line" smooth="yes"/>
      <point x="400" y="40"/>
      <point x="474" y="-5"/>
      <point x="577" y="-5" type="curve" smooth="yes"/>
      <point x="588" y="-5"/>
      <point x="598" y="-4"/>
      <point x="605" y="-2" type="curve"/>
      <point x="608" y="2"/>
      <point x="610" y="7"/>
      <point x="611" y="13" type="curve" smooth="yes"/>
      <point x="612" y="18"/>
      <point x="612" y="23"/>
      <point x="611" y="27" type="curve"/>
      <point x="571" y="27"/>
      <point x="520" y="57"/>
      <point x="475" y="132" type="curve" smooth="yes"/>
      <point x="447" y="179"/>
      <point x="421" y="253"/>
      <point x="378" y="328" type="curve"/>
      <point x="365" y="311" type="line"/>
      <point x="467" y="339"/>
      <point x="556" y="426"/>
      <point x="556" y="513" type="curve" smooth="yes"/>
      <point x="556" y="613"/>
      <point x="481" y="660"/>
    </contour>
    <contour>
      <point x="273" y="0" type="move" name="bottom"/>
    </contour>
    <contour>
      <point x="401" y="658" type="move" name="top"/>
    </contour>
  </outline>
</glyph>
<glyph name="T" format="1">
  <advance width="621"/>
  <unicode hex="0054"/>
  <note>
    T
  </note>
  <outline>
    <contour>
      <point x="181" y="660" type="curve" smooth="yes"/>
      <point x="164" y="660"/>
      <point x="142" y="664"/>
      <point x="115" y="671" type="curve"/>
      <point x="68" y="528" type="line"/>
      <point x="72" y="523"/>
      <point x="79" y="521"/>
      <point x="90" y="521" type="curve" smooth="yes"/>
      <point x="96" y="521"/>
      <point x="100" y="523"/>
      <point x="101" y="526" type="curve"/>
      <point x="135" y="601"/>
      <point x="155" y="615"/>
      <point x="231" y="615" type="curve" smooth="yes"/>
      <point x="298" y="615"/>
      <point x="333" y="610"/>
      <point x="336" y="600" type="curve" smooth="yes"/>
      <point x="339" y="589"/>
      <point x="336" y="555"/>
      <point x="325" y="497" type="curve" smooth="yes"/>
      <point x="254" y="135" type="line" smooth="yes"/>
      <point x="246" y="94"/>
      <point x="239" y="64"/>
      <point x="230" y="46" type="curve"/>
      <point x="225" y="38"/>
      <point x="183" y="26"/>
      <point x="139" y="26" type="curve" smooth="yes"/>
      <point x="136" y="26"/>
      <point x="135" y="21"/>
      <point x="132" y="12" type="curve" smooth="yes"/>
      <point x="130" y="5"/>
      <point x="131" y="0"/>
      <point x="133" y="-3" type="curve"/>
      <point x="218" y="0"/>
      <point x="257" y="2"/>
      <point x="271" y="2" type="curve" smooth="yes"/>
      <point x="282" y="2"/>
      <point x="317" y="0"/>
      <point x="403" y="-3" type="curve"/>
      <point x="405" y="1"/>
      <point x="407" y="6"/>
      <point x="408" y="11" type="curve" smooth="yes"/>
      <point x="410" y="21"/>
      <point x="410" y="26"/>
      <point x="407" y="26" type="curve" smooth="yes"/>
      <point x="367" y="26"/>
      <point x="328" y="39"/>
      <point x="327" y="46" type="curve" smooth="yes"/>
      <point x="324" y="69"/>
      <point x="328" y="100"/>
      <point x="336" y="139" type="curve" smooth="yes"/>
      <point x="406" y="500" type="line" smooth="yes"/>
      <point x="415" y="545"/>
      <point x="425" y="579"/>
      <point x="435" y="600" type="curve" smooth="yes"/>
      <point x="440" y="610"/>
      <point x="477" y="615"/>
      <point x="548" y="615" type="curve" smooth="yes"/>
      <point x="624" y="615"/>
      <point x="638" y="601"/>
      <point x="642" y="526" type="curve"/>
      <point x="643" y="523"/>
      <point x="645" y="521"/>
      <point x="651" y="521" type="curve" smooth="yes"/>
      <point x="662" y="521"/>
      <point x="671" y="523"/>
      <point x="677" y="528" type="curve"/>
      <point x="686" y="671" type="line"/>
      <point x="655" y="664"/>
      <point x="631" y="660"/>
      <point x="614" y="660" type="curve" smooth="yes"/>
      <point x="554" y="660"/>
      <point x="460" y="656"/>
      <point x="397" y="656" type="curve" smooth="yes"/>
      <point x="334" y="656"/>
      <point x="240" y="660"/>
    </contour>
    <contour>
      <point x="269" y="0" type="move" name="bottom"/>
    </contour>
    <contour>
      <point x="333" y="330" type="move" name="stroke"/>
    </contour>
    <contour>
      <point x="397" y="658" type="move" name="top"/>
    </contour>
  </outline>
</glyph>
<glyph name="U" format="1">
  <advance width="698"/>
  <unicode hex="0055"/>
  <note>
    U
  </note>
  <outline>
    <contour>
      <point x="242" y="657" type="curve" smooth="yes"/>
      <point x="220" y="657"/>
      <point x="183" y="658"/>
      <point x="126" y="662" type="curve"/>
      <point x="123" y="659"/>
      <point x="121" y="654"/>
      <point x="119" y="646" type="curve" smooth="yes"/>
      <point x="117" y="637"/>
      <point x="118" y="633"/>
      <point x="121" y="633" type="curve" smooth="yes"/>
      <point x="144" y="633"/>
      <point x="182" y="620"/>
      <point x="184" y="612" type="curve"/>
      <point x="185" y="594"/>
      <point x="181" y="564"/>
      <point x="173" y="523" type="curve" smooth="yes"/>
      <point x="123" y="266" type="line" smooth="yes"/>
      <point x="90" y="97"/>
      <point x="156" y="0"/>
      <point x="314" y="0" type="curve" smooth="yes"/>
      <point x="456" y="0"/>
      <point x="562" y="94"/>
      <point x="597" y="276" type="curve" smooth="yes"/>
      <point x="644" y="519" type="line" smooth="yes"/>
      <point x="652" y="560"/>
      <point x="661" y="591"/>
      <point x="670" y="612" type="curve" smooth="yes"/>
      <point x="673" y="619"/>
      <point x="731" y="635"/>
      <point x="753" y="635" type="curve" smooth="yes"/>
      <point x="756" y="635"/>
      <point x="758" y="639"/>
      <point x="759" y="647" type="curve" smooth="yes"/>
      <point x="760" y="653"/>
      <point x="761" y="658"/>
      <point x="760" y="662" type="curve"/>
      <point x="729" y="660"/>
      <point x="668" y="656"/>
      <point x="647" y="656" type="curve" smooth="yes"/>
      <point x="629" y="656"/>
      <point x="584" y="658"/>
      <point x="530" y="662" type="curve"/>
      <point x="527" y="659"/>
      <point x="525" y="654"/>
      <point x="523" y="647" type="curve" smooth="yes"/>
      <point x="521" y="639"/>
      <point x="522" y="635"/>
      <point x="525" y="635" type="curve" smooth="yes"/>
      <point x="550" y="635"/>
      <point x="598" y="620"/>
      <point x="600" y="612" type="curve"/>
      <point x="601" y="594"/>
      <point x="598" y="565"/>
      <point x="590" y="524" type="curve" smooth="yes"/>
      <point x="543" y="284" type="line" smooth="yes"/>
      <point x="512" y="124"/>
      <point x="441" y="53"/>
      <point x="337" y="53" type="curve" smooth="yes"/>
      <point x="232" y="53"/>
      <point x="175" y="112"/>
      <point x="205" y="266" type="curve" smooth="yes"/>
      <point x="254" y="519" type="line" smooth="yes"/>
      <point x="262" y="558"/>
      <point x="271" y="589"/>
      <point x="281" y="612" type="curve" smooth="yes"/>
      <point x="284" y="619"/>
      <point x="329" y="633"/>
      <point x="339" y="633" type="curve" smooth="yes"/>
      <point x="342" y="633"/>
      <point x="344" y="638"/>
      <point x="346" y="648" type="curve" smooth="yes"/>
      <point x="347" y="653"/>
      <point x="347" y="658"/>
      <point x="346" y="662" type="curve"/>
      <point x="289" y="659"/>
      <point x="253" y="657"/>
    </contour>
    <contour>
      <point x="305" y="0" type="move" name="bottom"/>
    </contour>
    <contour>
      <point x="427" y="10" type="move" name="ogonek"/>
    </contour>
    <contour>
      <point x="433" y="658" type="move" name="top"/>
    </contour>
    <contour>
      <point x="772" y="658" type="move" name="topright"/>
    </contour>
  </outline>
</glyph>
<glyph name="V" format="1">
  <advance width="662"/>
  <unicode hex="0056"/>
  <note>
    V
  </note>
  <outline>
    <contour>
      <point x="281" y="-9" type="curve" smooth="yes"/>
      <point x="293" y="-9"/>
      <point x="303" y="-2"/>
      <point x="311" y="12" type="curve" smooth="yes"/>
      <point x="601" y="502" type="line" smooth="yes"/>
      <point x="625" y="543"/>
      <point x="647" y="577"/>
      <point x="670" y="605" type="curve" smooth="yes"/>
      <point x="685" y="624"/>
      <point x="706" y="633"/>
      <point x="736" y="633" type="curve" smooth="yes"/>
      <point x="739" y="633"/>
      <point x="741" y="638"/>
      <point x="742" y="647" type="curve"/>
      <point x="743" y="653"/>
      <point x="743" y="658"/>
      <point x="743" y="662" type="curve"/>
      <point x="706" y="660"/>
      <point x="665" y="657"/>
      <point x="641" y="657" type="curve" smooth="yes"/>
      <point x="632" y="657"/>
      <point x="594" y="659"/>
      <point x="532" y="662" type="curve"/>
      <point x="529" y="659"/>
      <point x="527" y="654"/>
      <point x="525" y="646" type="curve" smooth="yes"/>
      <point x="523" y="637"/>
      <point x="524" y="633"/>
      <point x="527" y="633" type="curve" smooth="yes"/>
      <point x="546" y="633"/>
      <point x="590" y="623"/>
      <point x="590" y="599" type="curve" smooth="yes"/>
      <point x="590" y="585"/>
      <point x="577" y="561"/>
      <point x="556" y="524" type="curve" smooth="yes"/>
      <point x="320" y="119" type="line"/>
      <point x="334" y="119" type="line"/>
      <point x="262" y="517" type="line" smooth="yes"/>
      <point x="254" y="560"/>
      <point x="252" y="590"/>
      <point x="252" y="598" type="curve" smooth="yes"/>
      <point x="252" y="623"/>
      <point x="304" y="633"/>
      <point x="319" y="633" type="curve" smooth="yes"/>
      <point x="321" y="633"/>
      <point x="324" y="642"/>
      <point x="326" y="649" type="curve"/>
      <point x="328" y="655"/>
      <point x="327" y="660"/>
      <point x="326" y="662" type="curve"/>
      <point x="259" y="659"/>
      <point x="223" y="657"/>
      <point x="207" y="657" type="curve" smooth="yes"/>
      <point x="185" y="657"/>
      <point x="111" y="661"/>
      <point x="93" y="662" type="curve"/>
      <point x="90" y="659"/>
      <point x="88" y="654"/>
      <point x="86" y="646" type="curve" smooth="yes"/>
      <point x="84" y="637"/>
      <point x="85" y="633"/>
      <point x="88" y="633" type="curve" smooth="yes"/>
      <point x="105" y="633"/>
      <point x="141" y="625"/>
      <point x="147" y="610" type="curve" smooth="yes"/>
      <point x="155" y="590"/>
      <point x="165" y="558"/>
      <point x="173" y="514" type="curve" smooth="yes"/>
      <point x="267" y="2" type="line"/>
      <point x="268" y="-2"/>
      <point x="273" y="-9"/>
    </contour>
    <contour>
      <point x="289" y="0" type="move" name="bottom"/>
    </contour>
    <contour>
      <point x="417" y="658" type="move" name="top"/>
    </contour>
  </outline>
</glyph>
<glyph name="X" format="1">
  <advance width="664"/>
  <unicode hex="0058"/>
  <note>
    X
  </note>
  <outline>
    <contour>
      <point x="-43" y="-3" type="curve"/>
      <point x="25" y="0"/>
      <point x="66" y="2"/>
      <point x="81" y="2" type="curve" smooth="yes"/>
      <point x="94" y="2"/>
      <point x="135" y="0"/>
      <point x="196" y="-3" type="curve"/>
      <point x="200" y="1"/>
      <point x="202" y="15"/>
      <point x="202" y="21" type="curve" smooth="yes"/>
      <point x="202" y="24"/>
      <point x="202" y="26"/>
      <point x="200" y="26" type="curve" smooth="yes"/>
      <point x="164" y="26"/>
      <point x="137" y="39"/>
      <point x="137" y="53" type="curve" smooth="yes"/>
      <point x="137" y="57"/>
      <point x="143" y="72"/>
      <point x="172" y="102" type="curve" smooth="yes"/>
      <point x="348" y="289" type="line"/>
      <point x="451" y="66" type="line" smooth="yes"/>
      <point x="453" y="62"/>
      <point x="453" y="59"/>
      <point x="453" y="57" type="curve" smooth="yes"/>
      <point x="453" y="38"/>
      <point x="410" y="26"/>
      <point x="390" y="26" type="curve" smooth="yes"/>
      <point x="387" y="26"/>
      <point x="386" y="22"/>
      <point x="384" y="14" type="curve" smooth="yes"/>
      <point x="383" y="9"/>
      <point x="383" y="-2"/>
      <point x="384" y="-3" type="curve"/>
      <point x="478" y="0"/>
      <point x="521" y="2"/>
      <point x="525" y="2" type="curve" smooth="yes"/>
      <point x="528" y="2"/>
      <point x="563" y="0"/>
      <point x="629" y="-3" type="curve"/>
      <point x="632" y="2"/>
      <point x="635" y="13"/>
      <point x="635" y="19" type="curve" smooth="yes"/>
      <point x="635" y="24"/>
      <point x="634" y="26"/>
      <point x="632" y="26" type="curve" smooth="yes"/>
      <point x="595" y="26"/>
      <point x="554" y="39"/>
      <point x="542" y="66" type="curve" smooth="yes"/>
      <point x="409" y="354" type="line"/>
      <point x="645" y="604" type="line" smooth="yes"/>
      <point x="662" y="622"/>
      <point x="728" y="633"/>
      <point x="747" y="633" type="curve" smooth="yes"/>
      <point x="749" y="633"/>
      <point x="753" y="642"/>
      <point x="754" y="649" type="curve" smooth="yes"/>
      <point x="755" y="655"/>
      <point x="755" y="660"/>
      <point x="755" y="662" type="curve"/>
      <point x="687" y="659"/>
      <point x="650" y="657"/>
      <point x="642" y="657" type="curve" smooth="yes"/>
      <point x="619" y="657"/>
      <point x="574" y="659"/>
      <point x="513" y="662" type="curve"/>
      <point x="507" y="658"/>
      <point x="505" y="644"/>
      <point x="505" y="636" type="curve" smooth="yes"/>
      <point x="505" y="634"/>
      <point x="506" y="633"/>
      <point x="507" y="633" type="curve" smooth="yes"/>
      <point x="544" y="633"/>
      <point x="571" y="619"/>
      <point x="571" y="604" type="curve" smooth="yes"/>
      <point x="571" y="593"/>
      <point x="537" y="550"/>
      <point x="519" y="532" type="curve" smooth="yes"/>
      <point x="389" y="396" type="line"/>
      <point x="308" y="571" type="line" smooth="yes"/>
      <point x="304" y="580"/>
      <point x="301" y="588"/>
      <point x="301" y="595" type="curve" smooth="yes"/>
      <point x="301" y="619"/>
      <point x="336" y="633"/>
      <point x="368" y="633" type="curve" smooth="yes"/>
      <point x="370" y="633"/>
      <point x="374" y="642"/>
      <point x="375" y="649" type="curve" smooth="yes"/>
      <point x="376" y="655"/>
      <point x="376" y="660"/>
      <point x="376" y="662" type="curve"/>
      <point x="308" y="659"/>
      <point x="272" y="657"/>
      <point x="253" y="657" type="curve" smooth="yes"/>
      <point x="252" y="657"/>
      <point x="210" y="659"/>
      <point x="129" y="662" type="curve"/>
      <point x="124" y="658"/>
      <point x="121" y="645"/>
      <point x="121" y="637" type="curve" smooth="yes"/>
      <point x="121" y="634"/>
      <point x="121" y="633"/>
      <point x="123" y="633" type="curve" smooth="yes"/>
      <point x="142" y="633"/>
      <point x="160" y="628"/>
      <point x="176" y="617" type="curve" smooth="yes"/>
      <point x="196" y="603"/>
      <point x="213" y="581"/>
      <point x="228" y="548" type="curve" smooth="yes"/>
      <point x="327" y="334" type="line"/>
      <point x="58" y="54" type="line"/>
      <point x="33" y="33"/>
      <point x="-19" y="26"/>
      <point x="-35" y="26" type="curve" smooth="yes"/>
      <point x="-38" y="26"/>
      <point x="-40" y="21"/>
      <point x="-42" y="10" type="curve" smooth="yes"/>
      <point x="-43" y="5"/>
      <point x="-43" y="1"/>
    </contour>
    <contour>
      <point x="293" y="0" type="move" name="bottom"/>
    </contour>
    <contour>
      <point x="421" y="658" type="move" name="top"/>
    </contour>
  </outline>
</glyph>
<glyph name="Z" format="1">
  <advance width="607"/>
  <unicode hex="005A"/>
  <note>
    Z
  </note>
  <outline>
    <contour>
      <point x="303" y="656" type="line" smooth="yes"/>
      <point x="280" y="656"/>
      <point x="165" y="661"/>
      <point x="153" y="665" type="curve"/>
      <point x="142" y="630"/>
      <point x="119" y="572"/>
      <point x="85" y="489" type="curve"/>
      <point x="90" y="483"/>
      <point x="101" y="480"/>
      <point x="116" y="480" type="curve" smooth="yes"/>
      <point x="122" y="480"/>
      <point x="125" y="481"/>
      <point x="126" y="484" type="curve" smooth="yes"/>
      <point x="169" y="576"/>
      <point x="204" y="607"/>
      <point x="292" y="607" type="curve" smooth="yes"/>
      <point x="549" y="607" type="line"/>
      <point x="533" y="645" type="line"/>
      <point x="12" y="43" type="line"/>
      <point x="8" y="40"/>
      <point x="6" y="34"/>
      <point x="4" y="26" type="curve" smooth="yes"/>
      <point x="2" y="15"/>
      <point x="3" y="6"/>
      <point x="7" y="0" type="curve"/>
      <point x="503" y="0" type="line"/>
      <point x="519" y="41"/>
      <point x="545" y="97"/>
      <point x="580" y="166" type="curve"/>
      <point x="575" y="172"/>
      <point x="567" y="175"/>
      <point x="557" y="175" type="curve" smooth="yes"/>
      <point x="549" y="175"/>
      <point x="544" y="174"/>
      <point x="543" y="172" type="curve"/>
      <point x="494" y="84"/>
      <point x="446" y="50"/>
      <point x="373" y="50" type="curve" smooth="yes"/>
      <point x="107" y="50" type="line"/>
      <point x="114" y="36" type="line"/>
      <point x="627" y="633" type="line"/>
      <point x="629" y="644"/>
      <point x="628" y="665"/>
      <point x="624" y="666" type="curve"/>
      <point x="529" y="659"/>
      <point x="459" y="656"/>
      <point x="412" y="656" type="curve" smooth="yes"/>
    </contour>
    <contour>
      <point x="261" y="0" type="move" name="bottom"/>
    </contour>
    <contour>
      <point x="325" y="329" type="move" name="center"/>
    </contour>
    <contour>
      <point x="389" y="658" type="move" name="top"/>
    </contour>
  </outline>
</glyph>
<glyph name="bracketleft" format="1">
  <advance width="357"/>
  <unicode hex="005B"/>
  <note>
    bracketleft
  </note>
  <outline>
    <contour>
      <point x="121" y="-59" type="curve"/>
      <point x="267" y="695" type="line"/>
      <point x="306" y="695"/>
      <point x="363" y="702"/>
      <point x="389" y="708" type="curve"/>
      <point x="393" y="712"/>
      <point x="399" y="722"/>
      <point x="401" y="734" type="curve" smooth="yes"/>
      <point x="403" y="743"/>
      <point x="401" y="747"/>
      <point x="398" y="749" type="curve"/>
      <point x="354" y="744"/>
      <point x="283" y="740"/>
      <point x="236" y="740" type="curve" smooth="yes"/>
      <point x="223" y="740"/>
      <point x="216" y="732"/>
      <point x="213" y="717" type="curve" smooth="yes"/>
      <point x="57" y="-81" type="line" smooth="yes"/>
      <point x="55" y="-96"/>
      <point x="59" y="-104"/>
      <point x="72" y="-104" type="curve" smooth="yes"/>
      <point x="119" y="-104"/>
      <point x="188" y="-108"/>
      <point x="230" y="-113" type="curve"/>
      <point x="235" y="-111"/>
      <point x="237" y="-107"/>
      <point x="239" y="-98" type="curve" smooth="yes"/>
      <point x="242" y="-86"/>
      <point x="239" y="-76"/>
      <point x="237" y="-72" type="curve"/>
      <point x="213" y="-66"/>
      <point x="160" y="-59"/>
    </contour>
  </outline>
</glyph>
<glyph name="backslash" format="1">
  <advance width="424"/>
  <unicode hex="005C"/>
  <note>
    backslash
  </note>
  <outline>
    <contour>
      <point x="134" y="755" type="line"/>
      <point x="284" y="-28" type="line"/>
      <point x="348" y="-28" type="line"/>
      <point x="198" y="755" type="line"/>
    </contour>
  </outline>
</glyph>
<glyph name="bracketright" format="1">
  <advance width="357"/>
  <unicode hex="005D"/>
  <note>
    bracketright
  </note>
  <outline>
    <contour>
      <point x="130" y="-59" type="line"/>
      <point x="91" y="-59"/>
      <point x="34" y="-66"/>
      <point x="8" y="-72" type="curve"/>
      <point x="4" y="-76"/>
      <point x="-1" y="-86"/>
      <point x="-4" y="-98" type="curve" smooth="yes"/>
      <point x="-6" y="-107"/>
      <point x="-4" y="-111"/>
      <point x="-1" y="-113" type="curve"/>
      <point x="43" y="-108"/>
      <point x="114" y="-104"/>
      <point x="161" y="-104" type="curve" smooth="yes"/>
      <point x="174" y="-104"/>
      <point x="182" y="-96"/>
      <point x="184" y="-81" type="curve" smooth="yes"/>
      <point x="340" y="717" type="line" smooth="yes"/>
      <point x="343" y="732"/>
      <point x="338" y="740"/>
      <point x="325" y="740" type="curve" smooth="yes"/>
      <point x="278" y="740"/>
      <point x="209" y="744"/>
      <point x="167" y="749" type="curve"/>
      <point x="162" y="747"/>
      <point x="160" y="743"/>
      <point x="158" y="734" type="curve" smooth="yes"/>
      <point x="156" y="722"/>
      <point x="158" y="712"/>
      <point x="160" y="708" type="curve"/>
      <point x="184" y="702"/>
      <point x="237" y="695"/>
      <point x="276" y="695" type="curve"/>
    </contour>
  </outline>
</glyph>
<glyph name="asciicircum" format="1">
  <advance width="544"/>
  <unicode hex="005E"/>
  <note>
    asciicircum
  </note>
  <outline>
    <contour>
      <point x="480" y="146" type="line"/>
      <point x="358" y="531" type="line"/>
      <point x="306" y="531" type="line"/>
      <point x="36" y="146" type="line"/>
      <point x="82" y="121" type="line"/>
      <point x="346" y="498" type="line"/>
      <point x="306" y="498" type="line"/>
      <point x="424" y="121" type="line"/>
    </contour>
  </outline>
</glyph>
<glyph name="underscore" format="1">
  <advance width="500"/>
  <unicode hex="005F"/>
  <note>
    underscore
  </note>
  <outline>
    <contour>
      <point x="422" y="0" type="curve"/>
      <point x="-7" y="0" type="line" smooth="yes"/>
      <point x="-16" y="0"/>
      <point x="-21" y="-32"/>
      <point x="-21" y="-45" type="curve" smooth="yes"/>
      <point x="-21" y="-53"/>
      <point x="-20" y="-59"/>
      <point x="-18" y="-62" type="curve"/>
      <point x="411" y="-62" type="line" smooth="yes"/>
      <point x="420" y="-62"/>
      <point x="425" y="-30"/>
      <point x="425" y="-18" type="curve" smooth="yes"/>
      <point x="425" y="-9"/>
      <point x="424" y="-3"/>
    </contour>
  </outline>
</glyph>
<glyph name="a" format="1">
  <advance width="442"/>
  <unicode hex="0061"/>
  <note>
    a
  </note>
  <outline>
    <contour>
      <point x="311" y="435" type="curve" smooth="yes"/>
      <point x="173" y="435"/>
      <point x="27" y="283"/>
      <point x="27" y="120" type="curve" smooth="yes"/>
      <point x="27" y="51"/>
      <point x="66" y="-5"/>
      <point x="122" y="-5" type="curve" smooth="yes"/>
      <point x="161" y="-5"/>
      <point x="208" y="29"/>
      <point x="263" y="125" type="curve"/>
      <point x="256" y="93"/>
      <point x="251" y="58"/>
      <point x="251" y="46" type="curve" smooth="yes"/>
      <point x="251" y="15"/>
      <point x="265" y="-6"/>
      <point x="287" y="-6" type="curve" smooth="yes"/>
      <point x="318" y="-6"/>
      <point x="387" y="46"/>
      <point x="411" y="88" type="curve"/>
      <point x="411" y="93"/>
      <point x="401" y="111"/>
      <point x="398" y="111" type="curve"/>
      <point x="361" y="70"/>
      <point x="344" y="56"/>
      <point x="332" y="56" type="curve" smooth="yes"/>
      <point x="325" y="56"/>
      <point x="322" y="63"/>
      <point x="322" y="77" type="curve" smooth="yes"/>
      <point x="322" y="86"/>
      <point x="321" y="83"/>
      <point x="327" y="116" type="curve" smooth="yes"/>
      <point x="387" y="424" type="line"/>
      <point x="366" y="431"/>
      <point x="340" y="435"/>
    </contour>
    <contour>
      <point x="270" y="389" type="curve" smooth="yes"/>
      <point x="282" y="389"/>
      <point x="300" y="386"/>
      <point x="312" y="379" type="curve"/>
      <point x="292" y="274" type="line" smooth="yes"/>
      <point x="271" y="168"/>
      <point x="198" y="53"/>
      <point x="152" y="53" type="curve" smooth="yes"/>
      <point x="120" y="53"/>
      <point x="101" y="86"/>
      <point x="101" y="141" type="curve" smooth="yes"/>
      <point x="101" y="275"/>
      <point x="190" y="389"/>
    </contour>
    <contour>
      <point x="175" y="0" type="move" name="bottom"/>
    </contour>
    <contour>
      <point x="353" y="10" type="move" name="ogonek"/>
    </contour>
    <contour>
      <point x="259" y="431" type="move" name="top"/>
    </contour>
  </outline>
</glyph>
<glyph name="b" format="1">
  <advance width="429"/>
  <unicode hex="0062"/>
  <note>
    b
  </note>
  <outline>
    <contour>
      <point x="303" y="434" type="curve" smooth="yes"/>
      <point x="258" y="434"/>
      <point x="203" y="389"/>
      <point x="156" y="303" type="curve"/>
      <point x="215" y="591" type="line" smooth="yes"/>
      <point x="224" y="633"/>
      <point x="228" y="658"/>
      <point x="228" y="666" type="curve" smooth="yes"/>
      <point x="228" y="677"/>
      <point x="226" y="683"/>
      <point x="222" y="685" type="curve"/>
      <point x="181" y="670"/>
      <point x="139" y="661"/>
      <point x="96" y="657" type="curve"/>
      <point x="91" y="652"/>
      <point x="88" y="645"/>
      <point x="88" y="637" type="curve" smooth="yes"/>
      <point x="88" y="633"/>
      <point x="89" y="631"/>
      <point x="91" y="631" type="curve" smooth="yes"/>
      <point x="132" y="631"/>
      <point x="152" y="625"/>
      <point x="152" y="612" type="curve" smooth="yes"/>
      <point x="152" y="607"/>
      <point x="148" y="587"/>
      <point x="143" y="559" type="curve" smooth="yes"/>
      <point x="65" y="157" type="line" smooth="yes"/>
      <point x="44" y="49"/>
      <point x="84" y="-6"/>
      <point x="166" y="-6" type="curve" smooth="yes"/>
      <point x="277" y="-6"/>
      <point x="398" y="152"/>
      <point x="398" y="309" type="curve" smooth="yes"/>
      <point x="398" y="380"/>
      <point x="359" y="434"/>
    </contour>
    <contour>
      <point x="273" y="376" type="curve" smooth="yes"/>
      <point x="302" y="376"/>
      <point x="324" y="343"/>
      <point x="324" y="288" type="curve" smooth="yes"/>
      <point x="324" y="157"/>
      <point x="255" y="35"/>
      <point x="180" y="35" type="curve" smooth="yes"/>
      <point x="145" y="35"/>
      <point x="125" y="62"/>
      <point x="125" y="108" type="curve" smooth="yes"/>
      <point x="125" y="208"/>
      <point x="214" y="376"/>
    </contour>
    <contour>
      <point x="173" y="0" type="move" name="bottom"/>
    </contour>
    <contour>
      <point x="301" y="658" type="move" name="top"/>
    </contour>
  </outline>
</glyph>
<glyph name="c" format="1">
  <advance width="326"/>
  <unicode hex="0063"/>
  <note>
    c
  </note>
  <outline>
    <contour>
      <point x="265" y="435" type="curve" smooth="yes"/>
      <point x="140" y="435"/>
      <point x="34" y="266"/>
      <point x="34" y="145" type="curve" smooth="yes"/>
      <point x="34" y="48"/>
      <point x="78" y="-5"/>
      <point x="141" y="-5" type="curve" smooth="yes"/>
      <point x="196" y="-5"/>
      <point x="248" y="42"/>
      <point x="280" y="88" type="curve"/>
      <point x="280" y="93"/>
      <point x="270" y="111"/>
      <point x="267" y="111" type="curve"/>
      <point x="226" y="70"/>
      <point x="203" y="56"/>
      <point x="174" y="56" type="curve" smooth="yes"/>
      <point x="131" y="56"/>
      <point x="110" y="91"/>
      <point x="110" y="158" type="curve" smooth="yes"/>
      <point x="110" y="273"/>
      <point x="175" y="394"/>
      <point x="237" y="394" type="curve" smooth="yes"/>
      <point x="285" y="394"/>
      <point x="273" y="338"/>
      <point x="314" y="338" type="curve" smooth="yes"/>
      <point x="333" y="338"/>
      <point x="346" y="352"/>
      <point x="346" y="374" type="curve" smooth="yes"/>
      <point x="346" y="417"/>
      <point x="301" y="435"/>
    </contour>
    <contour>
      <point x="121" y="0" type="move" name="bottom"/>
    </contour>
    <contour>
      <point x="235" y="431" type="move" name="top"/>
    </contour>
  </outline>
</glyph>
<glyph name="d" format="1">
  <advance width="442"/>
  <unicode hex="0064"/>
  <note>
    d
  </note>
  <outline>
    <contour>
      <point x="122" y="-5" type="curve" smooth="yes"/>
      <point x="161" y="-5"/>
      <point x="208" y="29"/>
      <point x="264" y="126" type="curve"/>
      <point x="256" y="93"/>
      <point x="251" y="58"/>
      <point x="251" y="46" type="curve" smooth="yes"/>
      <point x="251" y="15"/>
      <point x="265" y="-6"/>
      <point x="287" y="-6" type="curve" smooth="yes"/>
      <point x="318" y="-6"/>
      <point x="387" y="46"/>
      <point x="411" y="88" type="curve"/>
      <point x="411" y="93"/>
      <point x="401" y="111"/>
      <point x="398" y="111" type="curve"/>
      <point x="361" y="70"/>
      <point x="344" y="56"/>
      <point x="332" y="56" type="curve" smooth="yes"/>
      <point x="325" y="56"/>
      <point x="322" y="64"/>
      <point x="322" y="81" type="curve" smooth="yes"/>
      <point x="322" y="90"/>
      <point x="325" y="108"/>
      <point x="327" y="116" type="curve" smooth="yes"/>
      <point x="418" y="591" type="line" smooth="yes"/>
      <point x="423" y="616"/>
      <point x="434" y="662"/>
      <point x="434" y="670" type="curve" smooth="yes"/>
      <point x="434" y="678"/>
      <point x="432" y="682"/>
      <point x="428" y="685" type="curve"/>
      <point x="388" y="670"/>
      <point x="345" y="661"/>
      <point x="299" y="657" type="curve"/>
      <point x="294" y="652"/>
      <point x="291" y="645"/>
      <point x="291" y="637" type="curve" smooth="yes"/>
      <point x="291" y="633"/>
      <point x="292" y="631"/>
      <point x="294" y="631" type="curve" smooth="yes"/>
      <point x="335" y="631"/>
      <point x="355" y="625"/>
      <point x="355" y="612" type="curve" smooth="yes"/>
      <point x="355" y="603"/>
      <point x="354" y="593"/>
      <point x="352" y="584" type="curve" smooth="yes"/>
      <point x="320" y="412" type="line"/>
      <point x="342" y="433" type="line"/>
      <point x="335" y="434"/>
      <point x="320" y="435"/>
      <point x="311" y="435" type="curve" smooth="yes"/>
      <point x="173" y="435"/>
      <point x="27" y="283"/>
      <point x="27" y="120" type="curve" smooth="yes"/>
      <point x="27" y="51"/>
      <point x="66" y="-5"/>
    </contour>
    <contour>
      <point x="152" y="53" type="curve" smooth="yes"/>
      <point x="120" y="53"/>
      <point x="101" y="86"/>
      <point x="101" y="141" type="curve" smooth="yes"/>
      <point x="101" y="275"/>
      <point x="190" y="389"/>
      <point x="270" y="389" type="curve" smooth="yes"/>
      <point x="298" y="389"/>
      <point x="312" y="376"/>
      <point x="307" y="351" type="curve" smooth="yes"/>
      <point x="292" y="274" type="line" smooth="yes"/>
      <point x="271" y="168"/>
      <point x="198" y="53"/>
    </contour>
    <contour>
      <point x="175" y="0" type="move" name="bottom"/>
    </contour>
    <contour>
      <point x="217" y="216" type="move" name="center"/>
    </contour>
    <contour>
      <point x="341" y="529" type="move" name="stroke"/>
    </contour>
    <contour>
      <point x="303" y="658" type="move" name="top"/>
    </contour>
    <contour>
      <point x="418" y="431" type="move" name="topright"/>
    </contour>
  </outline>
</glyph>
<glyph name="e" format="1">
  <advance width="359"/>
  <unicode hex="0065"/>
  <note>
    e
  </note>
  <outline>
    <contour>
      <point x="141" y="-5" type="curve" smooth="yes"/>
      <point x="201" y="-5"/>
      <point x="254" y="42"/>
      <point x="284" y="88" type="curve"/>
      <point x="284" y="93"/>
      <point x="275" y="111"/>
      <point x="272" y="111" type="curve"/>
      <point x="230" y="69"/>
      <point x="208" y="56"/>
      <point x="176" y="56" type="curve" smooth="yes"/>
      <point x="131" y="56"/>
      <point x="110" y="91"/>
      <point x="110" y="158" type="curve" smooth="yes"/>
      <point x="110" y="273"/>
      <point x="174" y="394"/>
      <point x="240" y="394" type="curve" smooth="yes"/>
      <point x="260" y="394"/>
      <point x="271" y="384"/>
      <point x="271" y="364" type="curve" smooth="yes"/>
      <point x="271" y="295"/>
      <point x="178" y="225"/>
      <point x="110" y="212" type="curve"/>
      <point x="103" y="176" type="line"/>
      <point x="200" y="192"/>
      <point x="344" y="271"/>
      <point x="344" y="360" type="curve" smooth="yes"/>
      <point x="344" y="400"/>
      <point x="318" y="435"/>
      <point x="264" y="435" type="curve" smooth="yes"/>
      <point x="140" y="435"/>
      <point x="34" y="266"/>
      <point x="34" y="145" type="curve" smooth="yes"/>
      <point x="34" y="48"/>
      <point x="78" y="-5"/>
    </contour>
    <contour>
      <point x="138" y="0" type="move" name="bottom"/>
    </contour>
    <contour>
      <point x="207" y="10" type="move" name="ogonek"/>
    </contour>
    <contour>
      <point x="222" y="431" type="move" name="top"/>
    </contour>
  </outline>
</glyph>
<glyph name="f" format="1">
  <advance width="294"/>
  <unicode hex="0066"/>
  <note>
    f
  </note>
  <outline>
    <contour>
      <point x="-98" y="-231" type="curve" smooth="yes"/>
      <point x="2" y="-231"/>
      <point x="86" y="-120"/>
      <point x="118" y="54" type="curve" smooth="yes"/>
      <point x="189" y="443" type="line" smooth="yes"/>
      <point x="212" y="573"/>
      <point x="260" y="661"/>
      <point x="308" y="661" type="curve" smooth="yes"/>
      <point x="341" y="661"/>
      <point x="358" y="600"/>
      <point x="390" y="600" type="curve" smooth="yes"/>
      <point x="411" y="600"/>
      <point x="426" y="618"/>
      <point x="426" y="643" type="curve" smooth="yes"/>
      <point x="426" y="678"/>
      <point x="395" y="699"/>
      <point x="344" y="699" type="curve" smooth="yes"/>
      <point x="244" y="699"/>
      <point x="145" y="584"/>
      <point x="118" y="436" type="curve" smooth="yes"/>
      <point x="48" y="45" type="line" smooth="yes"/>
      <point x="23" y="-95"/>
      <point x="-23" y="-192"/>
      <point x="-64" y="-192" type="curve" smooth="yes"/>
      <point x="-101" y="-192"/>
      <point x="-110" y="-131"/>
      <point x="-141" y="-131" type="curve" smooth="yes"/>
      <point x="-162" y="-131"/>
      <point x="-180" y="-153"/>
      <point x="-179" y="-179" type="curve" smooth="yes"/>
      <point x="-179" y="-207"/>
      <point x="-142" y="-231"/>
    </contour>
    <contour>
      <point x="35" y="361" type="curve" smooth="yes"/>
      <point x="296" y="361" type="line"/>
      <point x="304" y="375"/>
      <point x="307" y="386"/>
      <point x="307" y="395" type="curve" smooth="yes"/>
      <point x="307" y="403"/>
      <point x="305" y="407"/>
      <point x="302" y="407" type="curve" smooth="yes"/>
      <point x="81" y="407" type="line" smooth="yes"/>
      <point x="64" y="407"/>
      <point x="33" y="379"/>
      <point x="33" y="364" type="curve" smooth="yes"/>
      <point x="33" y="362"/>
      <point x="34" y="361"/>
    </contour>
    <contour>
      <point x="110" y="0" type="move" name="bottom"/>
    </contour>
    <contour>
      <point x="238" y="658" type="move" name="top"/>
    </contour>
  </outline>
</glyph>
<glyph name="g" format="1">
  <advance width="438"/>
  <unicode hex="0067"/>
  <note>
    g
  </note>
  <outline>
    <contour>
      <point x="149" y="-233" type="curve" smooth="yes"/>
      <point x="262" y="-233"/>
      <point x="363" y="-173"/>
      <point x="363" y="-68" type="curve" smooth="yes"/>
      <point x="363" y="-20"/>
      <point x="316" y="14"/>
      <point x="249" y="38" type="curve" smooth="yes"/>
      <point x="184" y="61"/>
      <point x="172" y="68"/>
      <point x="172" y="77" type="curve" smooth="yes"/>
      <point x="172" y="90"/>
      <point x="193" y="105"/>
      <point x="258" y="135" type="curve" smooth="yes"/>
      <point x="328" y="168"/>
      <point x="368" y="233"/>
      <point x="368" y="312" type="curve" smooth="yes"/>
      <point x="368" y="329"/>
      <point x="364" y="354"/>
      <point x="353" y="378" type="curve"/>
      <point x="348" y="370" type="line"/>
      <point x="424" y="370" type="line"/>
      <point x="429" y="375"/>
      <point x="435" y="392"/>
      <point x="435" y="401" type="curve" smooth="yes"/>
      <point x="435" y="406"/>
      <point x="433" y="409"/>
      <point x="429" y="409" type="curve" smooth="yes"/>
      <point x="386" y="409" type="line" smooth="yes"/>
      <point x="330" y="409"/>
      <point x="304" y="436"/>
      <point x="250" y="436" type="curve" smooth="yes"/>
      <point x="150" y="436"/>
      <point x="61" y="339"/>
      <point x="61" y="241" type="curve" smooth="yes"/>
      <point x="61" y="176"/>
      <point x="117" y="122"/>
      <point x="174" y="122" type="curve"/>
      <point x="121" y="107"/>
      <point x="74" y="74"/>
      <point x="74" y="54" type="curve" smooth="yes"/>
      <point x="74" y="36"/>
      <point x="83" y="23"/>
      <point x="119" y="6" type="curve"/>
      <point x="12" y="-39"/>
      <point x="-27" y="-85"/>
      <point x="-27" y="-135" type="curve" smooth="yes"/>
      <point x="-27" y="-194"/>
      <point x="35" y="-233"/>
    </contour>
    <contour>
      <point x="168" y="-190" type="curve" smooth="yes"/>
      <point x="91" y="-190"/>
      <point x="47" y="-163"/>
      <point x="47" y="-110" type="curve" smooth="yes"/>
      <point x="47" y="-70"/>
      <point x="76" y="-42"/>
      <point x="159" y="-8" type="curve"/>
      <point x="263" y="-41"/>
      <point x="299" y="-72"/>
      <point x="299" y="-106" type="curve" smooth="yes"/>
      <point x="299" y="-153"/>
      <point x="245" y="-190"/>
    </contour>
    <contour>
      <point x="197" y="156" type="curve" smooth="yes"/>
      <point x="160" y="156"/>
      <point x="136" y="192"/>
      <point x="136" y="247" type="curve" smooth="yes"/>
      <point x="136" y="328"/>
      <point x="181" y="398"/>
      <point x="234" y="398" type="curve" smooth="yes"/>
      <point x="268" y="398"/>
      <point x="294" y="353"/>
      <point x="294" y="294" type="curve" smooth="yes"/>
      <point x="294" y="221"/>
      <point x="249" y="156"/>
    </contour>
    <contour>
      <point x="134" y="-223" type="move" name="bottom"/>
    </contour>
    <contour>
      <point x="261" y="431" type="move" name="top"/>
    </contour>
  </outline>
</glyph>
<glyph name="h" format="1">
  <advance width="474"/>
  <unicode hex="0068"/>
  <note>
    h
  </note>
  <outline>
    <contour>
      <point x="315" y="-6" type="curve" smooth="yes"/>
      <point x="346" y="-6"/>
      <point x="415" y="46"/>
      <point x="439" y="88" type="curve"/>
      <point x="439" y="93"/>
      <point x="429" y="111"/>
      <point x="426" y="111" type="curve"/>
      <point x="389" y="70"/>
      <point x="372" y="56"/>
      <point x="360" y="56" type="curve" smooth="yes"/>
      <point x="353" y="56"/>
      <point x="350" y="63"/>
      <point x="350" y="77" type="curve" smooth="yes"/>
      <point x="350" y="86"/>
      <point x="352" y="98"/>
      <point x="354" y="106" type="curve" smooth="yes"/>
      <point x="387" y="260" type="line" smooth="yes"/>
      <point x="396" y="303"/>
      <point x="402" y="339"/>
      <point x="402" y="369" type="curve" smooth="yes"/>
      <point x="402" y="413"/>
      <point x="384" y="435"/>
      <point x="351" y="435" type="curve" smooth="yes"/>
      <point x="298" y="435"/>
      <point x="207" y="347"/>
      <point x="141" y="221" type="curve"/>
      <point x="142" y="213" type="line"/>
      <point x="216" y="591" type="line" smooth="yes"/>
      <point x="225" y="636"/>
      <point x="229" y="661"/>
      <point x="229" y="666" type="curve" smooth="yes"/>
      <point x="229" y="677"/>
      <point x="227" y="683"/>
      <point x="223" y="685" type="curve"/>
      <point x="183" y="670"/>
      <point x="141" y="661"/>
      <point x="97" y="657" type="curve"/>
      <point x="92" y="652"/>
      <point x="89" y="645"/>
      <point x="89" y="637" type="curve" smooth="yes"/>
      <point x="89" y="633"/>
      <point x="90" y="631"/>
      <point x="92" y="631" type="curve" smooth="yes"/>
      <point x="133" y="631"/>
      <point x="153" y="625"/>
      <point x="153" y="612" type="curve" smooth="yes"/>
      <point x="153" y="606"/>
      <point x="150" y="588"/>
      <point x="144" y="559" type="curve" smooth="yes"/>
      <point x="36" y="0" type="line"/>
      <point x="47" y="-3"/>
      <point x="58" y="-4"/>
      <point x="70" y="-4" type="curve" smooth="yes"/>
      <point x="82" y="-4"/>
      <point x="93" y="-3"/>
      <point x="102" y="0" type="curve"/>
      <point x="117" y="78" type="line" smooth="yes"/>
      <point x="139" y="192"/>
      <point x="255" y="361"/>
      <point x="310" y="361" type="curve" smooth="yes"/>
      <point x="323" y="361"/>
      <point x="330" y="347"/>
      <point x="330" y="330" type="curve" smooth="yes"/>
      <point x="330" y="316"/>
      <point x="327" y="286"/>
      <point x="322" y="264" type="curve" smooth="yes"/>
      <point x="286" y="99" type="line" smooth="yes"/>
      <point x="281" y="74"/>
      <point x="279" y="57"/>
      <point x="279" y="46" type="curve" smooth="yes"/>
      <point x="279" y="14"/>
      <point x="293" y="-6"/>
    </contour>
    <contour>
      <point x="195" y="0" type="move" name="bottom"/>
    </contour>
    <contour>
      <point x="259" y="329" type="move" name="center"/>
    </contour>
    <contour>
      <point x="204" y="530" type="move" name="stroke"/>
    </contour>
    <contour>
      <point x="323" y="658" type="move" name="top"/>
    </contour>
  </outline>
</glyph>
<glyph name="k" format="1">
  <advance width="417"/>
  <unicode hex="006B"/>
  <note>
    k
  </note>
  <outline>
    <contour>
      <point x="59" y="-5" type="curve" smooth="yes"/>
      <point x="69" y="-5"/>
      <point x="81" y="-3"/>
      <point x="93" y="0" type="curve"/>
      <point x="132" y="211" type="line"/>
      <point x="124" y="200" type="line"/>
      <point x="197" y="87" type="line" smooth="yes"/>
      <point x="235" y="29"/>
      <point x="270" y="-6"/>
      <point x="309" y="-6" type="curve" smooth="yes"/>
      <point x="337" y="-6"/>
      <point x="386" y="29"/>
      <point x="416" y="67" type="curve"/>
      <point x="416" y="75"/>
      <point x="407" y="94"/>
      <point x="403" y="94" type="curve"/>
      <point x="372" y="60"/>
      <point x="353" y="50"/>
      <point x="332" y="50" type="curve" smooth="yes"/>
      <point x="306" y="50"/>
      <point x="282" y="79"/>
      <point x="258" y="114" type="curve" smooth="yes"/>
      <point x="189" y="214" type="line"/>
      <point x="155" y="203" type="line"/>
      <point x="305" y="219"/>
      <point x="399" y="277"/>
      <point x="399" y="367" type="curve" smooth="yes"/>
      <point x="399" y="404"/>
      <point x="365" y="435"/>
      <point x="324" y="435" type="curve" smooth="yes"/>
      <point x="262" y="435"/>
      <point x="197" y="382"/>
      <point x="135" y="281" type="curve"/>
      <point x="146" y="278" type="line"/>
      <point x="207" y="591" type="line" smooth="yes"/>
      <point x="216" y="633"/>
      <point x="220" y="658"/>
      <point x="220" y="666" type="curve" smooth="yes"/>
      <point x="220" y="677"/>
      <point x="218" y="683"/>
      <point x="214" y="685" type="curve"/>
      <point x="173" y="670"/>
      <point x="131" y="661"/>
      <point x="88" y="657" type="curve"/>
      <point x="83" y="652"/>
      <point x="80" y="645"/>
      <point x="80" y="637" type="curve" smooth="yes"/>
      <point x="80" y="633"/>
      <point x="81" y="631"/>
      <point x="83" y="631" type="curve" smooth="yes"/>
      <point x="124" y="631"/>
      <point x="144" y="625"/>
      <point x="144" y="612" type="curve" smooth="yes"/>
      <point x="144" y="604"/>
      <point x="141" y="586"/>
      <point x="135" y="559" type="curve" smooth="yes"/>
      <point x="26" y="0" type="line"/>
      <point x="39" y="-3"/>
      <point x="50" y="-5"/>
    </contour>
    <contour>
      <point x="127" y="215" type="line"/>
      <point x="154" y="281"/>
      <point x="249" y="388"/>
      <point x="295" y="388" type="curve" smooth="yes"/>
      <point x="315" y="388"/>
      <point x="328" y="374"/>
      <point x="328" y="349" type="curve" smooth="yes"/>
      <point x="328" y="279"/>
      <point x="234" y="229"/>
      <point x="117" y="229" type="curve"/>
    </contour>
    <contour>
      <point x="171" y="0" type="move" name="bottom"/>
    </contour>
    <contour>
      <point x="299" y="658" type="move" name="top"/>
    </contour>
  </outline>
</glyph>
<glyph name="l" format="1">
  <advance width="230"/>
  <unicode hex="006C"/>
  <note>
    l
  </note>
  <outline>
    <contour>
      <point x="73" y="-6" type="curve" smooth="yes"/>
      <point x="117" y="-6"/>
      <point x="182" y="59"/>
      <point x="199" y="88" type="curve"/>
      <point x="199" y="93"/>
      <point x="190" y="111"/>
      <point x="186" y="111" type="curve"/>
      <point x="159" y="80"/>
      <point x="138" y="56"/>
      <point x="120" y="56" type="curve" smooth="yes"/>
      <point x="113" y="56"/>
      <point x="110" y="64"/>
      <point x="110" y="81" type="curve" smooth="yes"/>
      <point x="110" y="90"/>
      <point x="111" y="98"/>
      <point x="113" y="106" type="curve" smooth="yes"/>
      <point x="208" y="591" type="line" smooth="yes"/>
      <point x="216" y="633"/>
      <point x="221" y="658"/>
      <point x="221" y="666" type="curve" smooth="yes"/>
      <point x="221" y="677"/>
      <point x="219" y="683"/>
      <point x="215" y="685" type="curve"/>
      <point x="175" y="670"/>
      <point x="132" y="661"/>
      <point x="87" y="657" type="curve"/>
      <point x="82" y="652"/>
      <point x="79" y="645"/>
      <point x="79" y="637" type="curve" smooth="yes"/>
      <point x="79" y="633"/>
      <point x="80" y="631"/>
      <point x="82" y="631" type="curve" smooth="yes"/>
      <point x="123" y="631"/>
      <point x="143" y="625"/>
      <point x="143" y="612" type="curve" smooth="yes"/>
      <point x="143" y="603"/>
      <point x="142" y="594"/>
      <point x="140" y="584" type="curve" smooth="yes"/>
      <point x="46" y="99" type="line" smooth="yes"/>
      <point x="41" y="75"/>
      <point x="39" y="57"/>
      <point x="39" y="46" type="curve" smooth="yes"/>
      <point x="39" y="15"/>
      <point x="53" y="-6"/>
    </contour>
    <contour>
      <point x="73" y="0" type="move" name="bottom"/>
    </contour>
    <contour>
      <point x="124" y="329" type="move" name="center"/>
    </contour>
    <contour>
      <point x="241" y="329" type="move" name="dotacc"/>
    </contour>
    <contour>
      <point x="201" y="658" type="move" name="top"/>
    </contour>
    <contour>
      <point x="207" y="431" type="move" name="topright"/>
    </contour>
  </outline>
</glyph>
<glyph name="m" format="1">
  <advance width="711"/>
  <unicode hex="006D"/>
  <note>
    m
  </note>
  <outline>
    <contour>
      <point x="552" y="-6" type="curve" smooth="yes"/>
      <point x="583" y="-6"/>
      <point x="652" y="46"/>
      <point x="676" y="88" type="curve"/>
      <point x="676" y="93"/>
      <point x="666" y="111"/>
      <point x="663" y="111" type="curve"/>
      <point x="626" y="70"/>
      <point x="609" y="56"/>
      <point x="597" y="56" type="curve" smooth="yes"/>
      <point x="590" y="56"/>
      <point x="587" y="63"/>
      <point x="587" y="77" type="curve" smooth="yes"/>
      <point x="587" y="86"/>
      <point x="589" y="98"/>
      <point x="591" y="106" type="curve" smooth="yes"/>
      <point x="624" y="260" type="line" smooth="yes"/>
      <point x="633" y="303"/>
      <point x="639" y="339"/>
      <point x="639" y="369" type="curve" smooth="yes"/>
      <point x="639" y="413"/>
      <point x="621" y="435"/>
      <point x="588" y="435" type="curve" smooth="yes"/>
      <point x="530" y="435"/>
      <point x="435" y="328"/>
      <point x="372" y="191" type="curve"/>
      <point x="380" y="184" type="line"/>
      <point x="397" y="260" type="line" smooth="yes"/>
      <point x="406" y="303"/>
      <point x="412" y="339"/>
      <point x="412" y="369" type="curve" smooth="yes"/>
      <point x="412" y="413"/>
      <point x="394" y="435"/>
      <point x="361" y="435" type="curve" smooth="yes"/>
      <point x="303" y="435"/>
      <point x="208" y="328"/>
      <point x="145" y="191" type="curve"/>
      <point x="154" y="184" type="line"/>
      <point x="183" y="330" type="line" smooth="yes"/>
      <point x="187" y="351"/>
      <point x="189" y="368"/>
      <point x="189" y="383" type="curve" smooth="yes"/>
      <point x="189" y="415"/>
      <point x="176" y="435"/>
      <point x="155" y="435" type="curve" smooth="yes"/>
      <point x="123" y="435"/>
      <point x="72" y="393"/>
      <point x="40" y="349" type="curve"/>
      <point x="40" y="344"/>
      <point x="50" y="326"/>
      <point x="53" y="326" type="curve"/>
      <point x="79" y="357"/>
      <point x="98" y="373"/>
      <point x="108" y="373" type="curve" smooth="yes"/>
      <point x="115" y="373"/>
      <point x="118" y="365"/>
      <point x="118" y="348" type="curve" smooth="yes"/>
      <point x="118" y="339"/>
      <point x="116" y="321"/>
      <point x="112" y="298" type="curve" smooth="yes"/>
      <point x="54" y="0" type="line"/>
      <point x="65" y="-3"/>
      <point x="76" y="-4"/>
      <point x="88" y="-4" type="curve" smooth="yes"/>
      <point x="100" y="-4"/>
      <point x="111" y="-3"/>
      <point x="120" y="0" type="curve"/>
      <point x="135" y="78" type="line" smooth="yes"/>
      <point x="157" y="192"/>
      <point x="265" y="361"/>
      <point x="320" y="361" type="curve" smooth="yes"/>
      <point x="333" y="361"/>
      <point x="340" y="347"/>
      <point x="340" y="330" type="curve" smooth="yes"/>
      <point x="340" y="304"/>
      <point x="336" y="286"/>
      <point x="332" y="264" type="curve" smooth="yes"/>
      <point x="281" y="0" type="line"/>
      <point x="292" y="-3"/>
      <point x="303" y="-4"/>
      <point x="315" y="-4" type="curve" smooth="yes"/>
      <point x="327" y="-4"/>
      <point x="338" y="-3"/>
      <point x="347" y="0" type="curve"/>
      <point x="362" y="78" type="line" smooth="yes"/>
      <point x="384" y="192"/>
      <point x="492" y="361"/>
      <point x="547" y="361" type="curve" smooth="yes"/>
      <point x="560" y="361"/>
      <point x="567" y="347"/>
      <point x="567" y="330" type="curve" smooth="yes"/>
      <point x="567" y="304"/>
      <point x="564" y="286"/>
      <point x="559" y="264" type="curve" smooth="yes"/>
      <point x="523" y="99" type="line" smooth="yes"/>
      <point x="518" y="74"/>
      <point x="516" y="57"/>
      <point x="516" y="46" type="curve" smooth="yes"/>
      <point x="516" y="14"/>
      <point x="530" y="-6"/>
    </contour>
    <contour>
      <point x="314" y="0" type="move" name="bottom"/>
    </contour>
    <contour>
      <point x="398" y="431" type="move" name="top"/>
    </contour>
  </outline>
</glyph>
<glyph name="n" format="1">
  <advance width="492"/>
  <unicode hex="006E"/>
  <note>
    n
  </note>
  <outline>
    <contour>
      <point x="333" y="-6" type="curve" smooth="yes"/>
      <point x="364" y="-6"/>
      <point x="433" y="46"/>
      <point x="457" y="88" type="curve"/>
      <point x="457" y="93"/>
      <point x="447" y="111"/>
      <point x="444" y="111" type="curve"/>
      <point x="407" y="70"/>
      <point x="390" y="56"/>
      <point x="378" y="56" type="curve" smooth="yes"/>
      <point x="371" y="56"/>
      <point x="368" y="63"/>
      <point x="368" y="77" type="curve" smooth="yes"/>
      <point x="368" y="86"/>
      <point x="370" y="98"/>
      <point x="372" y="106" type="curve" smooth="yes"/>
      <point x="405" y="260" type="line" smooth="yes"/>
      <point x="414" y="303"/>
      <point x="420" y="339"/>
      <point x="420" y="369" type="curve" smooth="yes"/>
      <point x="420" y="413"/>
      <point x="402" y="435"/>
      <point x="369" y="435" type="curve" smooth="yes"/>
      <point x="311" y="435"/>
      <point x="206" y="329"/>
      <point x="145" y="192" type="curve"/>
      <point x="154" y="184" type="line"/>
      <point x="183" y="330" type="line" smooth="yes"/>
      <point x="187" y="351"/>
      <point x="189" y="368"/>
      <point x="189" y="383" type="curve" smooth="yes"/>
      <point x="189" y="415"/>
      <point x="176" y="435"/>
      <point x="155" y="435" type="curve" smooth="yes"/>
      <point x="123" y="435"/>
      <point x="72" y="393"/>
      <point x="40" y="349" type="curve"/>
      <point x="40" y="344"/>
      <point x="50" y="326"/>
      <point x="53" y="326" type="curve"/>
      <point x="79" y="357"/>
      <point x="98" y="373"/>
      <point x="108" y="373" type="curve" smooth="yes"/>
      <point x="115" y="373"/>
      <point x="118" y="365"/>
      <point x="118" y="348" type="curve" smooth="yes"/>
      <point x="118" y="339"/>
      <point x="116" y="321"/>
      <point x="112" y="298" type="curve" smooth="yes"/>
      <point x="54" y="0" type="line"/>
      <point x="65" y="-3"/>
      <point x="76" y="-4"/>
      <point x="88" y="-4" type="curve" smooth="yes"/>
      <point x="100" y="-4"/>
      <point x="111" y="-3"/>
      <point x="120" y="0" type="curve"/>
      <point x="135" y="78" type="line" smooth="yes"/>
      <point x="157" y="192"/>
      <point x="273" y="361"/>
      <point x="328" y="361" type="curve" smooth="yes"/>
      <point x="341" y="361"/>
      <point x="348" y="347"/>
      <point x="348" y="330" type="curve" smooth="yes"/>
      <point x="348" y="304"/>
      <point x="345" y="286"/>
      <point x="340" y="264" type="curve" smooth="yes"/>
      <point x="304" y="99" type="line" smooth="yes"/>
      <point x="299" y="74"/>
      <point x="297" y="57"/>
      <point x="297" y="46" type="curve" smooth="yes"/>
      <point x="297" y="14"/>
      <point x="311" y="-6"/>
    </contour>
    <contour>
      <point x="204" y="0" type="move" name="bottom"/>
    </contour>
    <contour>
      <point x="288" y="431" type="move" name="top"/>
    </contour>
  </outline>
</glyph>
<glyph name="o" format="1">
  <advance width="412"/>
  <unicode hex="006F"/>
  <note>
    o
  </note>
  <outline>
    <contour>
      <point x="157" y="-5" type="curve" smooth="yes"/>
      <point x="262" y="-5"/>
      <point x="378" y="148"/>
      <point x="378" y="285" type="curve" smooth="yes"/>
      <point x="378" y="379"/>
      <point x="332" y="435"/>
      <point x="255" y="435" type="curve" smooth="yes"/>
      <point x="151" y="435"/>
      <point x="34" y="281"/>
      <point x="34" y="145" type="curve" smooth="yes"/>
      <point x="34" y="51"/>
      <point x="80" y="-5"/>
    </contour>
    <contour>
      <point x="175" y="36" type="curve" smooth="yes"/>
      <point x="136" y="36"/>
      <point x="110" y="84"/>
      <point x="110" y="158" type="curve" smooth="yes"/>
      <point x="110" y="273"/>
      <point x="175" y="394"/>
      <point x="237" y="394" type="curve" smooth="yes"/>
      <point x="276" y="394"/>
      <point x="302" y="346"/>
      <point x="302" y="272" type="curve" smooth="yes"/>
      <point x="302" y="157"/>
      <point x="237" y="36"/>
    </contour>
    <contour>
      <point x="164" y="0" type="move" name="bottom"/>
    </contour>
    <contour>
      <point x="206" y="216" type="move" name="center"/>
    </contour>
    <contour>
      <point x="253" y="10" type="move" name="ogonek"/>
    </contour>
    <contour>
      <point x="248" y="431" type="move" name="top"/>
    </contour>
    <contour>
      <point x="434" y="431" type="move" name="topright"/>
    </contour>
  </outline>
</glyph>
<glyph name="p" format="1">
  <advance width="441"/>
  <unicode hex="0070"/>
  <note>
    p
  </note>
  <outline>
    <contour>
      <point x="-32" y="-235" type="curve"/>
      <point x="12" y="-229"/>
      <point x="57" y="-226"/>
      <point x="86" y="-226" type="curve" smooth="yes"/>
      <point x="130" y="-226"/>
      <point x="139" y="-226"/>
      <point x="146" y="-227" type="curve"/>
      <point x="149" y="-220"/>
      <point x="151" y="-213"/>
      <point x="151" y="-205" type="curve" smooth="yes"/>
      <point x="151" y="-202"/>
      <point x="150" y="-199"/>
      <point x="149" y="-199" type="curve" smooth="yes"/>
      <point x="126" y="-199"/>
      <point x="111" y="-198"/>
      <point x="102" y="-196" type="curve"/>
      <point x="93" y="-193"/>
      <point x="88" y="-185"/>
      <point x="88" y="-173" type="curve" smooth="yes"/>
      <point x="88" y="-163"/>
      <point x="89" y="-154"/>
      <point x="91" y="-145" type="curve"/>
      <point x="124" y="24" type="line"/>
      <point x="109" y="0" type="line"/>
      <point x="123" y="-3"/>
      <point x="133" y="-5"/>
      <point x="148" y="-5" type="curve" smooth="yes"/>
      <point x="277" y="-5"/>
      <point x="414" y="157"/>
      <point x="414" y="310" type="curve" smooth="yes"/>
      <point x="414" y="384"/>
      <point x="371" y="435"/>
      <point x="307" y="435" type="curve" smooth="yes"/>
      <point x="244" y="435"/>
      <point x="169" y="381"/>
      <point x="43" y="244" type="curve"/>
      <point x="42" y="235"/>
      <point x="52" y="219"/>
      <point x="61" y="216" type="curve"/>
      <point x="180" y="344"/>
      <point x="224" y="377"/>
      <point x="276" y="377" type="curve" smooth="yes"/>
      <point x="319" y="377"/>
      <point x="340" y="348"/>
      <point x="340" y="289" type="curve" smooth="yes"/>
      <point x="340" y="164"/>
      <point x="259" y="41"/>
      <point x="176" y="41" type="curve" smooth="yes"/>
      <point x="141" y="41"/>
      <point x="130" y="58"/>
      <point x="138" y="99" type="curve" smooth="yes"/>
      <point x="202" y="430" type="line"/>
      <point x="193" y="435"/>
      <point x="184" y="437"/>
      <point x="171" y="437" type="curve" smooth="yes"/>
      <point x="157" y="437"/>
      <point x="146" y="436"/>
      <point x="138" y="433" type="curve"/>
      <point x="25" y="-147" type="line" smooth="yes"/>
      <point x="22" y="-164"/>
      <point x="16" y="-179"/>
      <point x="9" y="-190" type="curve" smooth="yes"/>
      <point x="0" y="-201"/>
      <point x="-13" y="-206"/>
      <point x="-31" y="-206" type="curve"/>
      <point x="-34" y="-210"/>
      <point x="-35" y="-216"/>
      <point x="-35" y="-227" type="curve" smooth="yes"/>
      <point x="-35" y="-232"/>
      <point x="-34" y="-234"/>
    </contour>
    <contour>
      <point x="183" y="0" type="move" name="bottom"/>
    </contour>
    <contour>
      <point x="267" y="431" type="move" name="top"/>
    </contour>
  </outline>
</glyph>
<glyph name="q" format="1">
  <advance width="443"/>
  <unicode hex="0071"/>
  <note>
    q
  </note>
  <outline>
    <contour>
      <point x="147" y="-235" type="curve"/>
      <point x="194" y="-230"/>
      <point x="240" y="-227"/>
      <point x="277" y="-227" type="curve" smooth="yes"/>
      <point x="297" y="-227"/>
      <point x="310" y="-227"/>
      <point x="330" y="-228" type="curve"/>
      <point x="333" y="-223"/>
      <point x="335" y="-215"/>
      <point x="335" y="-204" type="curve" smooth="yes"/>
      <point x="335" y="-200"/>
      <point x="334" y="-198"/>
      <point x="333" y="-198" type="curve" smooth="yes"/>
      <point x="300" y="-198"/>
      <point x="287" y="-189"/>
      <point x="287" y="-168" type="curve" smooth="yes"/>
      <point x="287" y="-165"/>
      <point x="287" y="-158"/>
      <point x="291" y="-137" type="curve" smooth="yes"/>
      <point x="335" y="106" type="line"/>
      <point x="397" y="424" type="line"/>
      <point x="376" y="431"/>
      <point x="350" y="435"/>
      <point x="316" y="435" type="curve" smooth="yes"/>
      <point x="178" y="435"/>
      <point x="27" y="283"/>
      <point x="27" y="120" type="curve" smooth="yes"/>
      <point x="27" y="51"/>
      <point x="66" y="-5"/>
      <point x="127" y="-5" type="curve" smooth="yes"/>
      <point x="171" y="-5"/>
      <point x="218" y="29"/>
      <point x="273" y="125" type="curve"/>
      <point x="221" y="-147" type="line" smooth="yes"/>
      <point x="218" y="-165"/>
      <point x="210" y="-177"/>
      <point x="200" y="-186" type="curve" smooth="yes"/>
      <point x="184" y="-200"/>
      <point x="164" y="-205"/>
      <point x="149" y="-205" type="curve" smooth="yes"/>
      <point x="146" y="-205"/>
      <point x="144" y="-211"/>
      <point x="144" y="-223" type="curve" smooth="yes"/>
      <point x="144" y="-226"/>
      <point x="145" y="-234"/>
    </contour>
    <contour>
      <point x="157" y="53" type="curve" smooth="yes"/>
      <point x="125" y="53"/>
      <point x="101" y="86"/>
      <point x="101" y="141" type="curve" smooth="yes"/>
      <point x="101" y="275"/>
      <point x="195" y="389"/>
      <point x="275" y="389" type="curve" smooth="yes"/>
      <point x="292" y="389"/>
      <point x="310" y="386"/>
      <point x="322" y="379" type="curve"/>
      <point x="302" y="274" type="line" smooth="yes"/>
      <point x="282" y="168"/>
      <point x="208" y="53"/>
    </contour>
    <contour>
      <point x="174" y="0" type="move" name="bottom"/>
    </contour>
    <contour>
      <point x="258" y="431" type="move" name="top"/>
    </contour>
  </outline>
</glyph>
<glyph name="r" format="1">
  <advance width="372"/>
  <unicode hex="0072"/>
  <note>
    r
  </note>
  <outline>
    <contour>
      <point x="155" y="435" type="curve" smooth="yes"/>
      <point x="120" y="435"/>
      <point x="56" y="376"/>
      <point x="40" y="349" type="curve"/>
      <point x="40" y="344"/>
      <point x="50" y="326"/>
      <point x="53" y="326" type="curve"/>
      <point x="71" y="349"/>
      <point x="96" y="373"/>
      <point x="108" y="373" type="curve" smooth="yes"/>
      <point x="115" y="373"/>
      <point x="118" y="360"/>
      <point x="118" y="348" type="curve" smooth="yes"/>
      <point x="118" y="340"/>
      <point x="116" y="321"/>
      <point x="112" y="298" type="curve" smooth="yes"/>
      <point x="54" y="0" type="line"/>
      <point x="66" y="-2"/>
      <point x="78" y="-3"/>
      <point x="91" y="-3" type="curve" smooth="yes"/>
      <point x="102" y="-3"/>
      <point x="112" y="-2"/>
      <point x="123" y="0" type="curve"/>
      <point x="137" y="75" type="line" smooth="yes"/>
      <point x="163" y="213"/>
      <point x="260" y="361"/>
      <point x="297" y="361" type="curve" smooth="yes"/>
      <point x="319" y="361"/>
      <point x="330" y="336"/>
      <point x="349" y="336" type="curve" smooth="yes"/>
      <point x="362" y="336"/>
      <point x="381" y="356"/>
      <point x="381" y="391" type="curve" smooth="yes"/>
      <point x="381" y="418"/>
      <point x="363" y="435"/>
      <point x="332" y="435" type="curve" smooth="yes"/>
      <point x="263" y="435"/>
      <point x="184" y="298"/>
      <point x="151" y="198" type="curve"/>
      <point x="153" y="184" type="line"/>
      <point x="183" y="330" type="line" smooth="yes"/>
      <point x="187" y="351"/>
      <point x="189" y="368"/>
      <point x="189" y="383" type="curve" smooth="yes"/>
      <point x="189" y="414"/>
      <point x="176" y="435"/>
    </contour>
    <contour>
      <point x="89" y="0" type="move" name="bottom"/>
    </contour>
    <contour>
      <point x="228" y="431" type="move" name="top"/>
    </contour>
  </outline>
</glyph>
<glyph name="s" format="1">
  <advance width="319"/>
  <unicode hex="0073"/>
  <note>
    s
  </note>
  <outline>
    <contour>
      <point x="208" y="438" type="curve" smooth="yes"/>
      <point x="137" y="438"/>
      <point x="69" y="378"/>
      <point x="69" y="315" type="curve" smooth="yes"/>
      <point x="69" y="225"/>
      <point x="193" y="164"/>
      <point x="193" y="84" type="curve" smooth="yes"/>
      <point x="193" y="56"/>
      <point x="169" y="38"/>
      <point x="143" y="38" type="curve" smooth="yes"/>
      <point x="95" y="38"/>
      <point x="78" y="95"/>
      <point x="48" y="95" type="curve" smooth="yes"/>
      <point x="29" y="95"/>
      <point x="14" y="77"/>
      <point x="14" y="51" type="curve" smooth="yes"/>
      <point x="14" y="21"/>
      <point x="59" y="-6"/>
      <point x="117" y="-6" type="curve" smooth="yes"/>
      <point x="183" y="-6"/>
      <point x="252" y="44"/>
      <point x="252" y="117" type="curve" smooth="yes"/>
      <point x="252" y="207"/>
      <point x="128" y="268"/>
      <point x="128" y="348" type="curve" smooth="yes"/>
      <point x="128" y="374"/>
      <point x="145" y="394"/>
      <point x="176" y="394" type="curve" smooth="yes"/>
      <point x="220" y="394"/>
      <point x="239" y="338"/>
      <point x="269" y="338" type="curve" smooth="yes"/>
      <point x="288" y="338"/>
      <point x="303" y="357"/>
      <point x="303" y="379" type="curve" smooth="yes"/>
      <point x="303" y="411"/>
      <point x="260" y="438"/>
    </contour>
    <contour>
      <point x="118" y="0" type="move" name="bottom"/>
    </contour>
    <contour>
      <point x="202" y="431" type="move" name="top"/>
    </contour>
  </outline>
</glyph>
<glyph name="t" format="1">
  <advance width="263"/>
  <unicode hex="0074"/>
  <note>
    t
  </note>
  <outline>
    <contour>
      <point x="86" y="-6" type="curve" smooth="yes"/>
      <point x="117" y="-6"/>
      <point x="186" y="46"/>
      <point x="210" y="88" type="curve"/>
      <point x="210" y="93"/>
      <point x="200" y="111"/>
      <point x="197" y="111" type="curve"/>
      <point x="160" y="70"/>
      <point x="144" y="56"/>
      <point x="131" y="56" type="curve" smooth="yes"/>
      <point x="124" y="56"/>
      <point x="121" y="64"/>
      <point x="121" y="81" type="curve" smooth="yes"/>
      <point x="121" y="90"/>
      <point x="123" y="103"/>
      <point x="127" y="121" type="curve" smooth="yes"/>
      <point x="212" y="550" type="line"/>
      <point x="208" y="551"/>
      <point x="198" y="552"/>
      <point x="190" y="552" type="curve" smooth="yes"/>
      <point x="159" y="552"/>
      <point x="145" y="549"/>
      <point x="143" y="542" type="curve"/>
      <point x="59" y="111" type="line" smooth="yes"/>
      <point x="52" y="76"/>
      <point x="50" y="57"/>
      <point x="50" y="46" type="curve" smooth="yes"/>
      <point x="50" y="14"/>
      <point x="65" y="-6"/>
    </contour>
    <contour>
      <point x="40" y="378" type="curve" smooth="yes"/>
      <point x="265" y="378" type="line"/>
      <point x="271" y="389"/>
      <point x="274" y="399"/>
      <point x="274" y="407" type="curve" smooth="yes"/>
      <point x="274" y="416"/>
      <point x="272" y="420"/>
      <point x="269" y="420" type="curve" smooth="yes"/>
      <point x="49" y="420" type="line"/>
      <point x="41" y="408"/>
      <point x="37" y="398"/>
      <point x="37" y="389" type="curve" smooth="yes"/>
      <point x="37" y="382"/>
      <point x="38" y="378"/>
    </contour>
    <contour>
      <point x="84" y="0" type="move" name="bottom"/>
    </contour>
    <contour>
      <point x="133" y="269" type="move" name="center"/>
    </contour>
    <contour>
      <point x="168" y="500" type="move" name="top"/>
    </contour>
    <contour>
      <point x="222" y="431" type="move" name="topright"/>
    </contour>
  </outline>
</glyph>
<glyph name="u" format="1">
  <advance width="484"/>
  <unicode hex="0075"/>
  <note>
    u
  </note>
  <outline>
    <contour>
      <point x="122" y="-6" type="curve" smooth="yes"/>
      <point x="178" y="-6"/>
      <point x="276" y="101"/>
      <point x="335" y="233" type="curve"/>
      <point x="327" y="235" type="line"/>
      <point x="300" y="99" type="line" smooth="yes"/>
      <point x="296" y="78"/>
      <point x="294" y="61"/>
      <point x="294" y="46" type="curve" smooth="yes"/>
      <point x="294" y="14"/>
      <point x="308" y="-6"/>
      <point x="330" y="-6" type="curve" smooth="yes"/>
      <point x="361" y="-6"/>
      <point x="430" y="46"/>
      <point x="454" y="88" type="curve"/>
      <point x="454" y="93"/>
      <point x="444" y="111"/>
      <point x="441" y="111" type="curve"/>
      <point x="404" y="70"/>
      <point x="387" y="56"/>
      <point x="375" y="56" type="curve" smooth="yes"/>
      <point x="368" y="56"/>
      <point x="365" y="64"/>
      <point x="365" y="81" type="curve" smooth="yes"/>
      <point x="365" y="90"/>
      <point x="367" y="108"/>
      <point x="371" y="131" type="curve" smooth="yes"/>
      <point x="429" y="429" type="line"/>
      <point x="418" y="432"/>
      <point x="407" y="433"/>
      <point x="395" y="433" type="curve" smooth="yes"/>
      <point x="383" y="433"/>
      <point x="372" y="432"/>
      <point x="363" y="429" type="curve"/>
      <point x="348" y="351" type="line" smooth="yes"/>
      <point x="326" y="237"/>
      <point x="214" y="68"/>
      <point x="163" y="68" type="curve" smooth="yes"/>
      <point x="150" y="68"/>
      <point x="143" y="82"/>
      <point x="143" y="99" type="curve" smooth="yes"/>
      <point x="143" y="125"/>
      <point x="146" y="143"/>
      <point x="151" y="165" type="curve" smooth="yes"/>
      <point x="187" y="330" type="line" smooth="yes"/>
      <point x="192" y="355"/>
      <point x="194" y="372"/>
      <point x="194" y="383" type="curve" smooth="yes"/>
      <point x="194" y="415"/>
      <point x="181" y="435"/>
      <point x="160" y="435" type="curve" smooth="yes"/>
      <point x="128" y="435"/>
      <point x="77" y="393"/>
      <point x="45" y="349" type="curve"/>
      <point x="45" y="344"/>
      <point x="55" y="326"/>
      <point x="58" y="326" type="curve"/>
      <point x="84" y="357"/>
      <point x="103" y="373"/>
      <point x="113" y="373" type="curve" smooth="yes"/>
      <point x="120" y="373"/>
      <point x="123" y="365"/>
      <point x="123" y="355" type="curve" smooth="yes"/>
      <point x="123" y="343"/>
      <point x="121" y="331"/>
      <point x="119" y="323" type="curve" smooth="yes"/>
      <point x="86" y="169" type="line" smooth="yes"/>
      <point x="77" y="126"/>
      <point x="71" y="90"/>
      <point x="71" y="60" type="curve" smooth="yes"/>
      <point x="71" y="16"/>
      <point x="89" y="-6"/>
    </contour>
    <contour>
      <point x="199" y="0" type="move" name="bottom"/>
    </contour>
    <contour>
      <point x="389" y="10" type="move" name="ogonek"/>
    </contour>
    <contour>
      <point x="283" y="431" type="move" name="top"/>
    </contour>
    <contour>
      <point x="505" y="431" type="move" name="topright"/>
    </contour>
  </outline>
</glyph>
<glyph name="v" format="1">
  <advance width="438"/>
  <unicode hex="0076"/>
  <note>
    v
  </note>
  <outline>
    <contour>
      <point x="159" y="435" type="curve" smooth="yes"/>
      <point x="130" y="435"/>
      <point x="79" y="397"/>
      <point x="44" y="349" type="curve"/>
      <point x="44" y="344"/>
      <point x="54" y="326"/>
      <point x="57" y="326" type="curve"/>
      <point x="83" y="357"/>
      <point x="102" y="373"/>
      <point x="112" y="373" type="curve" smooth="yes"/>
      <point x="118" y="373"/>
      <point x="122" y="366"/>
      <point x="122" y="355" type="curve" smooth="yes"/>
      <point x="122" y="346"/>
      <point x="121" y="338"/>
      <point x="118" y="323" type="curve" smooth="yes"/>
      <point x="81" y="151" type="line" smooth="yes"/>
      <point x="74" y="118"/>
      <point x="72" y="102"/>
      <point x="72" y="85" type="curve" smooth="yes"/>
      <point x="72" y="32"/>
      <point x="93" y="-6"/>
      <point x="148" y="-6" type="curve" smooth="yes"/>
      <point x="248" y="-6"/>
      <point x="413" y="200"/>
      <point x="413" y="369" type="curve" smooth="yes"/>
      <point x="413" y="406"/>
      <point x="398" y="435"/>
      <point x="367" y="435" type="curve" smooth="yes"/>
      <point x="345" y="435"/>
      <point x="326" y="419"/>
      <point x="326" y="395" type="curve" smooth="yes"/>
      <point x="326" y="364"/>
      <point x="352" y="341"/>
      <point x="352" y="309" type="curve" smooth="yes"/>
      <point x="352" y="232"/>
      <point x="259" y="54"/>
      <point x="184" y="54" type="curve" smooth="yes"/>
      <point x="155" y="54"/>
      <point x="142" y="72"/>
      <point x="142" y="100" type="curve" smooth="yes"/>
      <point x="142" y="118"/>
      <point x="145" y="139"/>
      <point x="155" y="187" type="curve" smooth="yes"/>
      <point x="186" y="330" type="line" smooth="yes"/>
      <point x="191" y="351"/>
      <point x="193" y="370"/>
      <point x="193" y="383" type="curve" smooth="yes"/>
      <point x="193" y="415"/>
      <point x="180" y="435"/>
    </contour>
    <contour>
      <point x="173" y="0" type="move" name="bottom"/>
    </contour>
    <contour>
      <point x="257" y="431" type="move" name="top"/>
    </contour>
  </outline>
</glyph>
<glyph name="w" format="1">
  <advance width="646"/>
  <unicode hex="0077"/>
  <note>
    w
  </note>
  <outline>
    <contour>
      <point x="575" y="435" type="curve" smooth="yes"/>
      <point x="553" y="435"/>
      <point x="534" y="419"/>
      <point x="534" y="395" type="curve" smooth="yes"/>
      <point x="534" y="364"/>
      <point x="560" y="341"/>
      <point x="560" y="309" type="curve" smooth="yes"/>
      <point x="560" y="232"/>
      <point x="479" y="54"/>
      <point x="404" y="54" type="curve" smooth="yes"/>
      <point x="375" y="54"/>
      <point x="362" y="73"/>
      <point x="362" y="103" type="curve" smooth="yes"/>
      <point x="362" y="119"/>
      <point x="365" y="139"/>
      <point x="375" y="187" type="curve" smooth="yes"/>
      <point x="399" y="300" type="line" smooth="yes"/>
      <point x="406" y="331"/>
      <point x="413" y="369"/>
      <point x="413" y="393" type="curve" smooth="yes"/>
      <point x="413" y="419"/>
      <point x="400" y="435"/>
      <point x="377" y="435" type="curve" smooth="yes"/>
      <point x="353" y="435"/>
      <point x="337" y="419"/>
      <point x="331" y="375" type="curve" smooth="yes"/>
      <point x="303" y="162" type="line"/>
      <point x="269" y="104"/>
      <point x="224" y="54"/>
      <point x="185" y="54" type="curve" smooth="yes"/>
      <point x="155" y="54"/>
      <point x="142" y="72"/>
      <point x="142" y="100" type="curve" smooth="yes"/>
      <point x="142" y="118"/>
      <point x="145" y="139"/>
      <point x="155" y="187" type="curve" smooth="yes"/>
      <point x="186" y="330" type="line" smooth="yes"/>
      <point x="191" y="351"/>
      <point x="193" y="370"/>
      <point x="193" y="383" type="curve" smooth="yes"/>
      <point x="193" y="415"/>
      <point x="180" y="435"/>
      <point x="159" y="435" type="curve" smooth="yes"/>
      <point x="130" y="435"/>
      <point x="79" y="397"/>
      <point x="44" y="349" type="curve"/>
      <point x="44" y="344"/>
      <point x="54" y="326"/>
      <point x="57" y="326" type="curve"/>
      <point x="83" y="357"/>
      <point x="102" y="373"/>
      <point x="112" y="373" type="curve" smooth="yes"/>
      <point x="118" y="373"/>
      <point x="122" y="366"/>
      <point x="122" y="355" type="curve" smooth="yes"/>
      <point x="122" y="346"/>
      <point x="121" y="338"/>
      <point x="118" y="323" type="curve" smooth="yes"/>
      <point x="81" y="151" type="line" smooth="yes"/>
      <point x="74" y="118"/>
      <point x="72" y="102"/>
      <point x="72" y="85" type="curve" smooth="yes"/>
      <point x="72" y="32"/>
      <point x="93" y="-6"/>
      <point x="149" y="-6" type="curve" smooth="yes"/>
      <point x="198" y="-6"/>
      <point x="266" y="46"/>
      <point x="314" y="121" type="curve"/>
      <point x="299" y="133" type="line"/>
      <point x="287" y="56"/>
      <point x="302" y="-6"/>
      <point x="368" y="-6" type="curve" smooth="yes"/>
      <point x="468" y="-6"/>
      <point x="621" y="200"/>
      <point x="621" y="369" type="curve" smooth="yes"/>
      <point x="621" y="406"/>
      <point x="606" y="435"/>
    </contour>
    <contour>
      <point x="277" y="0" type="move" name="bottom"/>
    </contour>
    <contour>
      <point x="361" y="431" type="move" name="top"/>
    </contour>
  </outline>
</glyph>
<glyph name="x" format="1">
  <advance width="431"/>
  <unicode hex="0078"/>
  <note>
    x
  </note>
  <outline>
    <contour>
      <point x="153" y="435" type="curve" smooth="yes"/>
      <point x="121" y="435"/>
      <point x="56" y="382"/>
      <point x="51" y="351" type="curve"/>
      <point x="51" y="346"/>
      <point x="63" y="331"/>
      <point x="67" y="331" type="curve"/>
      <point x="79" y="353"/>
      <point x="107" y="375"/>
      <point x="123" y="375" type="curve" smooth="yes"/>
      <point x="134" y="375"/>
      <point x="143" y="364"/>
      <point x="150" y="341" type="curve" smooth="yes"/>
      <point x="191" y="207" type="line"/>
      <point x="123" y="86" type="line" smooth="yes"/>
      <point x="105" y="54"/>
      <point x="96" y="45"/>
      <point x="87" y="45" type="curve" smooth="yes"/>
      <point x="63" y="45"/>
      <point x="49" y="76"/>
      <point x="27" y="76" type="curve" smooth="yes"/>
      <point x="11" y="76"/>
      <point x="-5" y="58"/>
      <point x="-5" y="40" type="curve" smooth="yes"/>
      <point x="-5" y="11"/>
      <point x="19" y="-6"/>
      <point x="58" y="-6" type="curve" smooth="yes"/>
      <point x="95" y="-6"/>
      <point x="126" y="16"/>
      <point x="154" y="66" type="curve" smooth="yes"/>
      <point x="206" y="160" type="line"/>
      <point x="229" y="82" type="line" smooth="yes"/>
      <point x="246" y="24"/>
      <point x="269" y="-5"/>
      <point x="297" y="-5" type="curve" smooth="yes"/>
      <point x="329" y="-5"/>
      <point x="394" y="48"/>
      <point x="399" y="79" type="curve"/>
      <point x="399" y="85"/>
      <point x="388" y="99"/>
      <point x="383" y="99" type="curve"/>
      <point x="371" y="77"/>
      <point x="343" y="55"/>
      <point x="327" y="55" type="curve" smooth="yes"/>
      <point x="316" y="55"/>
      <point x="307" y="66"/>
      <point x="300" y="89" type="curve" smooth="yes"/>
      <point x="257" y="230" type="line"/>
      <point x="322" y="344" type="line" smooth="yes"/>
      <point x="339" y="374"/>
      <point x="348" y="384"/>
      <point x="357" y="384" type="curve" smooth="yes"/>
      <point x="381" y="384"/>
      <point x="395" y="353"/>
      <point x="417" y="353" type="curve" smooth="yes"/>
      <point x="433" y="353"/>
      <point x="449" y="371"/>
      <point x="449" y="389" type="curve" smooth="yes"/>
      <point x="449" y="417"/>
      <point x="425" y="435"/>
      <point x="386" y="435" type="curve" smooth="yes"/>
      <point x="350" y="435"/>
      <point x="318" y="414"/>
      <point x="290" y="364" type="curve" smooth="yes"/>
      <point x="242" y="277" type="line"/>
      <point x="221" y="348" type="line" smooth="yes"/>
      <point x="204" y="406"/>
      <point x="181" y="435"/>
    </contour>
    <contour>
      <point x="172" y="0" type="move" name="bottom"/>
    </contour>
    <contour>
      <point x="256" y="431" type="move" name="top"/>
    </contour>
  </outline>
</glyph>
<glyph name="y" format="1">
  <advance width="422"/>
  <unicode hex="0079"/>
  <note>
    y
  </note>
  <outline>
    <contour>
      <point x="118" y="435" type="curve" smooth="yes"/>
      <point x="83" y="435"/>
      <point x="15" y="377"/>
      <point x="4" y="349" type="curve"/>
      <point x="4" y="344"/>
      <point x="14" y="326"/>
      <point x="17" y="326" type="curve"/>
      <point x="35" y="349"/>
      <point x="63" y="369"/>
      <point x="75" y="369" type="curve" smooth="yes"/>
      <point x="93" y="369"/>
      <point x="111" y="331"/>
      <point x="121" y="259" type="curve" smooth="yes"/>
      <point x="128" y="192"/>
      <point x="132" y="128"/>
      <point x="132" y="62" type="curve" smooth="yes"/>
      <point x="132" y="-3"/>
      <point x="129" y="-42"/>
      <point x="109" y="-72" type="curve" smooth="yes"/>
      <point x="67" y="-133"/>
      <point x="18" y="-163"/>
      <point x="-35" y="-163" type="curve" smooth="yes"/>
      <point x="-65" y="-163"/>
      <point x="-87" y="-155"/>
      <point x="-102" y="-148" type="curve"/>
      <point x="-116" y="-155"/>
      <point x="-126" y="-168"/>
      <point x="-126" y="-188" type="curve" smooth="yes"/>
      <point x="-126" y="-214"/>
      <point x="-100" y="-233"/>
      <point x="-65" y="-233" type="curve" smooth="yes"/>
      <point x="27" y="-233"/>
      <point x="192" y="-82"/>
      <point x="305" y="104" type="curve" smooth="yes"/>
      <point x="363" y="201"/>
      <point x="391" y="284"/>
      <point x="391" y="356" type="curve" smooth="yes"/>
      <point x="391" y="406"/>
      <point x="373" y="435"/>
      <point x="342" y="435" type="curve" smooth="yes"/>
      <point x="316" y="435"/>
      <point x="297" y="419"/>
      <point x="297" y="396" type="curve" smooth="yes"/>
      <point x="297" y="369"/>
      <point x="322" y="324"/>
      <point x="322" y="285" type="curve" smooth="yes"/>
      <point x="322" y="218"/>
      <point x="270" y="104"/>
      <point x="203" y="28" type="curve"/>
      <point x="208" y="94"/>
      <point x="200" y="203"/>
      <point x="191" y="277" type="curve" smooth="yes"/>
      <point x="178" y="379"/>
      <point x="152" y="435"/>
    </contour>
    <contour>
      <point x="270" y="0" type="move" name="bottom"/>
    </contour>
    <contour>
      <point x="254" y="431" type="move" name="top"/>
    </contour>
  </outline>
</glyph>
<glyph name="z" format="1">
  <advance width="404"/>
  <unicode hex="007A"/>
  <note>
    z
  </note>
  <outline>
    <contour>
      <point x="33" y="0" type="curve"/>
      <point x="54" y="0"/>
      <point x="61" y="26"/>
      <point x="95" y="26" type="curve" smooth="yes"/>
      <point x="134" y="26"/>
      <point x="237" y="0"/>
      <point x="256" y="0" type="curve" smooth="yes"/>
      <point x="296" y="0"/>
      <point x="336" y="57"/>
      <point x="358" y="110" type="curve"/>
      <point x="356" y="122"/>
      <point x="338" y="129"/>
      <point x="332" y="129" type="curve"/>
      <point x="319" y="87"/>
      <point x="298" y="61"/>
      <point x="279" y="61" type="curve" smooth="yes"/>
      <point x="252" y="61"/>
      <point x="198" y="97"/>
      <point x="160" y="97" type="curve" smooth="yes"/>
      <point x="140" y="97"/>
      <point x="114" y="86"/>
      <point x="99" y="75" type="curve"/>
      <point x="81" y="46" type="line"/>
      <point x="326" y="326" type="line" smooth="yes"/>
      <point x="375" y="382"/>
      <point x="401" y="410"/>
      <point x="401" y="414" type="curve" smooth="yes"/>
      <point x="401" y="421"/>
      <point x="392" y="436"/>
      <point x="384" y="439" type="curve"/>
      <point x="365" y="439"/>
      <point x="349" y="414"/>
      <point x="319" y="414" type="curve" smooth="yes"/>
      <point x="279" y="414"/>
      <point x="193" y="439"/>
      <point x="168" y="439" type="curve" smooth="yes"/>
      <point x="130" y="439"/>
      <point x="81" y="365"/>
      <point x="70" y="330" type="curve"/>
      <point x="71" y="325"/>
      <point x="80" y="315"/>
      <point x="87" y="310" type="curve"/>
      <point x="115" y="357"/>
      <point x="129" y="376"/>
      <point x="149" y="376" type="curve" smooth="yes"/>
      <point x="175" y="376"/>
      <point x="223" y="342"/>
      <point x="266" y="342" type="curve" smooth="yes"/>
      <point x="277" y="342"/>
      <point x="305" y="355"/>
      <point x="314" y="365" type="curve"/>
      <point x="315" y="372" type="line"/>
      <point x="90" y="114" type="line" smooth="yes"/>
      <point x="53" y="72"/>
      <point x="17" y="31"/>
      <point x="17" y="23" type="curve" smooth="yes"/>
      <point x="17" y="15"/>
      <point x="21" y="6"/>
    </contour>
    <contour>
      <point x="157" y="0" type="move" name="bottom"/>
    </contour>
    <contour>
      <point x="199" y="216" type="move" name="center"/>
    </contour>
    <contour>
      <point x="241" y="431" type="move" name="top"/>
    </contour>
  </outline>
</glyph>
<glyph name="braceleft" format="1">
  <advance width="324"/>
  <unicode hex="007B"/>
  <note>
    braceleft
  </note>
  <outline>
    <contour>
      <point x="115" y="65"/>
      <point x="209" y="136"/>
      <point x="209" y="223" type="curve" smooth="yes"/>
      <point x="209" y="270"/>
      <point x="183" y="303"/>
      <point x="133" y="308" type="curve"/>
      <point x="202" y="315"/>
      <point x="252" y="375"/>
      <point x="252" y="445" type="curve" smooth="yes"/>
      <point x="252" y="488"/>
      <point x="234" y="529"/>
      <point x="234" y="580" type="curve" smooth="yes"/>
      <point x="234" y="664"/>
      <point x="281" y="710"/>
      <point x="363" y="717" type="curve"/>
      <point x="369" y="725"/>
      <point x="373" y="740"/>
      <point x="369" y="746" type="curve"/>
      <point x="248" y="734"/>
      <point x="173" y="666"/>
      <point x="173" y="555" type="curve" smooth="yes"/>
      <point x="173" y="498"/>
      <point x="195" y="447"/>
      <point x="195" y="411" type="curve" smooth="yes"/>
      <point x="195" y="356"/>
      <point x="152" y="325"/>
      <point x="86" y="325" type="curve"/>
      <point x="80" y="312"/>
      <point x="80" y="298"/>
      <point x="80" y="293" type="curve"/>
      <point x="129" y="293"/>
      <point x="161" y="278"/>
      <point x="161" y="237" type="curve" smooth="yes"/>
      <point x="161" y="178"/>
      <point x="64" y="94"/>
      <point x="64" y="-10" type="curve" smooth="yes"/>
      <point x="64" y="-68"/>
      <point x="115" y="-119"/>
      <point x="199" y="-128" type="curve"/>
      <point x="203" y="-124"/>
      <point x="207" y="-109"/>
      <point x="204" y="-99" type="curve"/>
      <point x="168" y="-96"/>
      <point x="115" y="-76"/>
      <point x="115" y="-21" type="curve" smooth="yes"/>
    </contour>
  </outline>
</glyph>
<glyph name="bar" format="1">
  <advance width="298"/>
  <unicode hex="007C"/>
  <note>
    bar
  </note>
  <outline>
    <contour>
      <point x="117" y="-114" type="line"/>
      <point x="288" y="765" type="line"/>
      <point x="224" y="765" type="line"/>
      <point x="53" y="-114" type="line"/>
    </contour>
  </outline>
</glyph>
<glyph name="braceright" format="1">
  <advance width="324"/>
  <unicode hex="007D"/>
  <note>
    braceright
  </note>
  <outline>
    <contour>
      <point x="-8" y="-128" type="curve"/>
      <point x="113" y="-116"/>
      <point x="188" y="-48"/>
      <point x="188" y="63" type="curve" smooth="yes"/>
      <point x="188" y="120"/>
      <point x="166" y="171"/>
      <point x="166" y="207" type="curve" smooth="yes"/>
      <point x="166" y="262"/>
      <point x="209" y="293"/>
      <point x="275" y="293" type="curve"/>
      <point x="281" y="306"/>
      <point x="281" y="320"/>
      <point x="281" y="325" type="curve"/>
      <point x="232" y="325"/>
      <point x="200" y="340"/>
      <point x="200" y="381" type="curve" smooth="yes"/>
      <point x="200" y="440"/>
      <point x="297" y="524"/>
      <point x="297" y="628" type="curve" smooth="yes"/>
      <point x="297" y="686"/>
      <point x="246" y="737"/>
      <point x="162" y="746" type="curve"/>
      <point x="158" y="742"/>
      <point x="154" y="727"/>
      <point x="157" y="717" type="curve"/>
      <point x="193" y="714"/>
      <point x="246" y="694"/>
      <point x="246" y="639" type="curve" smooth="yes"/>
      <point x="246" y="553"/>
      <point x="152" y="482"/>
      <point x="152" y="395" type="curve" smooth="yes"/>
      <point x="152" y="348"/>
      <point x="178" y="315"/>
      <point x="228" y="310" type="curve"/>
      <point x="159" y="303"/>
      <point x="109" y="243"/>
      <point x="109" y="173" type="curve" smooth="yes"/>
      <point x="109" y="130"/>
      <point x="127" y="89"/>
      <point x="127" y="38" type="curve" smooth="yes"/>
      <point x="127" y="-46"/>
      <point x="80" y="-92"/>
      <point x="-2" y="-99" type="curve"/>
      <point x="-8" y="-107"/>
      <point x="-12" y="-122"/>
    </contour>
  </outline>
</glyph>
<glyph name="asciitilde" format="1">
  <advance width="584"/>
  <unicode hex="007E"/>
  <note>
    asciitilde
  </note>
  <outline>
    <contour>
      <point x="65" y="198" type="line"/>
      <point x="100" y="228"/>
      <point x="137" y="247"/>
      <point x="180" y="247" type="curve" smooth="yes"/>
      <point x="256" y="247"/>
      <point x="309" y="194"/>
      <point x="391" y="194" type="curve" smooth="yes"/>
      <point x="447" y="194"/>
      <point x="509" y="226"/>
      <point x="546" y="275" type="curve"/>
      <point x="531" y="294" type="line"/>
      <point x="497" y="264"/>
      <point x="459" y="245"/>
      <point x="416" y="245" type="curve" smooth="yes"/>
      <point x="340" y="245"/>
      <point x="287" y="298"/>
      <point x="205" y="298" type="curve" smooth="yes"/>
      <point x="149" y="298"/>
      <point x="87" y="266"/>
      <point x="50" y="217" type="curve"/>
    </contour>
  </outline>
</glyph>
<glyph name="exclamdown" format="1">
  <advance width="221"/>
  <unicode hex="00A1"/>
  <note>
    exclamdown
  </note>
  <outline>
    <contour>
      <point x="122" y="274" type="curve" smooth="yes"/>
      <point x="113" y="274"/>
      <point x="106" y="266"/>
      <point x="100" y="248" type="curve" smooth="yes"/>
      <point x="67" y="149"/>
      <point x="0" y="-101"/>
      <point x="-12" y="-163" type="curve" smooth="yes"/>
      <point x="-19" y="-200"/>
      <point x="0" y="-220"/>
      <point x="25" y="-220" type="curve" smooth="yes"/>
      <point x="53" y="-220"/>
      <point x="78" y="-200"/>
      <point x="85" y="-163" type="curve" smooth="yes"/>
      <point x="97" y="-101"/>
      <point x="123" y="147"/>
      <point x="135" y="249" type="curve" smooth="yes"/>
      <point x="137" y="266"/>
      <point x="132" y="274"/>
    </contour>
    <contour>
      <point x="153" y="436" type="curve" smooth="yes"/>
      <point x="120" y="436"/>
      <point x="88" y="402"/>
      <point x="88" y="366" type="curve" smooth="yes"/>
      <point x="88" y="340"/>
      <point x="105" y="320"/>
      <point x="131" y="320" type="curve" smooth="yes"/>
      <point x="164" y="320"/>
      <point x="196" y="354"/>
      <point x="196" y="390" type="curve" smooth="yes"/>
      <point x="196" y="416"/>
      <point x="179" y="436"/>
    </contour>
  </outline>
</glyph>
<glyph name="sterling" format="1">
  <advance width="490"/>
  <unicode hex="00A3"/>
  <note>
    sterling
  </note>
  <outline>
    <contour>
      <point x="52" y="352" type="line"/>
      <point x="43" y="308" type="line"/>
      <point x="380" y="308" type="line"/>
      <point x="389" y="352" type="line"/>
    </contour>
    <contour>
      <point x="401" y="665" type="curve" smooth="yes"/>
      <point x="254" y="665"/>
      <point x="149" y="569"/>
      <point x="149" y="419" type="curve" smooth="yes"/>
      <point x="149" y="373"/>
      <point x="153" y="332"/>
      <point x="153" y="292" type="curve" smooth="yes"/>
      <point x="153" y="159"/>
      <point x="110" y="93"/>
      <point x="3" y="10" type="curve"/>
      <point x="1" y="0"/>
      <point x="8" y="-9"/>
      <point x="18" y="-9" type="curve"/>
      <point x="79" y="21"/>
      <point x="101" y="29"/>
      <point x="121" y="29" type="curve" smooth="yes"/>
      <point x="157" y="29"/>
      <point x="258" y="-8"/>
      <point x="305" y="-8" type="curve" smooth="yes"/>
      <point x="365" y="-8"/>
      <point x="423" y="39"/>
      <point x="455" y="113" type="curve"/>
      <point x="450" y="127"/>
      <point x="441" y="135"/>
      <point x="431" y="135" type="curve"/>
      <point x="416" y="97"/>
      <point x="376" y="61"/>
      <point x="349" y="61" type="curve" smooth="yes"/>
      <point x="313" y="61"/>
      <point x="246" y="93"/>
      <point x="198" y="93" type="curve" smooth="yes"/>
      <point x="165" y="93"/>
      <point x="141" y="90"/>
      <point x="125" y="84" type="curve"/>
      <point x="204" y="168"/>
      <point x="227" y="220"/>
      <point x="227" y="310" type="curve" smooth="yes"/>
      <point x="227" y="393"/>
      <point x="225" y="419"/>
      <point x="225" y="442" type="curve" smooth="yes"/>
      <point x="225" y="586"/>
      <point x="288" y="623"/>
      <point x="344" y="623" type="curve" smooth="yes"/>
      <point x="411" y="623"/>
      <point x="434" y="572"/>
      <point x="472" y="572" type="curve" smooth="yes"/>
      <point x="492" y="572"/>
      <point x="511" y="587"/>
      <point x="511" y="613" type="curve" smooth="yes"/>
      <point x="511" y="648"/>
      <point x="470" y="665"/>
    </contour>
  </outline>
</glyph>
<glyph name="currency" format="1">
  <advance width="468"/>
  <unicode hex="00A4"/>
  <note>
    currency
  </note>
  <outline>
    <contour>
      <point x="258" y="152" type="curve" smooth="yes"/>
      <point x="194" y="152"/>
      <point x="139" y="228"/>
      <point x="139" y="319" type="curve" smooth="yes"/>
      <point x="139" y="396"/>
      <point x="183" y="463"/>
      <point x="241" y="463" type="curve" smooth="yes"/>
      <point x="304" y="463"/>
      <point x="359" y="386"/>
      <point x="359" y="294" type="curve" smooth="yes"/>
      <point x="359" y="217"/>
      <point x="317" y="152"/>
    </contour>
    <contour>
      <point x="362" y="455" type="line"/>
      <point x="330" y="482"/>
      <point x="292" y="496"/>
      <point x="250" y="496" type="curve" smooth="yes"/>
      <point x="212" y="496"/>
      <point x="178" y="486"/>
      <point x="148" y="465" type="curve"/>
      <point x="96" y="520" type="line"/>
      <point x="77" y="515"/>
      <point x="43" y="489"/>
      <point x="52" y="479" type="curve"/>
      <point x="104" y="423" type="line"/>
      <point x="79" y="389"/>
      <point x="66" y="350"/>
      <point x="66" y="307" type="curve" smooth="yes"/>
      <point x="66" y="270"/>
      <point x="76" y="236"/>
      <point x="96" y="205" type="curve"/>
      <point x="42" y="154" type="line"/>
      <point x="47" y="134"/>
      <point x="73" y="101"/>
      <point x="83" y="110" type="curve" smooth="yes"/>
      <point x="136" y="160" type="line"/>
      <point x="170" y="133"/>
      <point x="208" y="120"/>
      <point x="250" y="120" type="curve" smooth="yes"/>
      <point x="289" y="120"/>
      <point x="324" y="132"/>
      <point x="356" y="155" type="curve"/>
      <point x="408" y="100" type="line"/>
      <point x="428" y="105"/>
      <point x="462" y="131"/>
      <point x="452" y="141" type="curve"/>
      <point x="398" y="199" type="line"/>
      <point x="420" y="232"/>
      <point x="431" y="268"/>
      <point x="431" y="307" type="curve" smooth="yes"/>
      <point x="431" y="344"/>
      <point x="422" y="378"/>
      <point x="402" y="410" type="curve"/>
      <point x="462" y="466" type="line"/>
      <point x="458" y="486"/>
      <point x="431" y="520"/>
      <point x="421" y="510" type="curve"/>
    </contour>
  </outline>
</glyph>
<glyph name="yen" format="1">
  <advance width="588"/>
  <unicode hex="00A5"/>
  <note>
    yen
  </note>
  <outline>
    <contour>
      <point x="123" y="312" type="line"/>
      <point x="114" y="268" type="line"/>
      <point x="493" y="268" type="line"/>
      <point x="502" y="312" type="line"/>
    </contour>
    <contour>
      <point x="100" y="192" type="line"/>
      <point x="91" y="148" type="line"/>
      <point x="470" y="148" type="line"/>
      <point x="479" y="192" type="line"/>
    </contour>
    <contour>
      <point x="135" y="-3" type="curve"/>
      <point x="202" y="0"/>
      <point x="238" y="2"/>
      <point x="254" y="2" type="curve" smooth="yes"/>
      <point x="262" y="2"/>
      <point x="299" y="0"/>
      <point x="365" y="-3" type="curve"/>
      <point x="367" y="1"/>
      <point x="369" y="6"/>
      <point x="370" y="11" type="curve" smooth="yes"/>
      <point x="372" y="20"/>
      <point x="372" y="24"/>
      <point x="369" y="24" type="curve" smooth="yes"/>
      <point x="351" y="24"/>
      <point x="313" y="39"/>
      <point x="312" y="46" type="curve" smooth="yes"/>
      <point x="309" y="67"/>
      <point x="314" y="98"/>
      <point x="322" y="139" type="curve" smooth="yes"/>
      <point x="352" y="291" type="line" smooth="yes"/>
      <point x="353" y="297"/>
      <point x="368" y="319"/>
      <point x="389" y="347" type="curve" smooth="yes"/>
      <point x="535" y="543" type="line" smooth="yes"/>
      <point x="553" y="568"/>
      <point x="572" y="588"/>
      <point x="585" y="604" type="curve"/>
      <point x="598" y="617"/>
      <point x="649" y="635"/>
      <point x="673" y="635" type="curve" smooth="yes"/>
      <point x="676" y="635"/>
      <point x="679" y="639"/>
      <point x="680" y="647" type="curve" smooth="yes"/>
      <point x="681" y="653"/>
      <point x="681" y="658"/>
      <point x="681" y="662" type="curve"/>
      <point x="666" y="662"/>
      <point x="601" y="656"/>
      <point x="573" y="656" type="curve" smooth="yes"/>
      <point x="568" y="656"/>
      <point x="527" y="658"/>
      <point x="454" y="662" type="curve"/>
      <point x="450" y="659"/>
      <point x="448" y="654"/>
      <point x="447" y="647" type="curve" smooth="yes"/>
      <point x="446" y="639"/>
      <point x="445" y="635"/>
      <point x="448" y="635" type="curve" smooth="yes"/>
      <point x="483" y="635"/>
      <point x="514" y="619"/>
      <point x="511" y="602" type="curve" smooth="yes"/>
      <point x="509" y="590"/>
      <point x="491" y="564"/>
      <point x="466" y="530" type="curve" smooth="yes"/>
      <point x="324" y="336" type="line"/>
      <point x="332" y="336" type="line"/>
      <point x="264" y="571" type="line"/>
      <point x="259" y="584"/>
      <point x="257" y="594"/>
      <point x="259" y="601" type="curve" smooth="yes"/>
      <point x="264" y="619"/>
      <point x="294" y="635"/>
      <point x="325" y="635" type="curve" smooth="yes"/>
      <point x="327" y="635"/>
      <point x="331" y="643"/>
      <point x="332" y="650" type="curve" smooth="yes"/>
      <point x="333" y="655"/>
      <point x="333" y="660"/>
      <point x="333" y="662" type="curve"/>
      <point x="252" y="658"/>
      <point x="213" y="656"/>
      <point x="205" y="656" type="curve" smooth="yes"/>
      <point x="191" y="656"/>
      <point x="142" y="659"/>
      <point x="87" y="662" type="curve"/>
      <point x="83" y="659"/>
      <point x="81" y="654"/>
      <point x="80" y="646" type="curve" smooth="yes"/>
      <point x="79" y="639"/>
      <point x="78" y="635"/>
      <point x="81" y="635" type="curve" smooth="yes"/>
      <point x="97" y="635"/>
      <point x="132" y="623"/>
      <point x="142" y="613" type="curve" smooth="yes"/>
      <point x="159" y="596"/>
      <point x="166" y="589"/>
      <point x="179" y="549" type="curve" smooth="yes"/>
      <point x="250" y="323" type="line" smooth="yes"/>
      <point x="257" y="301"/>
      <point x="262" y="278"/>
      <point x="260" y="267" type="curve" smooth="yes"/>
      <point x="236" y="142" type="line" smooth="yes"/>
      <point x="228" y="99"/>
      <point x="218" y="67"/>
      <point x="209" y="46" type="curve"/>
      <point x="204" y="38"/>
      <point x="162" y="24"/>
      <point x="141" y="24" type="curve" smooth="yes"/>
      <point x="138" y="24"/>
      <point x="137" y="20"/>
      <point x="134" y="11" type="curve" smooth="yes"/>
      <point x="132" y="4"/>
      <point x="133" y="0"/>
    </contour>
  </outline>
</glyph>
<glyph name="brokenbar" format="1">
  <advance width="298"/>
  <unicode hex="00A6"/>
  <note>
    brokenbar
  </note>
  <outline>
    <contour>
      <point x="190" y="261" type="line"/>
      <point x="126" y="261" type="line"/>
      <point x="53" y="-114" type="line"/>
      <point x="117" y="-114" type="line"/>
    </contour>
    <contour>
      <point x="151" y="390" type="line"/>
      <point x="215" y="390" type="line"/>
      <point x="288" y="765" type="line"/>
      <point x="224" y="765" type="line"/>
    </contour>
  </outline>
</glyph>
